<?xml version="1.0" encoding="utf-8"?>
<!-- Generator: Adobe Illustrator 25.3.0, SVG Export Plug-In . SVG Version: 6.00 Build 0)  -->
<svg version="1.1" id="Layer_1" xmlns="http://www.w3.org/2000/svg" xmlns:xlink="http://www.w3.org/1999/xlink" x="0px" y="0px"
	 viewBox="0 0 256 256" style="enable-background:new 0 0 256 256;" xml:space="preserve">
<g>
	<path d="M160.2,178.5h27.6L143.8,64h-30.5L69.1,178.5h27.6l7.2-19.4h41.7l-7.5-21.5h-27.4l17.9-49.3L160.2,178.5z M251.3,93.8
		c-1-3.5-4.6-5.6-8.2-4.6c-3.5,1-5.6,4.6-4.6,8.2c2.8,10,4.2,20.3,4.2,30.7c0,63.2-51.5,114.7-114.7,114.7S13.3,191.2,13.3,128
		C13.3,64.8,64.8,13.3,128,13.3c26.8,0,52.7,9.5,73.2,26.5c-0.8,1.9-1.2,4-1.2,6.2c0,8.8,7.2,16,16,16c8.8,0,16-7.2,16-16
		s-7.2-16-16-16c-1.7,0-3.3,0.3-4.9,0.8C188,11.1,158.5,0,128,0C57.4,0,0,57.4,0,128c0,70.6,57.4,128,128,128s128-57.4,128-128
		C256,116.4,254.4,104.9,251.3,93.8z"/>
</g>
</svg>
