<?xml version="1.0" encoding="utf-8"?>
<!-- Generator: Adobe Illustrator 25.3.0, SVG Export Plug-In . SVG Version: 6.00 Build 0)  -->
<svg version="1.1" id="Layer_1" xmlns="http://www.w3.org/2000/svg" xmlns:xlink="http://www.w3.org/1999/xlink" x="0px" y="0px"
	 viewBox="0 0 256 153" style="enable-background:new 0 0 256 153;" xml:space="preserve">
<g>
	<path d="M72.4,55.4c0,3.1,0.3,5.7,0.9,7.5c0.7,1.9,1.5,3.9,2.7,6.1c0.4,0.7,0.6,1.4,0.6,1.9c0,0.8-0.5,1.7-1.6,2.5l-5.3,3.6
		c-0.8,0.5-1.5,0.8-2.2,0.8c-0.8,0-1.7-0.4-2.5-1.2c-1.2-1.3-2.2-2.6-3.1-4c-0.8-1.4-1.7-3.1-2.6-5c-6.6,7.8-14.9,11.7-24.9,11.7
		c-7.1,0-12.8-2-17-6.1c-4.2-4.1-6.3-9.5-6.3-16.3c0-7.2,2.5-13.1,7.7-17.5s12-6.6,20.8-6.6c2.9,0,5.8,0.3,9,0.7
		c3.1,0.4,6.4,1.1,9.7,1.9v-6.2c0-6.4-1.4-10.9-4-13.6c-2.7-2.6-7.3-3.9-13.8-3.9c-3,0-6,0.3-9.2,1.1c-3.1,0.8-6.2,1.7-9.2,2.9
		c-1.4,0.6-2.4,0.9-3,1.1s-1,0.3-1.4,0.3c-1.2,0-1.8-0.8-1.8-2.6v-4.2c0-1.4,0.2-2.4,0.6-3c0.4-0.6,1.2-1.2,2.4-1.8
		c3-1.5,6.5-2.8,10.7-3.8c4.2-1.1,8.6-1.6,13.2-1.6c10.1,0,17.5,2.3,22.2,6.9c4.7,4.6,7,11.5,7,20.9v27.5H72.4z M38,68.3
		c2.8,0,5.7-0.5,8.7-1.5c3.1-1,5.8-2.9,8.1-5.4c1.4-1.6,2.4-3.4,2.9-5.4c0.5-2,0.8-4.5,0.8-7.4V45c-2.5-0.6-5.1-1.1-7.8-1.4
		s-5.3-0.5-8-0.5c-5.7,0-9.8,1.1-12.6,3.4c-2.8,2.3-4.2,5.5-4.2,9.7c0,4,1,7,3.1,9C31.1,67.3,34.1,68.3,38,68.3z M106,77.5
		c-1.5,0-2.5-0.3-3.2-0.8c-0.7-0.5-1.3-1.7-1.8-3.3L81.1,7.8c-0.5-1.7-0.8-2.8-0.8-3.4c0-1.4,0.7-2.1,2-2.1h8.3
		c1.6,0,2.7,0.3,3.3,0.8c0.7,0.5,1.2,1.7,1.7,3.3l14.2,56.1l13.2-56.1c0.4-1.7,0.9-2.8,1.6-3.3s1.9-0.8,3.4-0.8h6.8
		c1.6,0,2.7,0.3,3.4,0.8c0.7,0.5,1.3,1.7,1.6,3.3l13.4,56.8L168,6.4c0.5-1.7,1.1-2.8,1.7-3.3c0.7-0.5,1.8-0.8,3.3-0.8h7.9
		c1.4,0,2.1,0.7,2.1,2.1c0,0.4-0.1,0.8-0.2,1.4s-0.3,1.2-0.6,2.1l-20.4,65.5c-0.5,1.7-1.1,2.8-1.8,3.3c-0.7,0.5-1.8,0.8-3.2,0.8
		h-7.3c-1.6,0-2.7-0.3-3.4-0.8s-1.3-1.7-1.6-3.4l-13.1-54.7l-13.1,54.6c-0.4,1.7-0.9,2.8-1.6,3.4s-1.9,0.8-3.4,0.8H106z M215,79.8
		c-4.4,0-8.8-0.5-13.1-1.5c-4.2-1-7.5-2.1-9.7-3.4c-1.4-0.8-2.3-1.6-2.6-2.4c-0.3-0.8-0.5-1.6-0.5-2.4v-4.3c0-1.8,0.7-2.6,1.9-2.6
		c0.5,0,1,0.1,1.5,0.3s1.3,0.5,2.1,0.8c2.9,1.3,6,2.3,9.3,3c3.4,0.7,6.7,1,10.1,1c5.3,0,9.5-0.9,12.4-2.8c2.9-1.9,4.4-4.6,4.4-8.1
		c0-2.4-0.8-4.3-2.3-5.9c-1.5-1.6-4.4-3.1-8.6-4.4l-12.3-3.8c-6.2-1.9-10.8-4.8-13.6-8.6c-2.8-3.7-4.2-7.9-4.2-12.3
		c0-3.6,0.8-6.7,2.3-9.4c1.5-2.7,3.6-5.1,6.1-7c2.5-1.9,5.4-3.4,8.8-4.4s7-1.4,10.7-1.4c1.9,0,3.8,0.1,5.7,0.3
		c1.9,0.3,3.7,0.6,5.5,0.9c1.7,0.4,3.3,0.8,4.8,1.4c1.5,0.5,2.7,1,3.6,1.5c1.2,0.7,2,1.4,2.5,2.1c0.5,0.7,0.8,1.6,0.8,2.8v4
		c0,1.8-0.7,2.7-1.9,2.7c-0.7,0-1.8-0.3-3.2-1c-4.8-2.2-10.3-3.3-16.3-3.3c-4.8,0-8.6,0.8-11.3,2.4c-2.6,1.6-4,4.1-4,7.5
		c0,2.4,0.8,4.4,2.5,6c1.7,1.6,4.8,3.2,9.3,4.7l12,3.8c6.1,1.9,10.5,4.7,13.1,8.1c2.6,3.5,3.9,7.5,3.9,11.9c0,3.6-0.8,7-2.2,9.8
		c-1.5,2.9-3.6,5.4-6.2,7.5c-2.6,2.1-5.8,3.6-9.4,4.7C223.3,79.2,219.3,79.8,215,79.8z"/>
	<path d="M231,121c-27.9,20.6-68.4,31.5-103.2,31.5c-48.8,0-92.8-18.1-126.1-48.1c-2.6-2.4-0.3-5.6,2.9-3.7
		c35.9,20.9,80.3,33.5,126.1,33.5c30.9,0,64.9-6.4,96.2-19.7C231.6,112.4,235.6,117.6,231,121z M242.6,107.7
		c-3.6-4.6-23.6-2.2-32.6-1.1c-2.7,0.3-3.1-2-0.7-3.8c15.9-11.2,42.1-8,45.2-4.2c3.1,3.8-0.8,30-15.8,42.6c-2.3,1.9-4.5,0.9-3.5-1.6
		C238.6,131.1,246.2,112.2,242.6,107.7z"/>
</g>
</svg>
