<?xml version="1.0" encoding="utf-8"?>
<!-- Generator: Adobe Illustrator 25.3.0, SVG Export Plug-In . SVG Version: 6.00 Build 0)  -->
<svg version="1.1" id="Layer_1" xmlns="http://www.w3.org/2000/svg" xmlns:xlink="http://www.w3.org/1999/xlink" x="0px" y="0px"
	 viewBox="0 0 512 200" style="enable-background:new 0 0 512 200;" xml:space="preserve">
<g>
	<path d="M351.1,17.7l-0.1-1.1l-1.8,0.2l0.1,1.1L351.1,17.7L351.1,17.7z M363.1,46.4l0,0.6l1.2-0.1c0-0.4,0.1-1,0.4-1.7l-0.1-1.1
		C364.1,44.1,363.6,44.9,363.1,46.4L363.1,46.4z M316.5,82.6c-0.1-1-3.3-5-9.5-12c-0.1-1.3,2-3.2,6.5-5.7l12.6-11
		c2.8-3.6,4.5-9.4,5-17.5l-0.2-1.9c-0.5-5.6-4.5-10.1-12.2-13.5c-4.5-3.1-12.7-4.8-24.5-5.1c-9.8,0.8-22.5,4.3-38.2,10.5
		c-4.3,3.1-9.2,6.2-14.7,9.3l0.1,0.9c0.3,0,0.9-0.2,1.5-0.6c0.6-0.1,1,0.2,1.1,0.8l0.9-0.5l0.5,0l0,0.4c0,0.5-3.4,3.2-10.2,8l0.5,1
		l-0.5,0l-1.1-0.4c0,0.3-0.5,0.6-1.4,0.6l0,0.4l1.1,1.4c-0.3,0-0.9-0.1-1.6-0.4c-1.6,0.2-3.1,1-4.7,2.6l0.6-2.8
		c2.3-9.9,3.9-18.8,4.7-26.4l-0.1-0.5c-1.6-1-3.1-2.5-4.6-4.3c0-1.2,0-1.9,0-2l-0.1-0.4l-0.5,0.1c-5,7.5-14.6,20.3-28.9,38.3
		c-10.9,12.9-16.4,20-16.8,21.4c-4.4,4.6-6.5,7.3-6.3,8.3c-1.2,0.8-1.7,1.5-1.5,2.3c-0.3,0.1-0.6,0-0.6-0.4c-1.9,3.1-4.7,5-8.4,5.9
		l-3.9,0.9c-0.5,0.1-0.8,0.5-0.8,1.1l0.1,0.5l1.5-0.3l0.1,0.4l-3.3,1.3l-5.9,1.4l-3.1,0.2c-0.5,0.5,2.5,0,1.3,0.2l-3.9,0.9
		c-2.3,0.5-3.6,0.3-3.9-0.6l-0.5,0.1c0.1,0.4,0.1,0.7,0,1l-0.2-0.9l-3.1,0.7c-0.2-1.4-4.4-6.7-12.6-15.7c-0.2-1.7,2.7-4.3,8.6-7.6
		l16.6-14.6c3.7-4.8,5.9-12.4,6.6-22.9l-0.2-2.5c-0.6-7.4-6-13.4-16.1-18c-6-4-16.7-6.2-32.2-6.5c-12.9,1.1-29.6,5.7-50.3,13.7
		c-5.7,4.1-12.1,8.2-19.4,12.3l0.1,1.3c0.5,0,1.1-0.3,1.9-0.8c0.8-0.1,1.3,0.3,1.4,1.1l1.3-0.7l0.6,0l0,0.6c0,0.6-4.5,4.1-13.6,10.5
		l0.7,1.1l-0.6,0L31,47.3c0,0.4-0.6,0.6-1.9,0.8l0.1,0.7l1.5,1.7c-0.5,0-1.2-0.1-2-0.4c-2.9,0.3-5.8,2.4-8.7,6.4l0.7,1.1
		c2.5-2.3,3.9-3.4,4.3-3.4l0.2,1.9c-0.4,0-1.1,0.3-1.9,0.8l1.5,2.3c3-3.2,6.3-6,9.9-8.3c1.8,0.5,2.7,1,2.8,1.6l1.4-0.1
		c9.8-7.2,19.4-12.4,29-15.7l0.1,1.3c-1.8,2.6-3,4-3.6,4.1c0.1,0.9,0.4,1.7,0.9,2.4c0.2,1.6-4.2,12.6-13,32.9
		c-20,47.1-36.8,82-50.4,104.5c0,0.5,0.3,1.1,0.8,1.8c3.4-0.8,5.5-1.6,6.4-2.4l0.7-0.1l0.1,1.3l1.2-0.1l1.3-0.7
		c0,0.4,0.5,0.6,1.3,0.5l0.1,1.3c0.1,1.2-0.6,3.1-2.1,5.7c-1.4,1.6-2.8,4.8-4.4,9.8l0,0.6l1.2-0.1c5.4-6.1,9.6-12.1,12.4-17.9
		c15.9-4.7,28-9.2,36.4-13.7c8.4-0.7,14.9-3,19.2-6.6l-0.1-0.7l-3.2,0.9l-0.7,0.1l-0.1-0.7c6.2-0.9,10.5-2.3,12.9-4.2
		c12.1-9.3,21.2-15.9,27.3-19.8c12.7-9.3,20.9-18.4,24.7-27.2c0.7-0.2,1.4-0.3,2.1-0.5c1.8-0.1,2.8-0.1,3-0.2
		c-0.1-0.3,0.1-0.5,0.4-0.6c2.8-0.3,1.5,0.2,3.3-0.2l4.8-1.1c-0.3,0.1-0.4,0.2-0.3,0.5l0.7-0.5c-0.2,0-0.3,0-0.4-0.1l0.8-0.2
		l-0.4,0.2c0.5,0.1,1.1,0,1.7-0.1l0.3,1.4l-21.7,34.4l-4.8,6l-2.3,7.9l0.5-0.1l2.3-1l-0.8,3.1l0.2,0.9l0.6,0.8
		c-0.3,0.1-0.4,0.3-0.3,0.6l0.1,0.5l1-0.2c1.4-1.2,2-2.4,1.8-3.4c1.6,0.3,2.6,0.4,3.1,0.2l0.1,0.5c-0.9,0.2-1.4,1-1.5,2.3l0.1,0.5
		l0.5-0.1c7.9-8.6,27.2-38,42.6-57.9c-0.5-2.2,7.6-5.1,24.2-9l0.5-0.1c0.6,2.6-0.7,8.9-3.9,18.9c-2,6-3,9.4-2.9,9.9
		c-2.6,8.1-3.9,12.4-3.7,13.1l-5.9,19.3c-3.8,9.9-6.7,20.3-8.8,31.3c0.3-0.1,0.9,0,1.6,0.2l0.8-0.7c0.1,0.3,0.3,0.5,0.6,0.4
		l-0.3-1.4l2.6-0.1c0.8-0.2,1.4-1.1,1.9-2.9c-0.1-2.6,0.4-4,1.6-4.3c1.6-6.2,2.6-9.3,2.9-9.4c1.5-6.2,2.6-9.7,3.3-10.6
		c2.2-8,3.9-12.1,4.9-12.4l0.2,1l-1.6,4.2c-2.8,12.6-5.7,22.5-8.6,29.8l0.8,3.6l0.5-0.1c7-15.1,17.2-45.1,30.4-89.8
		c0.4-3.9,2.3-7,5.6-9.2l-0.8-0.8l-0.1-0.4c1.5-0.3,2.6-0.9,3.2-1.8c-0.1-0.3-1.4-0.8-4-1.5l6.6-28.2c1.4-1.3,2.3-2,2.5-2l0.1,1.4
		c-0.3,0-0.9,0.2-1.5,0.6l1.2,1.8c2.3-2.5,4.7-4.6,7.4-6.4c1.4,0.4,2,0.8,2.1,1.3l1-0.1c7.5-5.5,14.8-9.4,22-11.8l0.1,0.9
		c-1.3,2-2.2,3-2.7,3.1c0.1,0.7,0.3,1.3,0.6,1.8c0.1,1.2-3.1,9.6-9.8,25c-15.2,35.7-27.9,62.2-38.3,79.3c0,0.3,0.3,0.8,0.7,1.4
		c2.5-0.6,4.2-1.2,4.8-1.9l0.5,0l0.1,0.9l1.1-0.1l0.9-0.5c0,0.3,0.4,0.4,1,0.3l0.1,1c0.1,0.9-0.5,2.3-1.6,4.3
		c-1.1,1.2-2.2,3.6-3.4,7.4l0,0.5l1-0.1c4.1-4.6,7.3-9.2,9.4-13.6c12.1-3.6,21.3-7,27.6-10.4c6.5-0.6,11.3-2.2,14.7-5l0-0.5
		l-2.5,0.7l-0.5,0l0-0.5c4.7-0.7,8-1.7,9.8-3.1c9.2-7,16.1-12.1,20.8-15C310.5,102.6,317.3,92.4,316.5,82.6L316.5,82.6z M314,83.3
		l0.3,3.8c-0.5,0.9-0.9,1.4-1.4,1.5l-0.6-6.5C313.4,82.4,313.9,82.8,314,83.3L314,83.3z M27.6,52.5l-0.6,0l-0.1-1.2l2.6-0.2l0,0.6
		C29.1,51.8,28.5,52,27.6,52.5L27.6,52.5z M14.9,180c-1.5-0.7-2.9-0.9-4-0.8l-0.2-1.9c-0.1-0.7,0.3-1.2,1.2-1.4
		c0.8-0.1,1.3,0.5,1.4,1.7c2.2-2.7,3.4-4,3.6-4.1l1.4,0.6C17.9,177.9,16.8,179.8,14.9,180L14.9,180z M151.1,37.5
		c-0.6,0.1-1.9-1.9-3.8-5.9l-0.1-1.2c1.2-0.1,2.5,1.9,3.8,5.9L151.1,37.5L151.1,37.5z M149.3,23.4l-0.5,1.2l-18.5-7.7
		C142.6,17.4,148.9,19.5,149.3,23.4L149.3,23.4z M71.2,90.5l-2.6,0.2l-0.1-1.2l2.6-0.2L71.2,90.5L71.2,90.5z M69,50.2l0.6,0l0.2,1.9
		c-0.6,0-1.4,0.9-2.4,2.7l-0.1-1.3C68.5,52,69.1,50.9,69,50.2L69,50.2z M63.6,63.1l0.2,2.5l-0.6,0l-0.2-2.5L63.6,63.1L63.6,63.1z
		 M60.7,67.7l1.2-0.1c-0.1,2-0.7,3.1-1.7,3.2l-0.6,0C60.4,69.5,60.8,68.4,60.7,67.7L60.7,67.7z M58.5,74.2l0.7-0.1l0,0.6l-1.2,2
		l-1.2,0.1l0-0.6C58.1,76,58.6,75.4,58.5,74.2L58.5,74.2z M56.4,79.9L56,83l-0.6,0L55.1,80L56.4,79.9L56.4,79.9z M35.2,140.3
		c-0.8,4.2-1.7,6.4-2.7,6.5l0-0.6C32.3,144,33.2,142.1,35.2,140.3L35.2,140.3z M31.3,148.7l0,0.6c0.1,0.8-0.3,1.3-1.1,1.4l0-0.6
		C30.1,149.3,30.5,148.9,31.3,148.7L31.3,148.7z M30.2,166.2l2-0.2l0.1,0.7c-0.5,0-1.1,0.3-1.9,0.8l-1.2,0.1
		C29,166.9,29.4,166.4,30.2,166.2L30.2,166.2L30.2,166.2z M86.1,148.9c-11,5.4-17.5,9.2-19.5,11.1c-11.9,4.2-17.9,6.7-17.8,7.8
		c-10.6,4.2-17.6,7.3-21,9.2c-0.8,0.1-1.9-0.2-3.4-0.9c-0.2-2.2,0.8-3.9,2.9-5.3c1.9-0.2,3.6,0.1,5.3,0.8c2-1,5.4-2.2,10.3-3.4
		l-0.1-1.3l-3.9,0.3c0.5-0.7,4.3-2.5,11.4-5.3l2-0.2l0,0.6c-3.4,0.3-5.2,1.3-5.6,3.1c0.1,0.8,0.5,1.1,1.4,1.1
		c2.5-1.6,3.8-2.5,3.7-2.8c4.8-0.9,18.1-7.9,39.8-20.8l0.1,1.2C91.7,144.6,89.9,146.2,86.1,148.9L86.1,148.9z M52.8,159.9
		c3.2-0.3,5.9-1.6,8.2-3.8c0.9-0.1,1.4,0.3,1.4,1.1c-1.6,0.2-4.5,1.4-8.9,3.9l-0.6,0L52.8,159.9L52.8,159.9z M106.6,118.5
		l-16.7,13.2c-12.4,8.1-19.1,12.2-20,12.3c-19.7,10.9-32,16.5-36.8,16.9l-0.7,0.1c0.6-2.2,9.4-20.2,26.4-54
		c7.5-0.6,19.3-4.1,35.4-10.5l3.9-0.3c8.1-0.7,14.2,0.9,18.2,4.7l0.2,2.5C113.5,112,110.2,117.1,106.6,118.5L106.6,118.5z M74,100.2
		l2.7-0.2l0,0.6l-2.7,0.2L74,100.2L74,100.2z M111.7,93.8l2-0.2c1.8,0.9,2.8,1.6,2.8,2.3l0,0.6C114.8,96.7,113.2,95.8,111.7,93.8
		L111.7,93.8z M117,63.5c-1.7,2.1-6.5,5.6-14.3,10.6C100.2,74.3,90.6,78,74,85.3c-0.8-0.4-1.7-0.5-2.6-0.5l-0.1-1.2
		c-0.2-2.4,0.9-5.4,3.2-9c1.3-6.8,2.7-10.7,4.2-11.6l13.8-31c-0.2-1.9,2.8-3.4,8.8-4.4l2-0.2l0.2,1.8c5.9-0.9,9.6-1.4,11.1-1.6
		c11-0.9,16.7,1.3,17.1,6.6l1.2-0.1l-0.3-3.1l1.4-0.1c3.2,1.8,5,3.9,5.2,6.5c0.2,1.7-0.8,3.9-2.8,6.5c-0.8,0.1-1.3-0.5-1.4-1.7
		l-1.4,0.1l-0.3,3.8c-5.6,8.3-9.6,12.6-12.1,12.8C119,61.9,117.6,63.4,117,63.5L117,63.5z M125.5,85.2c-1.1-0.8-2-1.1-2.7-1.1
		l-0.2-1.9l1.2-0.1l2.8,1.6C126.8,84.7,126.4,85.1,125.5,85.2L125.5,85.2z M134.3,95.6c1.2,0.5,1.9,1,2.1,1.5l-0.6,0.2l0,0
		c-0.1,0-0.3,0-0.4,0.1l-0.9,0.7L134.3,95.6L134.3,95.6z M135.1,100.8l-0.1-0.5l1.6-0.4l0.1,0.5L135.1,100.8L135.1,100.8z
		 M138.9,105.1c1.6-0.3,2.4-0.4,5.4-1.1l0.1,0.5l-5.7,1.3C138.8,105.6,138.9,105.3,138.9,105.1L138.9,105.1z M144.5,107.5
		c-2.4,0.2-1.9-0.1-5.7,0.8l-0.1-0.5l4.8-1.6l2.3-0.5l0.2,0.9C145,106.8,145.7,106.8,144.5,107.5L144.5,107.5z M149.6,106.3
		c-0.6,0.2-1-0.1-1.3-0.8l1.5-0.3c0.6-0.2,1.1,0.1,1.2,0.8L149.6,106.3L149.6,106.3z M163.5,91.4l-0.1-0.5l2.4-0.6l0.2,0.9
		L163.5,91.4L163.5,91.4z M178.3,182c0.2-0.7,0.2-1.2,0.1-1.5l0.5-0.1c0.6-0.2,1,0.1,1.2,0.7l0.1,0.5L178.3,182L178.3,182z
		 M188.6,95.3l-1.1-0.2c-1.7,0.7-3.1,1.2-4.3,1.4l-1,0.2c-0.6,0.2-1-0.1-1.2-0.7l6.9-1.6l2.3-1.1l0.8,0.9
		C189.9,94.5,189.1,94.8,188.6,95.3L188.6,95.3z M193.9,93.6l-0.1-0.5c0.3-0.1,0.8-0.3,1.3-0.8l4.9-1.1l0.1,0.5
		C197.5,92.2,195.5,92.9,193.9,93.6L193.9,93.6z M194.7,83.6c-0.3,0.1-0.8,0.4-1.4,0.8c-0.1-0.3-0.8-0.3-2,0
		c-0.2-0.9,3.4-2.3,10.9-4l1.1-0.2l0.2,0.9C198.2,82.6,195.3,83.5,194.7,83.6L194.7,83.6z M207.9,69.3c-0.5,6-2.6,9.4-6.4,10.3
		l-0.1-0.5l-3.3,1.3l-1.5,0.3c-0.8,0.2-1.4,0.2-2,0l-0.3-1.3c-0.1-0.5,4.7-7.1,14.4-19.9l1.1,0.2C210.3,61.4,209.6,64.6,207.9,69.3
		L207.9,69.3z M231.3,49.3l-0.5,0l-0.1-0.9l2-0.2l0,0.5C232.5,48.7,232,48.9,231.3,49.3L231.3,49.3z M221.7,146.1
		c-1.1-0.5-2.2-0.8-3-0.7l-0.1-1.4c0-0.5,0.3-0.8,0.9-1c0.6-0.1,1,0.4,1.1,1.4c1.6-2.1,2.5-3.1,2.7-3.1l1,0.4
		C223.9,144.5,223.1,146,221.7,146.1L221.7,146.1z M325.1,38c-0.5,0-1.4-1.5-2.9-4.5l-0.1-0.9c0.9-0.1,1.9,1.4,2.9,4.4L325.1,38
		L325.1,38z M323.7,27.1l-0.5,1l-14-5.9C318.6,22.6,323.5,24.2,323.7,27.1L323.7,27.1z M264.4,78.1l-2,0.2l-0.1-0.9l2-0.2
		L264.4,78.1L264.4,78.1z M262.8,47.5l0.5,0l0.1,1.4c-0.5,0-1.1,0.7-1.8,2l-0.1-0.9C262.4,48.9,262.8,48.1,262.8,47.5L262.8,47.5z
		 M258.6,57.3l0.2,1.9l-0.5,0l-0.2-1.9L258.6,57.3L258.6,57.3z M256.4,60.8l1-0.1c-0.1,1.6-0.5,2.4-1.2,2.5l-0.5,0
		C256.2,62.2,256.5,61.4,256.4,60.8L256.4,60.8z M254.8,65.7l0.5,0l0,0.5l-0.9,1.5l-1,0.1l0-0.5C254.4,67.2,254.9,66.6,254.8,65.7
		L254.8,65.7z M253.2,70.1l-0.3,2.4l-0.5,0l-0.2-2.4L253.2,70.1L253.2,70.1z M237.1,115.9c-0.6,3.2-1.3,4.8-2,4.9l0-0.4
		C234.9,118.8,235.6,117.3,237.1,115.9L237.1,115.9z M234.1,122.3l0,0.4c0.1,0.7-0.2,1.1-0.9,1.1l0-0.5
		C233.2,122.9,233.5,122.5,234.1,122.3L234.1,122.3z M233.3,135.6l1.5-0.1l0,0.5c-0.3,0-0.9,0.2-1.5,0.6l-1,0.1
		C232.3,136.1,232.6,135.8,233.3,135.6L233.3,135.6z M275.7,122.5c-8.3,4.1-13.3,6.9-14.8,8.4c-9.1,3.2-13.6,5.1-13.5,5.9
		c-8.1,3.2-13.3,5.5-15.8,7c-0.6,0-1.5-0.2-2.6-0.7c-0.2-1.6,0.6-2.9,2.2-3.9c1.4-0.1,2.8,0.1,4,0.6c1.5-0.8,4.1-1.6,7.8-2.5
		l-0.1-0.9l-3.1,0.2c0.4-0.5,3.3-1.9,8.7-4.1l1.5-0.1l0,0.4c-2.6,0.2-4,1-4.3,2.3c0,0.6,0.4,0.9,1.1,0.8c1.9-1.2,2.8-2,2.8-2.2
		c3.6-0.6,13.7-5.9,30.2-15.8l0.1,0.9C280,119.2,278.6,120.4,275.7,122.5L275.7,122.5z M250.4,130.8c2.5-0.2,4.5-1.2,6.3-2.8
		c0.6-0.1,1,0.2,1.1,0.8c-1.1,0.1-3.4,1.1-6.7,2.9l-0.5,0L250.4,130.8L250.4,130.8z M291.3,99.4l-12.6,10.1
		c-9.4,6.2-14.5,9.3-15.3,9.3c-15,8.2-24.3,12.5-27.9,12.8l-0.5,0c0.5-1.7,7.1-15.4,20.1-41c5.6-0.5,14.6-3.2,26.8-8l3.1-0.3
		c6.2-0.5,10.8,0.7,13.8,3.6l0.2,1.9C296.5,94.4,294,98.2,291.3,99.4L291.3,99.4z M266.6,85.5l2-0.2l0,0.5l-2,0.2L266.6,85.5
		L266.6,85.5z M295.2,80.6l1.5-0.1c1.4,0.7,2.1,1.3,2.2,1.8l0,0.4C297.6,82.8,296.3,82.1,295.2,80.6L295.2,80.6z M299.2,57.6
		c-1.3,1.6-4.9,4.3-10.8,8.1c-2,0.2-9.2,3-21.8,8.4c-0.6-0.2-1.3-0.3-2-0.3l-0.1-0.9c-0.2-1.8,0.6-4.1,2.4-6.8
		c1-5.2,2.1-8.1,3.2-8.8l10.5-23.6c-0.1-1.4,2.1-2.5,6.7-3.4l1.5-0.1l0.1,1.4c4.5-0.7,7.3-1.1,8.4-1.2c8.3-0.7,12.7,0.9,13,5l1-0.1
		l-0.2-2.3l1-0.1c2.4,1.3,3.7,2.9,3.9,4.8c0.1,1.4-0.6,3-2,5c-0.6,0.1-1-0.4-1.1-1.4l-1,0.1l-0.3,2.8c-4.2,6.4-7.3,9.7-9.2,9.8
		C300.7,56.4,299.7,57.6,299.2,57.6L299.2,57.6z M303.6,73.3l-0.1-1.4l1-0.1l2.1,1.3c0,0.6-0.3,0.9-0.9,1
		C304.8,73.5,304.1,73.3,303.6,73.3L303.6,73.3z M127.6,165.2l-1,0.2l-0.8,0.7c0.2,0.6,0.5,0.8,1.2,0.7c0.6-0.2,0.9-0.5,0.8-1.1
		L127.6,165.2L127.6,165.2z M123.8,157.7l0.1,0.5c0.6-0.2,0.9-0.5,0.8-1.1l-0.1-0.5C124,156.7,123.7,157.1,123.8,157.7L123.8,157.7z
		 M150.5,94.4l1.1-0.3l-0.2-1l-1.1,0.3L150.5,94.4L150.5,94.4z M493.6,123.2c-11.5,2.6-12.9,2.1-15.4,2.3l0.1,0.9l1.1-0.1l0.6,0
		l-0.2-0.1l1.2-0.5c11.4-1.2,12.7-0.8,12.6-2.1L493.6,123.2L493.6,123.2z M431.7,131.4l0.1,0.9h0.2l-0.1-0.9H431.7L431.7,131.4z
		 M424.6,106.5l-1-0.3c-0.8,2.2-1.2,3.6-1.2,3.9l0,0.4C423.2,110.5,423.9,109.1,424.6,106.5L424.6,106.5z M495.9,123l0.1,0.9
		l1.7,0.3l-0.1-0.9L495.9,123L495.9,123z M417.7,132.6l-2.6-0.3l-0.5,1l0,0.5l15.3-1.3l-0.1-0.9L417.7,132.6L417.7,132.6z M410.7,99
		l0-0.5l-0.5,0l-0.9,0.6l0.5,0.9C410.5,100,410.8,99.7,410.7,99L410.7,99z M503.2,116.1l0.7-0.1c0.4,0,0.6-0.4,0.6-1l-0.4-0.9
		c-2.6,0.2-3.8,0.3-5.9,1.5l0-0.5l-3.1,0.3c-0.1-0.9-0.3-1.4-0.8-1.4l-1.6,0.2c-1.9,0.2-2.8,0.1-3.7,0.8c0-0.3-0.2-0.5-0.3-0.5
		l-1.8,0.2l-1.1,0.6c0-0.3-0.2-0.5-0.3-0.5l-0.6,0.6l0-0.5l-2.5-0.2l-0.6,0l0.1,0.9l1.3,0.3l1.2-0.1c0.4,0.3,0.9,0.3,1.4,0.3
		l1.1-0.5l0,0.4c-5.9,1.5-5.9,1.2-10,1.9c-0.5-0.3-0.8-0.5-1-0.4l-0.1,0.1c-0.5,0-0.7-0.3-0.8-0.8l2.1-0.3c0.2,0,0.3,0.2,1.4,0.4
		c1.7-0.8,1.8-1.2,2.7-1.2l-0.1-0.9c-5.8,1.1-3.5,0.4-10.8,1l-0.3,0l-0.1-0.9c9.4-1.1,6.2-0.5,9.5-1.4c0,0.3,0.2,0.5,0.3,0.5
		c0.4-0.4,0.8-0.6,1.3-0.6l0.6,0c3.3-0.3,4.4,0.4,10.9-1.4l0,0.4l1.1-0.5l1-0.1c-0.1-0.9,1.4-1.1,1.9-1.1l-0.1-1
		c-11.4,2.3-14.4,1.7-17.6,2.6l0-0.4c-3,0.5-3.1,0.3-3.9,0.3c-0.2,0-0.6,0.2-0.9,0.6c0-0.3-0.2-0.5-0.4-0.5c-0.1,0-0.2,0-0.2,0
		l-9.7,1.6c0-0.3-0.2-0.4-0.4-0.4c-5,1.1-3.7,1.2-10.4,1.9c-0.3,0-0.7,0.2-1.2,0.5c0-0.3-0.2-0.4-0.5-0.4l-4.1,0.3l-2.8,0.7
		c0-0.3-0.2-0.4-0.5-0.4c-1.5,0.4-2.9,0.7-4,0.8h-0.1c-0.7,0.1,0.3-0.2-0.2-0.4l-0.8,0.5c-1.2,0.1-0.6-0.1-4.7,0
		c-7.3,0.9-6.5,1-7.3,1.1l-2.7-0.2c0,0.3-0.1,0.5-0.4,0.5c-3.1-0.4-4.7-0.9-4.7-1.5c0.4-2.9,1.1-4.5,2.2-4.5l0.5,0l-0.5,1l0.5,0
		c1-0.5,1.4-1,1.4-1.5l-0.1-1l-1,0.1l-0.1-0.9c-0.1-0.7,0-1.4,0.3-1.9l2.2-3.6l0.1,0.9l1.1-0.1l-0.1-0.9l-0.6-0.9
		c0.8-0.7,1.4-1.1,1.9-1.1l0-0.5l-1.4,0.1l-0.1-1.4c2.9-6,4.2-9.5,4.2-10.4l1,0.4c0.6,0,0.9-0.4,0.9-1.1l-1,0.1l0-0.4
		c-0.1-0.7,0.1-1.4,0.4-2c1.6-1.6,2.3-3.3,2.1-5c0.3,0,0.5,0.1,0.5,0.5c1.3-0.8,2.3-2.8,3.1-6.1c2.3-4.2,5.7-12.7,10-25.4
		c8.3-22.4,8-24.8,9.2-30.1l-1,0.1c0.1,0.7-0.1,1.3-0.4,1.9c-0.7-0.3-1.2-0.4-1.6-0.4l0-0.4c-0.2-1.9,0.6-4.2,2.5-7l0.5,0l0.8,3.3
		l1-0.1c0-0.2,0.2-1.5,0.8-3.9c0-0.5-0.4-0.8-1.2-0.8l-0.9,0.6c-0.1-0.7,0-2.5,0.1-5.3l-0.5,0c-0.8-0.8-1.2-1.5-1.3-2.1l-5.4,0.5
		c0-0.4-0.2-0.9-0.6-1.7c0-0.5,1.2-1,3.7-1.5l1.1,0.4l1-0.6c0,0.3,0.2,0.5,0.6,0.5l1-0.6c0,0.3,0.2,0.5,0.6,0.5l0.5,0l-0.1-1.1
		c-0.8,0.1-2.8,0.1-5.9,0l-1,0.7l0-0.6c-25.4,2.1-39.8,3.3-43.2,3.6c-0.5,0-2.2,0-5.4-0.1c0,0.4-0.3,0.6-1.1,0.7l-1.1-0.5l-3.7,0.9
		c-0.9,0.1-2.3,0-4.4-0.2c-0.6,0.5-1.2,0.7-2.1,0.8c-0.5,0,5.4-0.3,10.9-0.7c-0.6,0.5-1.4,0.7-2.6,0.8c-0.8,0.1-1.6,0-2.2-0.4
		c-0.8,0.4-3.5,1-8,1.9l-1.1-0.4l-17.7,2.7c-0.7-0.3-1.5-0.5-2.4-0.4c-0.9,0.1-2.5,0.4-4.7,1l-8.5,3.6l0.6,1.1c0.4,0,1-0.3,1.7-0.7
		l3,0.3l-0.4,2.8c-2.8,1.2-4.4,3.1-4.9,5.4c-4.2,1.9-6.3,3.2-6.3,4l0,0.5l0.6,0l1.1-0.6l1.3,1.6l0.2,2.2c0.1,0.7-7,15.5-21.1,44.6
		c-12.3,28-18.7,43.3-19.3,46.1c-4.2,1.2-6.6,2.9-7.3,5.1c0.1,0.7,1.3,1.2,3.7,1.4l0.1,1.1l-1.1,1.8l0.2,2.2c0.1,1.1,3.2,2,9.2,2.6
		c0-0.4,0.2-0.6,0.6-0.6c0.1,1.4-0.3,4-1.1,7.9l0.6,0c2.5-3.4,3.7-5.7,3.6-7l0.5,0c0.6,0,1.2,0.6,2,2.1c-0.8,0.3-3.4,6.3-7.9,18.1
		l0.6,1.1l0.6,0c5.6-14.1,9-21.9,10.5-23.3c7.3-0.6,19.9-1.9,37.9-3.9l1.1-0.7c0,0.4,0.3,0.6,0.7,0.5l1.2-0.1l1.1-0.7
		c0,0.4,0.3,0.6,0.7,0.5l13.6-1.2c3.6-0.3,5.3-1.4,5.1-3.3c0-0.5,2.1-1.1,6.4-1.7c0.4,0,1,0.1,1.9,0.3c0-0.3,2.1-0.7,6.4-1.1
		c0.1-2.3,0.8-3.5,2.1-3.6l-0.1-1.1c-1.2,0.1-2.6,0.4-4.2,0.9c-2.8-0.2-4.7-0.4-5.4-0.6c-0.8,0.4-1.3,0.6-1.7,0.7l-9.5,0.3l-1.1,0.6
		c0-0.3-0.3-0.5-0.7-0.5l-0.5,0l-1.2,0.6c0-0.3-1-0.6-3-0.9l-1.2,0.7l-2.3,0.2l0-0.6c12.2-1.3,18.2-3,18-5c0.8-0.1,1.2,0.3,1.3,1.1
		l3.6-0.9l-0.1-1.1l-29.2,0.8c0,0.4-0.2,0.6-0.6,0.6l-3.6-0.3c-0.9,0.1-1.7,0.3-2.3,0.8l-1.3-0.5c-3.7,0.3-6.4,0.8-8.2,1.3
		c-2.5-0.2-5.3-0.2-8.3,0.1l-6.5,0.6l-3-0.3c-0.2-1.9,3.6-11.4,11.3-28.4c2.2-5.7,4.3-9.3,6.2-10.7c0.4,0,1,0.1,1.9,0.5l4.7-1.6
		l2.4,0.4c4-0.3,8.7-1.5,14-3.4c1.3-0.1,2.3,0,3,0.3l3.6-0.8l10.6-0.9c4.5-0.4,9.4-1.4,14.7-3l-0.1-1.1c-2,0.2-3-0.2-3.1-0.9
		c-0.1-1.5-1.6-2.1-4.3-1.9l-0.1-1.1l2.9-0.8l7.6-0.6l-0.1-1.1c-0.3,0-1.9,0-4.7-0.1l-0.1-1.2l2.9-0.3c0.8-0.1,1.1-0.5,1.1-1.2
		c-4,0.1-6-0.1-6-0.6c-27.7,1.4-41.6,1.6-41.6,0.8c-0.4,0-1,0.3-1.7,0.8l-0.7-1.1c7.3-15.6,11.6-23.4,12.9-23.6
		c0,0.6-0.3,1.6-0.9,2.9l0,0.5l1.2-0.1c2.9-7,5.4-10.6,7.4-10.7c8.7-0.8-1.2-1.3,17.4-4.2c0.8,0.3,1.3,0.5,1.7,0.5
		c7.3-1.5,17.5-3,30.5-4.6l-0.1-1.1l-7,0.6l-0.1-1.1c0.8-0.1,1.5-0.3,2.1-0.8l0,0.6c0.4,0,0.9-0.3,1.6-0.8c1.2-0.1,2.1,0,2.8,0.3
		c2.4-0.6,4.4-1,5.8-1.2l4.3-0.4c1.1-0.7,1.6-1.3,1.5-1.9l0-0.5c-1.1,0.1-2.3,0-3.8-0.2c0-0.6,0.3-1,1-1.2l8.1-0.8l3.7-0.9
		c0,0.4,0.2,0.6,0.5,0.6c0.4,0,0.9-0.3,1.6-0.8c0.2,0,0.4,0,0.6,0.1c-0.5,1-1.1,2.5-1.6,4.4l-1.1,0.1c-0.1-0.7-0.3-1.4-0.6-1.9
		l-0.5,0c-9.8,27.4-14.2,40.1-23.3,61.1c-1.7,5.4-3.1,8.4-4.3,9c0,0.6,0.4,0.9,1.1,0.8c0.2,2.6-0.4,5.3-1.9,7.8
		c-4.2,12.1-7,18.7-8.4,19.9l0.9,5.7c0,0.6-0.3,0.9-0.9,1l-1,0.1c-0.2-1.6-0.7-2.3-1.7-2.2l-0.5,0c-1.3,2-2.3,4.3-2.9,7l1-0.1
		c1.3-0.9,1.9-1.9,1.8-3.1l2-0.2l1.1,0.4c-0.9,1.4-1.3,2.6-1.2,3.4l0.5,0.9l-1.3,3l0,0.5c1.1-0.1,2.4,0.3,3.7,1.1
		c0.9-0.1,1.9-0.5,3-1.2c1.1-0.1,5.4-0.2,12.7-0.2l3.7-1.2c4.5,0,5.2,0.1,9-0.3l1.6-0.2l0.8-0.6l0,0.5c4-0.3,4.3-0.1,7.5,0.3l0,0.5
		l-2.2,0.2l0.1,0.9c0.7-0.1,1.3-0.3,1.8-0.7c0.6,0,0.9,0.3,0.9,0.9c-0.9,0.1-1.9,0.3-3.1,0.7l-1-0.3c-1.5,0.4-1.2,0.5-2.3,0.6
		l-1.6-0.3c0,0.3-0.1,0.5-0.4,0.5c0,0.6,0.4,0.9,0.9,0.9l1.6-0.2l8.3-0.7l3.1-0.7c0,0.3,0.2,0.4,0.4,0.4l1.5-0.6l2.8-0.2
		c2.2-0.2,2.2-0.3,6.9-1.1c0-0.3,0.1-0.4,0.3-0.5l0,0.4c7.8-1.3,8.2-1.4,9.5-1.8l0.1,0.2c1.9-0.5,0.8-0.3,1.4-0.7
		c0,0.3,0.2,0.5,0.3,0.5l1.4-0.1l-0.1-1l-2.8,0l0-0.1c-0.1,0-0.2,0-0.3,0.1H474v0.1c-1.9,0.4-1.9,0.1-3.1,0.2l-6.9,0.4l0-0.5
		l3.9-0.5l1.4-0.1l0.8-0.6l0,0.5c5.4-0.5,7.4,0.9,32.6-4.5c1.4-0.1,1.2-1.2,2.1-3.6c-0.5,0-0.9-0.1-1.3-0.3
		c-2.1,0.8-3.2,0.4-7.2,1.1c-0.3,0-0.6-0.3-0.7-0.9l0-0.4l3.9,0.1c0.7-0.1,2.1-0.2,4.2-1.4C503.5,115.9,502.7,116.1,503.2,116.1
		L503.2,116.1z M317,119l-1.8,0.2c-0.1-0.7,0.9-3.4,2.8-8.1l1.2-0.1C319.3,112.1,318.5,114.8,317,119L317,119z M319.1,110.4l0-0.5
		c0-0.6,0.3-1,1.2-1.2l0,0.5C320.4,109.9,320,110.3,319.1,110.4L319.1,110.4z M342.8,128.7l0,0.5l-3,0.3l0-0.5L342.8,128.7
		L342.8,128.7z M339.2,128.4c0,0.6-0.9,1.3-2.8,2l-3.6-0.3l-1.2,0.1l-0.1-1.1L339.2,128.4L339.2,128.4z M363.1,18.4l-1.8,0.2l0-0.6
		c0-0.6,0.3-1,1.1-1.2l0.6,0l1.2,0.5C364.3,17.9,363.9,18.3,363.1,18.4L363.1,18.4z M390.2,13.1l0.6,0l0.1,1.1l-1.6,0.2
		C389.1,13.7,389.4,13.3,390.2,13.1L390.2,13.1z M383.4,15.5l-2.7-0.3l0-0.5c3.5-0.3,4.7-0.7,6.8-1.3c0,0.4,0.4,0.6,1.1,0.5l0.1,1.1
		l-1.1,0.1c-0.8,0.1-1.6,0-2.2-0.4C384.8,15.1,384.1,15.4,383.4,15.5L383.4,15.5z M386.7,25.3l0-0.5l4.3-0.4l0,0.5L386.7,25.3
		L386.7,25.3z M391.4,21.5l0-0.6l2.1-0.2l0,0.6L391.4,21.5L391.4,21.5z M391.9,14.1l-0.6,0l0.5-1.2l4.8-0.5l0,0.6
		C395.4,13.2,393.8,13.5,391.9,14.1L391.9,14.1z M394.3,24.5l-0.1-1.1l2.1-0.2c0.7-0.1,1.1,0.3,1.1,1L394.3,24.5L394.3,24.5z
		 M407.1,7l-2.7,0.8l-0.5,0c-1.3,0.1-3,0.1-4.9-0.1C402.5,7.5,405.9,7.2,407.1,7L407.1,7z M404.2,19.1l0,0.5l-3.7,0.3l0-0.5
		L404.2,19.1L404.2,19.1z M410.4,22c0-0.5-0.8-0.8-2.2-0.9l-3.7,1.1l-2.9,0.1c-0.6-0.5-1-0.8-1-1l3.3,0.2l7.5-1.2l3.8,0.2l0,0.6
		C413.3,21.3,411.7,21.6,410.4,22L410.4,22z M448.9,12.1c0.5,0,0.8,0,0.9,0c1.3-1.3,2.8-2.3,4.5-3c-1.4,6-3.5,10.4-6.4,13.3
		l-2.1-1.3C447.5,16.6,448.6,13.6,448.9,12.1L448.9,12.1z M442.4,23.3l0.5,0c-0.7,1.4-1.4,2.1-1.9,2.1l-0.1-1.4
		C441.2,23.9,441.7,23.7,442.4,23.3L442.4,23.3z M438.2,33.3c1-4.1,2-6.4,2.9-7l0,0.5c-0.5,3.8-1.4,5.8-2.5,5.9l0.2,2.4
		c-0.9,1.3-1.3,2.3-1.3,3l-0.5,0l-0.3-3.3C437.4,34.8,437.8,34.3,438.2,33.3L438.2,33.3z M436.6,38.7c0,0.6-0.3,1.9-1.1,3.9l-0.5,0
		l-0.1-1.4C435.5,39.6,436.1,38.8,436.6,38.7L436.6,38.7z M406,127.3l0-0.4l1-0.1l0.1,1.4C406.6,128.3,406.2,128,406,127.3
		L406,127.3z M449.6,128.4c0-0.3-0.2-0.5-0.5-0.5l-2.5,0.2l0-0.5h0.2l5.8-0.5l0,0.5C451,127.8,450,128,449.6,128.4L449.6,128.4z
		 M446.7,127.2c0.2,0.1,0.1,0.2,0,0.3C446.6,127.5,446.5,127.4,446.7,127.2L446.7,127.2z M447,120.4l-3.3,0.3l0-0.5l2.9-0.3l2.6-0.6
		c0,0.3,0.2,0.4,0.5,0.4c3.1-0.5,2.8-0.7,4.2-0.8c0.5,0,0.8,0.3,0.8,0.9L447,120.4L447,120.4z M458.4,119.4
		c-1.8-0.2-1.9-0.3-3.2-0.2l0-0.4l2.9-0.3l0,0.4C457.8,119,458.9,119,458.4,119.4L458.4,119.4z M458.6,118.9l0-0.4l1.6-0.2l0,0.4
		L458.6,118.9L458.6,118.9z M462.2,118.6l0-0.4c0.3,0,0.6-0.2,1.1-0.6c0.8-0.1,1.2,0.5,1.3,1.1L462.2,118.6L462.2,118.6z M466.7,118
		l0-0.5l1.9-0.2l0,0.5L466.7,118L466.7,118z M469.3,117.8c0-0.6,0.2-0.9,0.7-1l0.6,0.8c0-0.3,0.1-0.4,0.3-0.5l0.5,0.9L469.3,117.8
		L469.3,117.8z M440.8,130.1l-0.1-0.9l-0.3,0l0.1,0.9L440.8,130.1L440.8,130.1z M507.2,112.9c0.3-0.2,0.5-0.4-0.3-0.5
		c-0.3,0.4,0.4,0.5-0.4,0.5l0,0.3c0.1-0.1,0.3-0.2,0.4-0.3l-0.4,0.3v0l-0.8,1l1.6-0.6h0.2l-0.1-0.9L507.2,112.9L507.2,112.9z
		 M510,115.1l-0.3,0l0.1,0.9l2.2-0.2C512,115.3,510.5,115.1,510,115.1L510,115.1z M506.6,113.4L506.6,113.4L506.6,113.4
		C506.6,113.3,506.6,113.4,506.6,113.4L506.6,113.4z"/>
	<path d="M361.4,43.4l0,0.6l1.2-0.1c0-0.4,0.1-1,0.4-1.7l-0.1-1.1C362.4,41.1,361.9,41.9,361.4,43.4L361.4,43.4z M349.4,14.7
		l-0.1-1.1l-1.8,0.2l0.1,1.1L349.4,14.7L349.4,14.7z M314.8,79.6c-0.1-1-3.3-5-9.5-12c-0.1-1.3,2-3.2,6.5-5.7l12.6-11
		c2.8-3.6,4.5-9.4,5-17.5l-0.2-1.9c-0.5-5.6-4.5-10.1-12.2-13.5c-4.5-3.1-12.7-4.8-24.5-5.1c-9.8,0.8-22.5,4.3-38.2,10.5
		c-4.3,3.1-9.2,6.2-14.7,9.3l0.1,0.9c0.3,0,0.9-0.2,1.5-0.6c0.6-0.1,1,0.2,1.1,0.8l0.9-0.5l0.5,0l0,0.4c0,0.5-3.4,3.2-10.2,8l0.5,1
		l-0.5,0l-1.1-0.4c0,0.3-0.5,0.6-1.4,0.6l0,0.4l1.1,1.4c-0.3,0-0.9-0.1-1.6-0.4c-1.6,0.2-3.1,1-4.7,2.6l0.6-2.8
		c2.3-9.9,3.9-18.8,4.7-26.4l-0.1-0.5c-1.6-1-3.1-2.5-4.6-4.3c0-1.2,0-1.9,0-2l-0.1-0.4l-0.5,0.1c-5,7.5-14.6,20.3-28.9,38.3
		c-10.9,12.9-16.5,20-16.8,21.4c-4.4,4.6-6.5,7.3-6.3,8.3c-1.2,0.8-1.7,1.5-1.5,2.3c-0.3,0.1-0.6,0-0.6-0.4c-1.9,3.1-4.7,5-8.4,5.9
		l-3.9,0.9c-0.5,0.1-0.8,0.5-0.8,1.1l0.1,0.5l1.5-0.3l0.1,0.4l-3.3,1.3l-5.9,1.4L148,92c-0.5,0.5,2.5,0,1.3,0.2l-3.9,0.9
		c-2.3,0.5-3.6,0.3-3.9-0.6l-0.5,0.1c0.1,0.4,0.1,0.7,0,1l-0.2-0.9l-3.1,0.7c-0.2-1.4-4.4-6.7-12.6-15.7c-0.2-1.7,2.7-4.3,8.6-7.6
		l16.6-14.6c3.7-4.8,5.9-12.4,6.6-22.9l-0.2-2.5c-0.6-7.4-6-13.4-16.1-18c-6-4-16.7-6.2-32.2-6.5c-12.9,1.1-29.6,5.7-50.3,13.7
		c-5.7,4.1-12.1,8.2-19.4,12.3l0.1,1.3c0.5,0,1.1-0.3,1.9-0.8c0.8-0.1,1.3,0.3,1.4,1.1l1.3-0.7l0.6,0l0,0.6c0,0.6-4.5,4.1-13.6,10.5
		l0.7,1.1l-0.6,0l-1.4-0.5c0,0.4-0.6,0.6-1.9,0.8l0.1,0.7l1.5,1.7c-0.5,0-1.2-0.1-2-0.4c-2.9,0.3-5.8,2.4-8.7,6.4l0.7,1.1
		c2.5-2.3,3.9-3.4,4.3-3.4l0.2,1.9c-0.4,0-1.1,0.3-1.9,0.8l1.6,2.3c3-3.2,6.3-6,9.9-8.3c1.8,0.5,2.7,1,2.8,1.6l1.4-0.1
		c9.8-7.2,19.4-12.4,29-15.7l0.1,1.3c-1.8,2.6-3,4-3.6,4.1c0.1,0.9,0.4,1.7,0.9,2.4c0.2,1.6-4.2,12.6-13,32.9
		c-20,47.1-36.8,82-50.4,104.5c0,0.5,0.3,1.1,0.8,1.8c3.4-0.8,5.5-1.6,6.4-2.4l0.7-0.1l0.1,1.3l1.2-0.1l1.3-0.7
		c0,0.4,0.5,0.6,1.3,0.5l0.1,1.3c0.1,1.2-0.6,3.1-2.1,5.7c-1.4,1.6-2.8,4.8-4.4,9.8l0,0.6l1.2-0.1c5.4-6.1,9.6-12.1,12.4-17.9
		c15.9-4.7,28-9.2,36.4-13.7c8.4-0.7,14.9-2.9,19.2-6.6l-0.1-0.7l-3.2,0.9l-0.7,0.1l-0.1-0.7c6.2-0.9,10.5-2.3,12.9-4.2
		c12.1-9.3,21.2-15.9,27.3-19.8c12.7-9.3,20.9-18.4,24.7-27.2c0.7-0.2,1.4-0.3,2.1-0.5c1.8-0.1,2.8-0.1,3-0.2
		c-0.1-0.3,0.1-0.5,0.4-0.6c2.8-0.3,1.5,0.2,3.3-0.2l4.8-1.1l0.8-0.2l-0.4,0.2c0.5,0.1,1.1,0,1.7-0.1l0.3,1.4L130,139.7l-4.8,6
		l-2.3,7.9l0.5-0.1l2.3-1l-0.8,3.1l0.2,0.9l0.6,0.8c-0.3,0.1-0.4,0.3-0.3,0.6l0.1,0.5l1-0.2c1.4-1.2,2-2.4,1.8-3.4
		c1.5,0.3,2.6,0.4,3.1,0.2l0.1,0.5c-0.9,0.2-1.4,1-1.5,2.3l0.1,0.5l0.5-0.1c7.9-8.6,27.1-38,42.6-57.9c-0.5-2.2,7.6-5.1,24.2-9
		l0.5-0.1c0.6,2.6-0.7,8.9-3.9,18.9c-2,6.1-3,9.4-2.9,9.9c-2.6,8.1-3.9,12.4-3.7,13.1l-5.9,19.3c-3.8,9.9-6.7,20.3-8.8,31.3
		c0.3-0.1,0.9,0,1.6,0.2l0.8-0.7c0.1,0.3,0.3,0.5,0.6,0.4l-0.3-1.4l2.6-0.1c0.8-0.2,1.4-1.1,1.9-2.9c-0.1-2.6,0.4-4,1.6-4.3
		c1.6-6.2,2.6-9.3,2.9-9.4c1.5-6.2,2.6-9.7,3.3-10.6c2.2-8,3.9-12.1,4.9-12.4l0.2,1l-1.6,4.2c-2.8,12.6-5.7,22.5-8.6,29.8l0.8,3.6
		l0.5-0.1c7-15.1,17.2-45.1,30.4-89.8c0.4-3.9,2.3-7,5.6-9.2l-0.8-0.8l-0.1-0.4c1.5-0.3,2.6-0.9,3.2-1.8c-0.1-0.3-1.4-0.8-4-1.5
		l6.6-28.2c1.4-1.3,2.3-2,2.5-2l0.1,1.4c-0.3,0-0.9,0.2-1.5,0.6l1.2,1.8c2.3-2.5,4.7-4.6,7.4-6.4c1.4,0.4,2,0.8,2.1,1.3l1-0.1
		c7.5-5.5,14.8-9.4,22-11.8l0.1,0.9c-1.3,2-2.2,3-2.7,3.1c0.1,0.7,0.3,1.3,0.6,1.8c0.1,1.2-3.1,9.6-9.8,25
		c-15.2,35.7-27.9,62.2-38.3,79.3c0,0.3,0.3,0.8,0.7,1.4c2.5-0.6,4.2-1.2,4.8-1.9l0.5,0l0.1,0.9l1.1-0.1l0.9-0.5
		c0,0.3,0.4,0.4,1,0.3l0.1,1c0.1,0.9-0.5,2.3-1.6,4.3c-1.1,1.2-2.2,3.6-3.4,7.4l0,0.5l1-0.1c4.1-4.6,7.3-9.2,9.4-13.6
		c12.1-3.6,21.3-7,27.6-10.4c6.5-0.6,11.3-2.2,14.7-5l0-0.5l-2.5,0.7l-0.5,0l0-0.5c4.7-0.7,8-1.7,9.8-3.1c9.2-7,16.1-12.1,20.8-15
		C308.8,99.6,315.6,89.4,314.8,79.6L314.8,79.6z M312.3,80.2l0.3,3.8c-0.5,0.9-0.9,1.4-1.4,1.5l-0.6-6.5
		C311.7,79.4,312.2,79.8,312.3,80.2L312.3,80.2z M25.9,49.5l-0.6,0l-0.1-1.2l2.6-0.2l0,0.6C27.4,48.7,26.8,49,25.9,49.5L25.9,49.5z
		 M13.2,176.9c-1.5-0.7-2.9-0.9-4-0.8L9,174.2c-0.1-0.7,0.3-1.2,1.2-1.4c0.8-0.1,1.3,0.5,1.4,1.7c2.2-2.7,3.4-4,3.6-4.1l1.4,0.6
		C16.2,174.9,15.1,176.8,13.2,176.9L13.2,176.9z M149.4,34.5c-0.6,0.1-1.9-1.9-3.8-5.9l-0.1-1.2c1.2-0.1,2.5,1.9,3.8,5.9L149.4,34.5
		L149.4,34.5z M147.6,20.4l-0.5,1.2l-18.5-7.7C140.9,14.3,147.2,16.5,147.6,20.4L147.6,20.4z M69.5,87.4l-2.6,0.2l-0.1-1.2l2.6-0.2
		L69.5,87.4L69.5,87.4z M67.3,47.2l0.6,0l0.2,1.9c-0.6,0-1.4,0.9-2.4,2.7l-0.1-1.3C66.8,49,67.4,47.9,67.3,47.2L67.3,47.2z
		 M61.9,60.1l0.2,2.5l-0.6,0l-0.2-2.5L61.9,60.1L61.9,60.1z M59,64.7l1.2-0.1c-0.1,2-0.7,3.1-1.7,3.2l-0.6,0
		C58.7,66.5,59.1,65.4,59,64.7L59,64.7z M56.8,71.1l0.7-0.1l0,0.6l-1.2,2l-1.2,0.1l0-0.6C56.4,73,56.9,72.4,56.8,71.1L56.8,71.1z
		 M54.7,76.9L54.3,80l-0.6,0L53.4,77L54.7,76.9L54.7,76.9z M33.5,137.2c-0.8,4.2-1.7,6.4-2.7,6.5l0-0.6
		C30.6,141,31.5,139,33.5,137.2L33.5,137.2z M29.6,145.7l0,0.6c0.1,0.8-0.3,1.3-1.1,1.4l0-0.6C28.4,146.3,28.8,145.8,29.6,145.7
		L29.6,145.7z M28.5,163.2l2-0.2l0.1,0.7c-0.5,0-1.1,0.3-1.9,0.8l-1.2,0.1C27.3,163.9,27.7,163.4,28.5,163.2L28.5,163.2z
		 M84.4,145.9c-11,5.4-17.5,9.2-19.5,11.1c-11.9,4.2-17.9,6.7-17.8,7.8c-10.6,4.2-17.6,7.3-21,9.2c-0.8,0.1-1.9-0.2-3.4-0.9
		c-0.2-2.2,0.8-3.9,2.9-5.3c1.9-0.2,3.6,0.1,5.3,0.8c2-1,5.4-2.2,10.3-3.4l-0.1-1.3l-3.9,0.3c0.5-0.7,4.3-2.5,11.4-5.3l2-0.2l0,0.6
		c-3.4,0.3-5.2,1.3-5.6,3.1c0.1,0.8,0.5,1.1,1.4,1.1c2.5-1.6,3.8-2.5,3.7-2.8c4.8-0.9,18.1-7.9,39.8-20.8L90,141
		C90,141.6,88.2,143.2,84.4,145.9L84.4,145.9z M51.1,156.9c3.2-0.3,5.9-1.6,8.2-3.8c0.9-0.1,1.4,0.3,1.4,1.1
		c-1.6,0.2-4.5,1.4-8.9,3.9l-0.6,0L51.1,156.9L51.1,156.9z M104.9,115.5l-16.7,13.2c-12.4,8.1-19.1,12.2-20,12.3
		c-19.7,10.9-32,16.5-36.8,16.9l-0.7,0.1c0.6-2.2,9.4-20.2,26.4-54c7.5-0.6,19.3-4.1,35.4-10.5l3.9-0.3c8.1-0.7,14.2,0.9,18.2,4.7
		l0.2,2.5C111.8,109,108.5,114,104.9,115.5L104.9,115.5z M72.3,97.2L75,97l0,0.6l-2.7,0.2L72.3,97.2L72.3,97.2z M110,90.8l2-0.2
		c1.8,0.9,2.8,1.6,2.8,2.3l0,0.6C113.1,93.7,111.5,92.8,110,90.8L110,90.8z M115.3,60.4c-1.7,2.1-6.5,5.6-14.3,10.6
		c-2.6,0.2-12.1,3.9-28.7,11.2c-0.8-0.4-1.7-0.5-2.6-0.5l-0.1-1.2c-0.2-2.4,0.9-5.4,3.2-9c1.3-6.8,2.7-10.7,4.2-11.6l13.8-31
		c-0.2-1.9,2.8-3.4,8.8-4.4l2-0.2l0.2,1.8c5.9-0.9,9.6-1.4,11.1-1.6c11-0.9,16.7,1.3,17.1,6.6l1.2-0.1l-0.3-3.1l1.4-0.1
		c3.2,1.8,5,3.9,5.2,6.5c0.2,1.7-0.8,3.9-2.8,6.5c-0.8,0.1-1.3-0.5-1.4-1.7l-1.4,0.1l-0.3,3.8c-5.6,8.3-9.6,12.6-12.1,12.8
		C117.3,58.8,115.9,60.4,115.3,60.4L115.3,60.4z M123.8,82.2c-1.1-0.8-2-1.1-2.7-1.1l-0.2-1.9l1.2-0.1l2.8,1.6
		C125.1,81.6,124.7,82.1,123.8,82.2L123.8,82.2z M132.6,92.6c1.2,0.5,1.9,1,2.1,1.5l-0.6,0.2l0,0c-0.1,0-0.3,0-0.4,0.1l-0.9,0.7
		L132.6,92.6L132.6,92.6z M133.4,97.8l-0.1-0.5l1.6-0.4l0.1,0.5L133.4,97.8L133.4,97.8z M137.2,102.1c1.6-0.3,2.4-0.4,5.4-1.1
		l0.1,0.5l-5.7,1.3C137.1,102.6,137.2,102.3,137.2,102.1L137.2,102.1z M142.8,104.4c-2.4,0.2-1.9-0.1-5.7,0.8l-0.1-0.5l4.8-1.6
		l2.3-0.5l0.2,0.9C143.3,103.8,144,103.8,142.8,104.4L142.8,104.4z M147.9,103.2c-0.6,0.2-1-0.1-1.3-0.8l1.5-0.3
		c0.6-0.2,1.1,0.1,1.2,0.8L147.9,103.2L147.9,103.2z M161.8,88.3l-0.1-0.5l2.4-0.6l0.2,0.9L161.8,88.3L161.8,88.3z M176.6,179
		c0.2-0.7,0.2-1.2,0.1-1.5l0.5-0.1c0.6-0.2,1,0.1,1.2,0.7l0.1,0.5L176.6,179L176.6,179z M186.9,92.2l-1.1-0.2
		c-1.7,0.7-3.1,1.2-4.3,1.4l-1,0.2c-0.6,0.2-1-0.1-1.2-0.7l6.9-1.6l2.3-1.1l0.8,0.9C188.2,91.5,187.4,91.8,186.9,92.2L186.9,92.2z
		 M192.2,90.5l-0.1-0.5c0.3-0.1,0.8-0.3,1.3-0.8l4.9-1.1l0.1,0.5C195.8,89.2,193.8,89.8,192.2,90.5L192.2,90.5z M193,80.6
		c-0.3,0.1-0.8,0.4-1.4,0.8c-0.1-0.3-0.8-0.3-2,0c-0.2-0.9,3.4-2.3,10.9-4l1.1-0.2l0.2,0.9C196.5,79.6,193.6,80.5,193,80.6L193,80.6
		z M206.2,66.3c-0.5,6-2.6,9.4-6.4,10.3l-0.1-0.5l-3.3,1.3l-1.5,0.3c-0.8,0.2-1.4,0.2-2,0l-0.3-1.3c-0.1-0.5,4.7-7.1,14.4-19.9
		l1.1,0.2C208.6,58.3,207.9,61.6,206.2,66.3L206.2,66.3z M229.6,46.2l-0.5,0l-0.1-0.9l2-0.2l0,0.5C230.8,45.7,230.3,45.9,229.6,46.2
		L229.6,46.2z M220,143.1c-1.1-0.5-2.2-0.8-3-0.7l-0.1-1.4c0-0.5,0.3-0.8,0.9-1c0.6-0.1,1,0.4,1.1,1.4c1.6-2.1,2.5-3.1,2.7-3.1
		l1,0.4C222.2,141.5,221.4,143,220,143.1L220,143.1z M323.4,34.9c-0.5,0-1.4-1.5-2.9-4.5l-0.1-0.9c0.9-0.1,1.9,1.4,2.9,4.4
		L323.4,34.9L323.4,34.9z M322,24.1l-0.5,1l-14-5.9C316.9,19.5,321.8,21.2,322,24.1L322,24.1z M262.7,75.1l-2,0.2l-0.1-0.9l2-0.2
		L262.7,75.1L262.7,75.1z M261.1,44.5l0.5,0l0.1,1.4c-0.5,0-1.1,0.7-1.8,2l-0.1-0.9C260.7,45.9,261.1,45,261.1,44.5L261.1,44.5z
		 M256.9,54.3l0.2,1.9l-0.5,0l-0.2-1.9L256.9,54.3L256.9,54.3z M254.7,57.8l1-0.1c-0.1,1.6-0.5,2.4-1.2,2.5l-0.5,0
		C254.5,59.2,254.8,58.4,254.7,57.8L254.7,57.8z M253.1,62.7l0.5,0l0,0.5l-0.9,1.5l-1,0.1l0-0.5C252.7,64.1,253.2,63.6,253.1,62.7
		L253.1,62.7z M251.5,67l-0.3,2.4l-0.5,0l-0.2-2.4L251.5,67L251.5,67z M235.4,112.9c-0.6,3.2-1.3,4.8-2,4.9l0-0.4
		C233.2,115.8,233.9,114.3,235.4,112.9L235.4,112.9z M232.4,119.3l0,0.4c0.1,0.7-0.2,1.1-0.9,1.1l0-0.5
		C231.5,119.8,231.8,119.5,232.4,119.3L232.4,119.3z M231.6,132.6l1.5-0.1l0,0.5c-0.3,0-0.9,0.2-1.5,0.6l-1,0.1
		C230.6,133.1,230.9,132.8,231.6,132.6L231.6,132.6z M274,119.5c-8.3,4.1-13.3,6.9-14.8,8.4c-9.1,3.2-13.6,5.1-13.5,5.9
		c-8.1,3.2-13.3,5.5-15.8,7c-0.6,0-1.5-0.2-2.6-0.7c-0.2-1.6,0.6-2.9,2.2-3.9c1.4-0.1,2.8,0.1,4,0.6c1.5-0.8,4.1-1.6,7.8-2.5
		l-0.1-0.9l-3.1,0.3c0.4-0.5,3.3-1.9,8.7-4.1l1.5-0.1l0,0.4c-2.6,0.2-4,1-4.3,2.3c0,0.6,0.4,0.9,1.1,0.8c1.9-1.2,2.8-2,2.8-2.2
		c3.6-0.6,13.7-5.9,30.2-15.8l0.1,0.9C278.3,116.2,276.9,117.4,274,119.5L274,119.5z M248.7,127.8c2.5-0.2,4.5-1.2,6.3-2.8
		c0.6,0,1,0.2,1.1,0.8c-1.1,0.1-3.4,1.1-6.7,2.9l-0.5,0L248.7,127.8L248.7,127.8z M289.6,96.4L277,106.5c-9.4,6.2-14.5,9.3-15.3,9.3
		c-15,8.2-24.3,12.5-27.9,12.8l-0.5,0c0.5-1.7,7.1-15.4,20.1-41c5.6-0.5,14.6-3.2,26.8-8l3.1-0.3c6.2-0.5,10.8,0.7,13.8,3.6l0.2,1.9
		C294.8,91.4,292.3,95.2,289.6,96.4L289.6,96.4z M264.9,82.5l2-0.2l0,0.5l-2,0.2L264.9,82.5L264.9,82.5z M293.5,77.6l1.5-0.1
		c1.4,0.7,2.1,1.3,2.2,1.8l0,0.4C295.9,79.8,294.6,79.1,293.5,77.6L293.5,77.6z M297.5,54.6c-1.3,1.6-4.9,4.3-10.8,8.1
		c-2,0.2-9.2,3-21.8,8.4c-0.6-0.2-1.3-0.3-2-0.3l-0.1-0.9c-0.2-1.8,0.6-4.1,2.4-6.8c1-5.2,2.1-8.1,3.2-8.8L279,30.6
		c-0.1-1.4,2.1-2.5,6.7-3.4l1.5-0.1l0.1,1.4c4.5-0.7,7.3-1.1,8.4-1.2c8.3-0.7,12.7,0.9,13,5l1-0.1l-0.2-2.3l1-0.1
		c2.4,1.3,3.7,2.9,3.9,4.8c0.1,1.4-0.6,3-2,5c-0.6,0.1-1-0.4-1.1-1.4l-1,0.1l-0.3,2.8c-4.2,6.4-7.3,9.7-9.2,9.8
		C299,53.4,298,54.5,297.5,54.6L297.5,54.6z M301.9,70.3l-0.1-1.4l1-0.1l2.1,1.3c0,0.6-0.3,0.9-0.9,1
		C303.1,70.5,302.4,70.3,301.9,70.3L301.9,70.3z M125.9,162.1l-1,0.2l-0.8,0.7c0.2,0.6,0.5,0.8,1.2,0.7c0.6-0.2,0.9-0.5,0.8-1.1
		L125.9,162.1L125.9,162.1z M122.1,154.7l0.1,0.5c0.6-0.2,0.9-0.5,0.8-1.1l-0.1-0.5C122.3,153.7,122,154.1,122.1,154.7L122.1,154.7z
		 M148.9,104.4l0.7-0.5c-0.2,0-0.3,0-0.4-0.1C149,103.9,148.9,104.1,148.9,104.4L148.9,104.4z M148.8,91.4l1.1-0.3l-0.2-1l-1.1,0.3
		L148.8,91.4L148.8,91.4z M416,129.6l-2.6-0.3l-0.5,1l0,0.5l15.3-1.3l-0.1-0.9L416,129.6L416,129.6z M430,128.4l0.1,0.9h0.2
		l-0.1-0.9H430L430,128.4z M494.2,120l0.1,0.9l1.7,0.3l-0.1-0.9L494.2,120L494.2,120z M491.9,120.2c-11.5,2.6-12.9,2.1-15.4,2.3
		l0.1,0.9l1.1-0.1l0.6,0l-0.2-0.1l1.2-0.5c11.4-1.2,12.7-0.8,12.6-2.1L491.9,120.2L491.9,120.2z M422.9,103.5l-1-0.3
		c-0.8,2.2-1.2,3.6-1.2,3.9l0,0.4C421.5,107.4,422.2,106.1,422.9,103.5L422.9,103.5z M409,96l0-0.5l-0.5,0l-0.9,0.6l0.5,0.9
		C408.8,97,409.1,96.7,409,96L409,96z M439.1,127.1l-0.1-0.9l-0.3,0l0.1,0.9L439.1,127.1L439.1,127.1z M501.5,113l0.7-0.1
		c0.4,0,0.6-0.4,0.6-1l-0.4-0.9c-2.6,0.2-3.8,0.3-5.9,1.5l0-0.5l-3.1,0.3c-0.1-0.9-0.3-1.4-0.8-1.4l-1.6,0.2
		c-1.9,0.2-2.8,0.1-3.7,0.8c0-0.3-0.2-0.5-0.3-0.5l-1.8,0.2l-1.1,0.6c0-0.3-0.2-0.5-0.3-0.5l-0.6,0.6l0-0.5l-2.5-0.2l-0.6,0l0.1,0.9
		l1.3,0.3l1.2-0.1c0.4,0.3,0.9,0.3,1.4,0.3l1.1-0.5l0,0.4c-5.9,1.5-5.9,1.2-10,1.9c-0.5-0.3-0.8-0.5-1-0.4l-0.1,0.1
		c-0.5,0-0.7-0.3-0.8-0.8l2.1-0.3c0.2,0,0.3,0.2,1.4,0.4c1.7-0.8,1.8-1.2,2.7-1.2l-0.1-0.9c-5.8,1.1-3.5,0.4-10.8,1l-0.3,0l-0.1-0.9
		c9.4-1.1,6.2-0.5,9.5-1.4c0,0.3,0.2,0.5,0.3,0.5c0.4-0.4,0.8-0.6,1.3-0.6l0.6,0c3.3-0.3,4.4,0.4,10.9-1.4l0,0.4l1.1-0.5l1-0.1
		c-0.1-0.9,1.4-1.1,1.9-1.1l-0.1-1c-11.4,2.3-14.4,1.7-17.6,2.6l0-0.4c-3,0.5-3.1,0.3-3.9,0.3c-0.2,0-0.6,0.2-0.9,0.6
		c0-0.3-0.2-0.5-0.4-0.5c-0.1,0-0.2,0-0.2,0l-9.7,1.6c0-0.3-0.2-0.4-0.4-0.4c-5,1.1-3.7,1.2-10.4,1.9c-0.3,0-0.7,0.2-1.2,0.5
		c0-0.3-0.2-0.4-0.5-0.4l-4.1,0.3l-2.8,0.7c0-0.3-0.2-0.4-0.5-0.4c-1.6,0.4-2.9,0.7-4,0.8h-0.1c-0.7,0.1,0.3-0.2-0.2-0.4l-0.8,0.5
		c-1.2,0.1-0.6-0.1-4.7,0c-7.3,0.9-6.5,1-7.3,1.1l-2.7-0.2c0,0.3-0.1,0.5-0.4,0.5c-3.1-0.4-4.7-0.9-4.7-1.5c0.4-2.9,1.1-4.5,2.2-4.5
		l0.5,0l-0.5,1l0.5,0c1-0.5,1.4-1,1.4-1.5l-0.1-1l-1,0.1l-0.1-0.9c-0.1-0.7,0-1.4,0.3-1.9l2.2-3.6l0.1,0.9l1.1-0.1l-0.1-0.9
		l-0.6-0.9c0.8-0.7,1.4-1.1,1.9-1.1l0-0.5l-1.4,0.1l-0.1-1.4c2.9-6,4.2-9.5,4.2-10.4l1,0.4c0.6,0,0.9-0.4,0.9-1.1l-1,0.1l0-0.4
		c-0.1-0.7,0.1-1.4,0.4-2c1.5-1.6,2.3-3.3,2.1-5c0.3,0,0.5,0.1,0.5,0.5c1.3-0.8,2.3-2.8,3.1-6.1c2.3-4.2,5.7-12.7,10-25.4
		c8.3-22.4,8-24.8,9.2-30.1l-1,0.1c0.1,0.7-0.1,1.3-0.4,1.9c-0.7-0.3-1.2-0.4-1.6-0.4l0-0.4c-0.2-1.9,0.6-4.2,2.5-7l0.5,0l0.8,3.3
		l1-0.1c0-0.2,0.2-1.5,0.8-3.9c0-0.5-0.4-0.8-1.2-0.8l-0.9,0.6c-0.1-0.7,0-2.5,0.1-5.3l-0.5,0c-0.8-0.8-1.2-1.5-1.3-2.1l-5.4,0.5
		c0-0.4-0.2-0.9-0.6-1.7c0-0.5,1.2-1,3.7-1.5l1.1,0.4l1-0.6c0,0.3,0.2,0.5,0.6,0.5l1-0.6c0,0.3,0.2,0.5,0.6,0.5l0.5,0L454.5,0
		c-0.8,0.1-2.8,0.1-5.9,0l-1,0.7l0-0.6c-25.4,2.1-39.8,3.3-43.2,3.6c-0.5,0-2.2,0-5.4-0.1c0,0.4-0.3,0.6-1.1,0.7l-1.1-0.5L393,4.8
		c-0.9,0.1-2.3,0-4.4-0.2c-0.6,0.5-1.2,0.7-2.1,0.8c-0.5,0,5.4-0.3,10.9-0.7c-0.6,0.5-1.4,0.7-2.6,0.8c-0.8,0.1-1.6,0-2.2-0.4
		c-0.8,0.4-3.5,1-8,1.9l-1.1-0.4l-17.7,2.7c-0.7-0.3-1.5-0.5-2.4-0.4c-0.9,0.1-2.5,0.4-4.7,1l-8.5,3.6l0.6,1.1c0.4,0,1-0.3,1.7-0.7
		l3,0.3l-0.4,2.8c-2.8,1.2-4.4,3.1-4.9,5.4c-4.2,1.9-6.3,3.2-6.3,4l0,0.5l0.6,0l1.1-0.6l1.3,1.6l0.2,2.2c0.1,0.7-7,15.5-21.1,44.6
		c-12.3,28-18.7,43.3-19.3,46.1c-4.2,1.2-6.6,2.9-7.3,5.1c0.1,0.7,1.3,1.2,3.7,1.4l0.1,1.1l-1.1,1.8l0.2,2.2c0.1,1.1,3.2,2,9.2,2.6
		c0-0.4,0.2-0.6,0.6-0.6c0.1,1.4-0.3,4-1.1,7.9l0.6,0c2.5-3.4,3.7-5.7,3.6-7l0.5,0c0.6,0,1.2,0.6,2,2.1c-0.8,0.3-3.4,6.3-7.9,18.1
		l0.6,1.1l0.6,0c5.6-14.1,9-21.9,10.5-23.3c7.3-0.6,19.9-1.9,37.9-3.9l1.1-0.7c0,0.4,0.3,0.6,0.7,0.5l1.2-0.1l1.1-0.7
		c0,0.4,0.3,0.6,0.7,0.5l13.6-1.2c3.6-0.3,5.3-1.4,5.1-3.3c0-0.5,2.1-1.1,6.4-1.7c0.4,0,1,0.1,1.9,0.3c0-0.3,2.1-0.7,6.4-1.1
		c0.1-2.3,0.8-3.5,2.1-3.6l-0.1-1.1c-1.2,0.1-2.6,0.4-4.2,0.9c-2.8-0.2-4.7-0.4-5.4-0.6c-0.8,0.4-1.3,0.6-1.7,0.7l-9.5,0.3l-1.1,0.6
		c0-0.3-0.3-0.5-0.7-0.5l-0.5,0l-1.2,0.6c0-0.3-1-0.6-3-0.9l-1.2,0.7l-2.3,0.2l0-0.6c12.2-1.3,18.2-3,18-5c0.8-0.1,1.2,0.3,1.3,1.1
		l3.6-0.9l-0.1-1.1l-29.2,0.8c0,0.4-0.2,0.6-0.6,0.6l-3.6-0.3c-0.9,0.1-1.7,0.3-2.3,0.8l-1.3-0.5c-3.7,0.3-6.4,0.8-8.2,1.3
		c-2.5-0.2-5.3-0.2-8.3,0.1l-6.5,0.6l-3-0.3c-0.2-1.9,3.6-11.4,11.3-28.4c2.2-5.7,4.3-9.3,6.2-10.7c0.4,0,1,0.1,1.9,0.5l4.7-1.6
		l2.4,0.4c4-0.3,8.7-1.5,14-3.4c1.3-0.1,2.3,0,3,0.3l3.6-0.8l10.6-0.9c4.5-0.4,9.4-1.4,14.7-3l-0.1-1.1c-2,0.2-3-0.2-3.1-0.9
		c-0.1-1.5-1.6-2.1-4.3-1.9l-0.1-1.1l2.9-0.8l7.6-0.6l-0.1-1.1c-0.3,0-1.9,0-4.7-0.1l-0.1-1.2l2.9-0.3c0.8-0.1,1.1-0.5,1.1-1.2
		c-4,0.1-6-0.1-6-0.6c-27.7,1.4-41.6,1.6-41.6,0.8c-0.4,0-1,0.3-1.7,0.8l-0.7-1.1c7.3-15.6,11.6-23.4,12.9-23.6
		c0,0.6-0.3,1.6-0.9,2.9l0,0.5l1.2-0.1c2.9-7,5.4-10.5,7.4-10.7c8.7-0.8-1.2-1.3,17.4-4.2c0.8,0.3,1.3,0.5,1.7,0.5
		c7.3-1.5,17.5-3,30.5-4.6l-0.1-1.1l-7,0.6l-0.1-1.1c0.8-0.1,1.5-0.3,2.1-0.8l0,0.6c0.4,0,0.9-0.3,1.6-0.8c1.2-0.1,2.1,0,2.8,0.3
		c2.4-0.6,4.4-1,5.8-1.2l4.3-0.4c1.1-0.7,1.6-1.3,1.5-1.9l0-0.5c-1.1,0.1-2.3,0-3.8-0.2c0-0.6,0.3-1,1-1.2l8.1-0.8l3.7-0.9
		c0,0.4,0.2,0.6,0.5,0.6c0.4,0,0.9-0.3,1.6-0.8c0.2,0,0.4,0,0.6,0.1c-0.5,1-1.1,2.5-1.6,4.4l-1.1,0.1c-0.1-0.7-0.3-1.4-0.6-1.9
		l-0.5,0c-9.8,27.4-14.2,40.1-23.3,61.1c-1.7,5.4-3.1,8.4-4.3,9c0,0.6,0.4,0.9,1.1,0.8c0.2,2.6-0.4,5.3-1.9,7.8
		c-4.2,12.1-7,18.7-8.4,19.9l0.9,5.7c0,0.6-0.3,0.9-0.9,1l-1,0.1c-0.2-1.6-0.7-2.3-1.7-2.2l-0.5,0c-1.3,2-2.3,4.3-2.9,7l1-0.1
		c1.3-0.9,1.9-1.9,1.8-3.1l2-0.2l1.1,0.4c-0.9,1.4-1.3,2.6-1.2,3.4l0.5,0.9l-1.3,3l0,0.5c1.1-0.1,2.4,0.3,3.7,1.1
		c0.9-0.1,1.9-0.5,3-1.2c1.1-0.1,5.4-0.2,12.7-0.2l3.7-1.2c4.5,0,5.2,0.1,9-0.3l1.6-0.2l0.8-0.6l0,0.5c4-0.3,4.3-0.1,7.5,0.3l0,0.5
		l-2.2,0.2l0.1,0.9c0.7-0.1,1.3-0.3,1.8-0.7c0.6,0,0.9,0.3,0.9,0.9c-0.9,0.1-1.9,0.3-3.1,0.7l-1-0.3c-1.5,0.4-1.2,0.5-2.3,0.6
		l-1.6-0.3c0,0.3-0.1,0.5-0.4,0.5c0,0.6,0.4,0.9,0.9,0.9l1.6-0.2l8.3-0.7l3.1-0.7c0,0.3,0.2,0.4,0.4,0.4l1.5-0.6l2.8-0.2
		c2.2-0.2,2.2-0.3,6.9-1.1c0-0.3,0.1-0.4,0.3-0.5l0,0.4c7.8-1.3,8.2-1.4,9.5-1.8l0.1,0.2c1.9-0.5,0.8-0.3,1.4-0.7
		c0,0.3,0.2,0.5,0.3,0.5l1.4-0.1l-0.1-1l-2.8,0l0-0.1c-0.1,0-0.2,0-0.3,0.1h-0.4v0.1c-1.9,0.4-1.9,0.1-3.1,0.2l-6.9,0.4l0-0.5
		l3.9-0.5l1.4-0.1l0.8-0.6l0,0.5c5.4-0.5,7.4,0.9,32.6-4.5c1.4-0.1,1.2-1.2,2.1-3.6c-0.5,0-0.9-0.1-1.3-0.3
		c-2.1,0.8-3.2,0.4-7.2,1.1c-0.3,0-0.6-0.3-0.7-0.9l0-0.4l3.9,0.1c0.7-0.1,2.1-0.2,4.2-1.4C501.8,112.9,501,113.1,501.5,113
		L501.5,113z M315.3,116l-1.8,0.2c-0.1-0.7,0.9-3.4,2.8-8.1l1.2-0.1C317.6,109.1,316.8,111.7,315.3,116L315.3,116z M317.4,107.4
		l0-0.5c0-0.6,0.3-1,1.2-1.2l0,0.5C318.7,106.9,318.3,107.3,317.4,107.4L317.4,107.4z M341.1,125.7l0,0.5l-2.9,0.3l0-0.5
		L341.1,125.7L341.1,125.7z M337.5,125.4c0,0.6-0.9,1.3-2.8,2l-3.6-0.3l-1.2,0.1l-0.1-1.1L337.5,125.4L337.5,125.4z M361.4,15.4
		l-1.8,0.2l0-0.6c0-0.6,0.3-1,1.1-1.2l0.6,0l1.2,0.5C362.6,14.9,362.2,15.3,361.4,15.4L361.4,15.4z M388.5,10.1l0.6,0l0.1,1.1
		l-1.6,0.2C387.4,10.7,387.7,10.2,388.5,10.1L388.5,10.1z M381.7,12.4l-2.7-0.3l0-0.5c3.5-0.3,4.7-0.7,6.8-1.3
		c0,0.4,0.4,0.6,1.1,0.5l0.1,1.1l-1.1,0.1c-0.8,0.1-1.6,0-2.2-0.4C383.1,12.1,382.4,12.4,381.7,12.4L381.7,12.4z M385,22.2l0-0.5
		l4.3-0.4l0,0.5L385,22.2L385,22.2z M389.7,18.5l0-0.6l2.1-0.2l0,0.6L389.7,18.5L389.7,18.5z M390.2,11l-0.6,0l0.5-1.2l4.8-0.5
		l0,0.6C393.7,10.2,392.1,10.5,390.2,11L390.2,11z M392.6,21.5l-0.1-1.1l2.1-0.2c0.7-0.1,1.1,0.3,1.1,1L392.6,21.5L392.6,21.5z
		 M405.4,4l-2.7,0.8l-0.5,0c-1.3,0.1-2.9,0.1-4.9-0.1C400.8,4.5,404.2,4.2,405.4,4L405.4,4z M402.5,16.1l0,0.5l-3.7,0.3l0-0.5
		L402.5,16.1L402.5,16.1z M408.7,19c0-0.5-0.8-0.8-2.2-0.9l-3.7,1.1l-2.9,0.1c-0.6-0.5-1-0.8-1-1l3.3,0.2l7.5-1.2l3.8,0.2l0,0.6
		C411.6,18.2,410,18.6,408.7,19L408.7,19z M447.2,9.1c0.5,0,0.8,0,0.9,0c1.3-1.3,2.8-2.3,4.5-3c-1.4,6-3.5,10.4-6.4,13.3l-2.1-1.3
		C445.8,13.6,446.9,10.6,447.2,9.1L447.2,9.1z M440.7,20.2l0.5,0c-0.7,1.4-1.4,2.1-1.9,2.1l-0.1-1.4C439.5,20.9,440,20.6,440.7,20.2
		L440.7,20.2z M436.5,30.3c1-4.1,2-6.4,2.9-7l0,0.5c-0.5,3.8-1.4,5.8-2.5,5.9l0.2,2.4c-0.9,1.3-1.3,2.3-1.3,3l-0.5,0l-0.3-3.3
		C435.7,31.8,436.1,31.2,436.5,30.3L436.5,30.3z M434.9,35.7c0,0.6-0.3,1.9-1.1,3.9l-0.5,0l-0.1-1.4
		C433.8,36.6,434.4,35.7,434.9,35.7L434.9,35.7z M404.3,124.3l0-0.4l1-0.1l0.1,1.4C404.9,125.2,404.5,124.9,404.3,124.3L404.3,124.3
		z M447.9,125.4c0-0.3-0.2-0.5-0.5-0.5l-2.5,0.2l0-0.5h0.2l5.8-0.5l0,0.5C449.3,124.7,448.3,125,447.9,125.4L447.9,125.4z
		 M445,124.2c0.2,0.1,0.1,0.2,0,0.3C444.9,124.4,444.8,124.3,445,124.2L445,124.2z M445.3,117.4l-3.3,0.3l0-0.5l2.9-0.3l2.6-0.6
		c0,0.3,0.2,0.4,0.5,0.4c3.1-0.5,2.8-0.7,4.2-0.8c0.5,0,0.8,0.3,0.8,0.9L445.3,117.4L445.3,117.4z M456.7,116.4
		c-1.8-0.2-1.9-0.3-3.2-0.2l0-0.4l2.9-0.3l0,0.4C456.1,115.9,457.2,116,456.7,116.4L456.7,116.4z M456.9,115.9l0-0.4l1.6-0.2l0,0.4
		L456.9,115.9L456.9,115.9z M460.5,115.6l0-0.4c0.3,0,0.6-0.2,1.1-0.6c0.8-0.1,1.2,0.5,1.3,1.1L460.5,115.6L460.5,115.6z M465,115
		l0-0.5l1.9-0.2l0,0.5L465,115L465,115z M467.6,114.8c0-0.6,0.2-0.9,0.7-1l0.6,0.8c0-0.3,0.1-0.4,0.3-0.5l0.5,0.9L467.6,114.8
		L467.6,114.8z M504.9,110.4L504.9,110.4L504.9,110.4C504.9,110.3,504.9,110.3,504.9,110.4L504.9,110.4z M505.5,109.9
		c0.3-0.2,0.5-0.4-0.3-0.5c-0.3,0.4,0.4,0.5-0.4,0.5l0,0.3c0.1-0.1,0.3-0.2,0.4-0.3l-0.4,0.3v0l-0.8,1l1.6-0.6h0.2l-0.1-0.9
		L505.5,109.9L505.5,109.9z M508.3,112l-0.3,0l0.1,0.9l2.2-0.2C510.3,112.2,508.8,112,508.3,112L508.3,112z"/>
</g>
</svg>
