<?xml version="1.0" encoding="utf-8"?>
<!-- Generator: Adobe Illustrator 25.2.3, SVG Export Plug-In . SVG Version: 6.00 Build 0)  -->
<svg version="1.1" id="Layer_1" xmlns="http://www.w3.org/2000/svg" xmlns:xlink="http://www.w3.org/1999/xlink" x="0px" y="0px"
	 viewBox="0 0 256 296" style="enable-background:new 0 0 256 296;" xml:space="preserve">
<g>
	<path d="M128,0.4L0,74.3v147.8L128,296l128-73.9V74.3L128,0.4z M246.4,216.6L128,284.9L9.6,216.6V79.8L128,11.5l118.4,68.4V216.6z"
		/>
	<path d="M182.3,98.2c0,5.4-1.1,10.7-3.2,16c-2.1,5.3-5,10.2-8.5,14.7c-3.6,4.5-7.7,8.5-12.4,11.9c-4.7,3.4-9.5,5.8-14.5,7.3
		l-2.2-3.7c3-1.5,5.7-3.4,8.2-5.7s4.6-5,6.4-7.9s3.1-6,4.1-9.3c1-3.3,1.4-6.6,1.4-10c0-3.9-0.6-7.6-1.7-11c-1.1-3.5-2.8-6.5-5-9.1
		c-2.2-2.6-4.9-4.6-8.1-6.1c-3.2-1.5-6.9-2.2-11.1-2.2c-5.1,0-9.8,1-14,3c-4.2,2-8.1,4.6-11.4,8s-6.3,7.2-8.9,11.6
		s-4.6,8.9-6.3,13.7c-1.7,4.8-2.9,9.6-3.8,14.5c-0.8,4.9-1.3,9.5-1.3,13.8c0,4.4,0.5,8.9,1.4,13.6c0.9,4.7,2.3,9.3,4,13.8
		c1.8,4.5,4,8.8,6.6,12.8c2.6,4,5.6,7.6,9.1,10.6c3.4,3,7.2,5.5,11.4,7.3c4.2,1.8,8.8,2.7,13.7,2.7c3.4,0,6.7-0.5,9.9-1.4
		c3.2-0.9,6.3-2.2,9.3-3.7s5.8-3.4,8.4-5.5c2.7-2.1,5.1-4.4,7.4-6.9l3.5,3.4c-3.1,4.1-6.8,8-11.1,11.8c-4.3,3.8-8.9,7.1-13.8,10.1
		s-10.1,5.3-15.5,7c-5.4,1.7-10.8,2.6-16.1,2.6c-5.2,0-10-0.9-14.6-2.7s-8.7-4.2-12.6-7.3c-3.8-3.1-7.2-6.7-10.2-10.8
		c-3-4.1-5.5-8.5-7.6-13.2c-2.1-4.7-3.7-9.5-4.8-14.4c-1.1-4.9-1.6-9.8-1.6-14.5c0-6.9,1.1-13.9,3.4-21.1c2.3-7.2,5.5-14.3,9.5-21.1
		c4-6.8,8.8-13.3,14.3-19.3c5.5-6.1,11.4-11.4,17.7-15.9c6.3-4.5,12.9-8.1,19.8-10.8c6.9-2.7,13.8-4,20.6-4c4.2,0,8.2,0.6,11.9,1.9
		c3.7,1.2,6.9,3,9.5,5.4c2.7,2.3,4.8,5.2,6.4,8.7S182.3,93.7,182.3,98.2L182.3,98.2z"/>
</g>
</svg>
