<?xml version="1.0" encoding="utf-8"?>
<!-- Generator: Adobe Illustrator 25.3.0, SVG Export Plug-In . SVG Version: 6.00 Build 0)  -->
<svg version="1.1" id="Layer_1" xmlns="http://www.w3.org/2000/svg" xmlns:xlink="http://www.w3.org/1999/xlink" x="0px" y="0px"
	 viewBox="0 0 248 64" style="enable-background:new 0 0 248 64;" xml:space="preserve">
<style type="text/css">
	.st0{fill-rule:evenodd;clip-rule:evenodd;}
</style>
<g>
	<g transform="translate(-78.000000, -57.000000)">
		<g transform="translate(-123.000000, 57.000000)">
			<g>
				<path class="st0" d="M313.1,29.3c-1.2,0-2.2,0.4-3,1.2c-0.8,0.8-1.2,1.8-1.2,3s0.4,2.3,1.2,3.1c0.8,0.8,1.8,1.2,3,1.2
					s2.2-0.4,3-1.2c0.8-0.8,1.2-1.8,1.2-3s-0.4-2.3-1.2-3C315.3,29.7,314.3,29.3,313.1,29.3z"/>
				<path class="st0" d="M277,29.3c-1.2,0-2.2,0.4-3,1.2c-0.8,0.8-1.2,1.8-1.2,3s0.4,2.3,1.2,3.1c0.8,0.8,1.8,1.2,3,1.2
					s2.2-0.4,3-1.2c0.8-0.8,1.2-1.8,1.2-3s-0.4-2.3-1.2-3C279.2,29.7,278.2,29.3,277,29.3z"/>
				<path class="st0" d="M386.3,22.9h-2.9v3.3h2.9c0.6,0,1.1-0.1,1.5-0.4c0.4-0.3,0.5-0.7,0.5-1.2c0-0.5-0.2-0.9-0.5-1.2
					C387.4,23,386.9,22.9,386.3,22.9z"/>
				<path class="st0" d="M387.2,20.4c0.3-0.3,0.5-0.6,0.5-1.1c0-0.5-0.2-0.8-0.5-1.1c-0.3-0.3-0.8-0.4-1.4-0.4h-2.7v3h2.7
					C386.4,20.8,386.9,20.7,387.2,20.4z"/>
				<polygon class="st0" points="423.8,23.2 427.8,23.2 425.8,18.4 				"/>
				<path class="st0" d="M445,0H205c-2.2,0-4,1.8-4,4v56c0,2.2,1.8,4,4,4h240c2.2,0,4-1.8,4-4V4C449,1.8,447.2,0,445,0z M218,16h9.7
					v2.7h-5l8.7,8.5l-2,1.9l-8.7-8.5v4.8H218V16z M252,49h-9.7v-2.7h5l-8.7-8.5l2-1.9l8.7,8.5v-4.8h2.8V49z M252,25.4h-2.8v-4.8
					l-8.7,8.5l0,0l-17.7,17.2h5V49H218v-9.5h2.8v4.9L238.6,27l0,0l8.6-8.3h-5V16h9.7V25.4z M285,41h-3.9v-1.8
					c-1.1,1.5-2.8,2.2-4.9,2.2c-2,0-3.7-0.8-5.2-2.3c-1.4-1.5-2.1-3.4-2.1-5.6s0.7-4.1,2.1-5.6c1.4-1.5,3.2-2.3,5.2-2.3
					c2.1,0,3.7,0.7,4.9,2.2V20h3.9V41z M302.6,41h-3.9v-8.7c0-1-0.3-1.8-0.8-2.3c-0.5-0.5-1.3-0.8-2.2-0.8c-1,0-1.8,0.3-2.4,0.9
					c-0.6,0.6-0.9,1.5-0.9,2.8V41h-3.9V26h3.9v1.7c0.9-1.4,2.4-2.1,4.5-2.1c1.6,0,3,0.5,4.1,1.6c1.1,1.1,1.6,2.6,1.6,4.6V41z
					 M321.1,41h-3.9v-1.8c-1.1,1.5-2.8,2.2-4.9,2.2c-2,0-3.7-0.8-5.2-2.3s-2.1-3.4-2.1-5.6s0.7-4.1,2.1-5.6s3.2-2.3,5.2-2.3
					c2.1,0,3.7,0.7,4.9,2.2V20h3.9V41z M341.5,41l-5.5-6.8V41h-3.9V20h3.9v12.6l5.2-6.6h4.6l-6,7.4L346,41H341.5z M351.8,41h-3.9V26
					h3.9V41z M351.5,23.5c-0.5,0.5-1,0.7-1.7,0.7c-0.6,0-1.2-0.2-1.7-0.7c-0.5-0.5-0.7-1-0.7-1.7s0.2-1.2,0.7-1.7
					c0.5-0.5,1-0.7,1.7-0.7c0.7,0,1.2,0.2,1.7,0.7c0.5,0.5,0.7,1,0.7,1.7S352,23,351.5,23.5z M363.9,29.7h-3.4V36
					c0,0.5,0.1,0.9,0.4,1.1c0.3,0.2,0.6,0.4,1.1,0.4c0.5,0,1.1,0,1.9,0V41c-2.7,0.3-4.5,0-5.6-0.8s-1.6-2.2-1.6-4.3v-6.2H354V26h2.6
					v-3l3.9-1.2V26h3.4V29.7z M389.9,26.4c-0.4,0.5-0.9,0.9-1.5,1.2c-0.6,0.3-1.4,0.4-2.2,0.4H381V16h5c0.8,0,1.5,0.1,2.1,0.4
					c0.6,0.3,1,0.6,1.4,1.1c0.3,0.5,0.5,1,0.5,1.6c0,0.5-0.1,1-0.4,1.5c-0.3,0.4-0.7,0.8-1.2,1c0.7,0.2,1.2,0.6,1.6,1.1
					c0.4,0.5,0.6,1.1,0.6,1.8C390.4,25.2,390.2,25.8,389.9,26.4z M403.8,17.9h-6.2V21h5.9v1.9h-5.9v3.2h6.2V28h-8.5V16h8.5V17.9z
					 M418,17.9h-3.8V28h-2.3V17.9H408V16h10V17.9z M429.5,28l-1-2.6h-5.3l-1,2.6h-2.4l4.8-12h2.5l4.8,12H429.5z"/>
			</g>
		</g>
	</g>
</g>
</svg>
