<?xml version="1.0" encoding="utf-8"?>
<!-- Generator: Adobe Illustrator 25.3.0, SVG Export Plug-In . SVG Version: 6.00 Build 0)  -->
<svg version="1.1" id="Layer_1" xmlns="http://www.w3.org/2000/svg" xmlns:xlink="http://www.w3.org/1999/xlink" x="0px" y="0px"
	 viewBox="0 0 256 185" style="enable-background:new 0 0 256 185;" xml:space="preserve">
<g>
	<path d="M250.7,70.5c-5.8-4-19-5.5-29.3-3.5c-1.2-10-6.7-18.7-16.3-26.5l-5.5-4l-3.8,5.7c-4.8,7.5-7.2,18-6.5,28
		c0.2,3.5,1.4,9.7,5,15.2c-3.4,2-10.3,4.5-19.5,4.5H1.2l-0.5,2c-1.7,10-1.7,41.2,18,65.2c14.9,18.2,37,27.5,66.1,27.5
		c62.9,0,109.5-30.2,131.4-85c8.6,0.2,27.1,0,36.5-18.7c0.2-0.5,0.7-1.5,2.4-5.2l1-2L250.7,70.5L250.7,70.5z M140,0h-26.4v25H140V0
		L140,0z M140,30h-26.4v25H140V30L140,30z M108.8,30H82.3v25h26.4V30L108.8,30z M77.5,30H51.1v25h26.4V30L77.5,30z M46.3,60H19.9v25
		h26.4V60L46.3,60z M77.5,60H51.1v25h26.4V60L77.5,60z M108.8,60H82.3v25h26.4V60L108.8,60z M140,60h-26.4v25H140V60L140,60z
		 M171.2,60h-26.4v25h26.4V60L171.2,60z"/>
</g>
</svg>
