<?xml version="1.0" encoding="utf-8"?>
<!-- Generator: Adobe Illustrator 25.2.3, SVG Export Plug-In . SVG Version: 6.00 Build 0)  -->
<svg version="1.1" id="Layer_1" xmlns="http://www.w3.org/2000/svg" xmlns:xlink="http://www.w3.org/1999/xlink" x="0px" y="0px"
	 viewBox="0 0 256 162" style="enable-background:new 0 0 256 162;" xml:space="preserve">
<g>
	<path d="M256,138.7C122.2,156.2,26.6,177.2,25.2,91c0,0,2.9-33.4,43.9-35.5c0,0,1.4-29.7,32.7-33c16.8-1.8,36,15.5,38,33.8
		c0,0,41.4-7.7,43.2,32.7c0.6,14.1-2.5,38-42.5,37c0,0-23.1-3.1-26.3-38.9c-6.5,69.2,93.5,65.2,95,2.3c0.6-27.2-16.8-55.1-56-49.9
		c-21.5-54-78.7-50.9-100-0.8c-30.4,0-53.7,23.4-53.4,54C1.2,191.1,138.2,161.4,256,138.7z"/>
</g>
</svg>
