<?xml version="1.0" encoding="utf-8"?>
<!-- Generator: Adobe Illustrator 25.3.0, SVG Export Plug-In . SVG Version: 6.00 Build 0)  -->
<svg version="1.1" id="Layer_1" xmlns="http://www.w3.org/2000/svg" xmlns:xlink="http://www.w3.org/1999/xlink" x="0px" y="0px"
	 viewBox="0 0 256 256" style="enable-background:new 0 0 256 256;" xml:space="preserve">
<g>
	<path d="M128,0C57.3,0,0,57.3,0,128c0,70.7,57.3,128,128,128c70.7,0,128-57.3,128-128S198.7,0,128,0z M27.5,129.3l99.2,99.2
		C72.2,227.8,28.2,183.8,27.5,129.3z M150.5,226L30,105.5c10.2-44.7,50.2-78,98-78c33.4,0,63,16.3,81.3,41.4l-13.9,12.3
		c-14.8-21.3-39.5-35.2-67.3-35.2c-35.5,0-65.7,22.6-77.2,54.1l105.1,105.1c25.5-9.2,45.2-30.8,51.7-57.5h-43.6V128h45.9v0h18.5v0
		C228.5,175.8,195.2,215.8,150.5,226z"/>
</g>
</svg>
