<?xml version="1.0" encoding="utf-8"?>
<!-- Generator: Adobe Illustrator 25.3.0, SVG Export Plug-In . SVG Version: 6.00 Build 0)  -->
<svg version="1.1" id="Layer_1" xmlns="http://www.w3.org/2000/svg" xmlns:xlink="http://www.w3.org/1999/xlink" x="0px" y="0px"
	 viewBox="0 0 416 172" style="enable-background:new 0 0 416 172;" xml:space="preserve">
<path d="M252.8,92.7L221,123.8V4.3c0-2.8-1.3-4.1-3-4.1s-3.6,1.3-3.6,4.1l0.4,119.5l-31-31.1c-3.7-3.7-8.1,0.9-4.5,4.6l39.3,39.3
	c28-28,11.6-11.4,39.5-39.3C261.8,93.6,256.4,89,252.8,92.7L252.8,92.7z"/>
<path d="M68.4,171.4c-36.9-0.4-68.8-31-67.7-71.8c1.1-33,23.7-63.8,57.1-69.2c21.3-3.2,47,3,61.7,19.2c3.5,4.1-1.7,8.6-5.2,5
	c-13.1-14.7-36.2-20-55.4-17c-30,4.7-50.2,32.8-51.3,62.3c-0.9,36,27.8,63.8,61,64.5c18.8,0.2,38.6-8,49.4-23.7v-36H72.1
	c-4.1,0-4.1-6.5,0-6.5h48.5c3,0,3.9,1.7,3.9,4.1v38.4c0,1.7-0.2,3.7-1.5,5C110.3,162.3,89.1,171.6,68.4,171.4z M286.4,98.3
	c1.3,41.6-31.1,73.5-68.5,73.5c-37.2,0-69.6-31.9-68.5-73.5c1-31.7,20.4-60,51.2-67.4c0.7,2.1,1.1,4.4,1.6,6.7
	c-28.5,6-44.7,31.7-45.5,60.9c-1.1,37.1,27.8,66.6,61.2,66.6c33.6,0,62.5-29.5,61.4-66.6c-0.8-27.9-18.7-52.8-45.7-60.1
	c0.3-2.5,0.9-4.5,1.5-6.8C265,39.9,285.6,67.4,286.4,98.3L286.4,98.3z M411.4,31.9c5.2,0,5.2,6.5,0,6.5h-55.8l0.2,127.6
	c0,2.8-2.2,4.1-3.9,4.1s-3.7-1.3-3.7-4.1V38.4h-55.6c-5.2,0-5.2-6.5,0-6.5L411.4,31.9z"/>
</svg>
