<?xml version="1.0" encoding="utf-8"?>
<!-- Generator: Adobe Illustrator 25.3.0, SVG Export Plug-In . SVG Version: 6.00 Build 0)  -->
<svg version="1.1" id="Layer_1" xmlns="http://www.w3.org/2000/svg" xmlns:xlink="http://www.w3.org/1999/xlink" x="0px" y="0px"
	 viewBox="0 0 256 288" style="enable-background:new 0 0 256 288;" xml:space="preserve">
<style type="text/css">
	.st0{fill-rule:evenodd;clip-rule:evenodd;}
</style>
<g>
	<path class="st0" d="M152.6,33l59.1,34.1c1.7-1.8,3.6-3.3,5.8-4.6c12.3-7.1,27.9-2.9,35,9.4c7.1,12.3,2.9,27.9-9.4,35
		c-2.2,1.3-4.5,2.2-6.8,2.7V178c2.3,0.6,4.6,1.5,6.8,2.7c12.3,7.1,16.5,22.8,9.4,35c-7.1,12.3-22.8,16.5-35,9.4
		c-2.4-1.4-4.6-3.2-6.3-5.1l-58.8,33.9c0.8,2.5,1.3,5.3,1.3,8.1c0,14.1-11.5,25.6-25.6,25.6s-25.6-11.5-25.6-25.6c0-2.5,0.4-5,1-7.3
		l-59.1-34.1c-1.6,1.7-3.6,3.3-5.7,4.5c-12.3,7.1-28,2.9-35-9.4s-2.9-27.9,9.4-35c2.2-1.2,4.4-2.1,6.8-2.7v-68.3
		c-2.3-0.6-4.6-1.5-6.8-2.7c-12.3-7.1-16.5-22.8-9.4-35s22.8-16.5,35-9.4c2.2,1.3,4.1,2.8,5.8,4.6l59.2-34.2c-0.7-2.3-1-4.8-1-7.3
		C102.4,11.5,113.8,0,128,0s25.6,11.5,25.6,25.6C153.6,28.2,153.3,30.6,152.6,33z M146.4,43.5l59.3,34.2c-1.8,6.4-1.2,13.6,2.4,19.8
		c3.6,6.3,9.5,10.4,16,12.1V178c-0.3,0.1-0.7,0.2-1,0.3L145.7,44.2C146,43.9,146.2,43.7,146.4,43.5z M110.3,44.2L32.9,178.3
		c-0.3-0.1-0.7-0.2-1-0.3v-68.4c6.5-1.6,12.4-5.8,16-12.1c3.6-6.3,4.3-13.4,2.4-19.9l59.3-34.2C109.8,43.7,110,43.9,110.3,44.2z
		 M135.2,50.3l77.4,134.1c-1.7,1.7-3.3,3.6-4.5,5.8c-1.2,2.2-2.1,4.4-2.7,6.8H50.6c-0.6-2.3-1.5-4.6-2.7-6.8
		c-1.3-2.2-2.8-4.1-4.5-5.7l77.4-134.1c2.3,0.7,4.7,1,7.1,1C130.5,51.3,132.9,50.9,135.2,50.3z M147,244.7l58.9-34
		c-0.2-0.6-0.3-1.1-0.5-1.7H50.6c-0.1,0.3-0.2,0.7-0.3,1l59.2,34.2c4.7-4.8,11.2-7.8,18.5-7.8C135.5,236.4,142.3,239.6,147,244.7z"
		/>
</g>
</svg>
