<?xml version="1.0" encoding="utf-8"?>
<!-- Generator: Adobe Illustrator 25.2.3, SVG Export Plug-In . SVG Version: 6.00 Build 0)  -->
<svg version="1.1" id="Layer_1" xmlns="http://www.w3.org/2000/svg" xmlns:xlink="http://www.w3.org/1999/xlink" x="0px" y="0px"
	 viewBox="0 0 512 106" style="enable-background:new 0 0 512 106;" xml:space="preserve">
<style type="text/css">
	.st0{fill:#15191F;}
</style>
<g>
	<path d="M0,97.8v-4.2c0,0,0,0,0,0L0,97.8C0,97.9,0,97.9,0,97.8z"/>
	<path d="M152.6,92.6v5.2c0.1,0.3,0,0.7-0.3,1c-0.1-0.1-0.2-0.1-0.3-0.2c-1.9-1.1-4.2-1.8-6.5-2.2c-6.3-1.2-12.8-2-19.3-2.4
		c-3.7-0.3-7.4,0.6-10.1,2.5c-5,3.5-11.6,5.4-18.4,5.4H55c-6.8,0-13.4-1.9-18.4-5.4c-2.7-1.9-6.4-2.8-10.1-2.5
		c-6.5,0.5-12.9,1.3-19.3,2.4c-2.5,0.4-4.8,1.2-6.9,2.4c3.2,3.8,36,6.7,76,6.7c42.1,0,76.3-3.3,76.3-7.3L152.6,92.6
		C152.6,92.6,152.6,92.6,152.6,92.6z"/>
	<path d="M0.2,98.7c-0.1-0.1-0.1-0.2-0.1-0.2C0.1,98.5,0.2,98.6,0.2,98.7z"/>
</g>
<path class="st0" d="M197,81.9h9.5V57.4h27.2v24.5h9.6V26.3h-9.6v23.3h-27.2V26.3H197V81.9z M271.5,82.5c9.2,0,15.4-3.8,17.4-7.3
	l1.9,6.7h5V56.6c0-12-2.6-19.8-20.7-19.8c-15.6,0-19.4,7.1-19.4,16.3l9-0.1c0-5.6,2.3-8.8,10.5-8.8c8.9,0,11.3,3.7,11.5,10.2
	l-14,1.4c-12.7,1.2-18.5,4.9-18.5,13.1C254.3,78.2,261.9,82.5,271.5,82.5z M273.8,75.2c-6.5,0-10-2.3-10-6.4c0-3.5,2.6-5.1,10.3-6
	l12.6-1.4v1.4C286.8,70.5,282,75.2,273.8,75.2z M306.4,81.9h9.3V57.2c0-7.2,1.8-12.3,11.1-12.3c0.8,0,1.6,0.2,2.5,0.2v-8.2h-1.5
	c-8.7,0-12.9,3.8-14.3,6.8l-2.2-6.2h-4.9V81.9z M352.3,82.5c10.5,0,15.4-3.9,17-6.9l2.1,6.3h5V20.5h-9.1v22.4
	c-1.9-2.9-6.3-6.1-15.1-6.1c-14.7,0-18.9,10.7-18.9,22.8S337.6,82.5,352.3,82.5z M354.9,74.8c-10.1,0-12.1-6.2-12.1-15.2
	s2.1-15,12.2-15c10.6,0,12.4,6.4,12.4,15C367.4,68.8,365.2,74.8,354.9,74.8z M388,81.9h9.1l0.2-24.9c0-8.4,2-12.3,11.4-12.3
	c9.5,0,10.8,4,10.8,12.3v24.9h9.2v-24c0-12.8-2.9-21-17.4-21c-8.5,0-12.4,2.9-14.1,6.2V20.5H388L388,81.9z M455,82.5
	c9.2,0,15.4-3.8,17.4-7.3l1.9,6.7h5V56.6c0-12-2.6-19.8-20.7-19.8c-15.6,0-19.4,7.1-19.4,16.3l9-0.1c0-5.6,2.3-8.8,10.5-8.8
	c8.9,0,11.3,3.7,11.5,10.2l-14,1.4c-12.7,1.2-18.5,4.9-18.5,13.1C437.8,78.2,445.5,82.5,455,82.5z M457.3,75.2c-6.5,0-10-2.3-10-6.4
	c0-3.5,2.6-5.1,10.3-6l12.6-1.4v1.4C470.3,70.5,465.5,75.2,457.3,75.2z M512,82.2v-7.4c-9.6,0.4-11.4-1.5-11.4-5.6V44.9H512v-7.5
	h-11.6V26.3h-9.2v11.1l-6.3,1.9v5.6h6.3v24.2C491.2,79.6,497.3,83.1,512,82.2z"/>
<path d="M48.2,8.8C23.1,17.9,6.4,42.1,6.4,69.2v9.1c8.9-2.2,18.1-3.5,27.3-4c-0.1-1.7-0.1-3.5-0.1-5.3C33.6,45.1,39.2,23.7,48.2,8.8
	z"/>
<path d="M146.2,70.7c0-14.8-5.6-29.1-16-40.5c4.5,13,6.7,26.6,6.6,40.3c0,2.5,0,3.8-0.2,6.2c3.2,0.4,7.1,1.5,9.4,2.9L146.2,70.7z"/>
<g transform="translate(48.524155, 0.000000)">
	<path d="M43.3,20l10.3,0.7L51.5,7.1c-0.3-2-1.8-3.7-3.8-4.3c-12.9-3.8-26.6-3.8-39.6,0c-2,0.6-3.4,2.3-3.7,4.3L2.3,20.8l11.5-3.3"
		/>
</g>
<path d="M76.3,78.2c-1.3,0-2.7,0-4,0h-0.1h-0.1c-40.2,0.2-72,4-72,8.6v6.7c-0.1,0.4,0,0.8,0.3,1.1c2-1.4,4.4-2.3,6.9-2.8
	c6.3-1.4,12.8-2.3,19.3-2.9c3.7-0.4,7.4,0.7,10.1,2.9c5,4.1,11.6,6.4,18.4,6.4h42.7c6.8,0,13.4-2.3,18.4-6.4l0,0
	c2.7-2.2,6.4-3.3,10.1-2.9c6.5,0.5,12.9,1.5,19.3,2.9c2.4,0.4,4.6,1.3,6.5,2.5c0.1,0.1,0.2,0.2,0.3,0.3c0.2-0.3,0.3-0.7,0.3-1.1
	v-6.7C152.6,82.1,118.5,78.2,76.3,78.2z"/>
<path d="M126.4,28.1C108.5,7.3,78.8-0.6,52.2,8.5c-9.6,14.9-15.6,36.4-15.6,60.2c0,1.8,0,3.5,0.1,5.3c10-0.7,21.5-1.2,33.9-1.3
	c0,0,2.8,0,4.1,0c19.4-0.2,38.7,0.9,57.9,3.4c0.1-2.4,0.2-4.9,0.2-7.4C132.9,54.9,130.7,41.2,126.4,28.1z M72.8,71.5L59.3,50.7
	l13.6,9.1V71.5z M73.3,54.9l-14-8.5l14-23.9V54.9z M76.6,71.5V59.7l13.5-9.1L76.6,71.5z M90.1,46.4L90.1,46.4l-13.5,8.5V37.8V22.5
	L90.1,46.4L90.1,46.4L90.1,46.4z"/>
</svg>
