<?xml version="1.0" encoding="utf-8"?>
<!-- Generator: Adobe Illustrator 25.3.0, SVG Export Plug-In . SVG Version: 6.00 Build 0)  -->
<svg version="1.1" id="Layer_1" xmlns="http://www.w3.org/2000/svg" xmlns:xlink="http://www.w3.org/1999/xlink" x="0px" y="0px"
	 viewBox="0 0 512 144" style="enable-background:new 0 0 512 144;" xml:space="preserve">
<g>
	<path d="M116.5,0c7,0,12.8,5.6,12.9,12.6l0,0.3v117.9c0,7-5.6,12.8-12.6,12.9l-0.3,0H12.9c-7,0-12.8-5.6-12.9-12.6l0-0.3V12.9
		C0,5.9,5.6,0.2,12.6,0l0.3,0H116.5z M116.5,7.2H12.9c-3.1,0-5.6,2.5-5.7,5.5l0,0.2v117.9c0,3.1,2.5,5.6,5.5,5.7l0.2,0h103.6
		c3.1,0,5.6-2.5,5.7-5.5l0-0.2V12.9C122.2,9.8,119.7,7.2,116.5,7.2z M32.4,93.5l16.2,14.4l-16.2,14.4V93.5z M46.7,21.6v40.8
		c7.2-2.3,17.2-4.9,27-4.9c8.9,0,14.2,3.5,17.1,6.4c6.1,6.2,6.3,14,6.3,15.1l0,0l0,43.1H82.7V79.3c-0.1-3.4-1.7-7.4-9-7.4
		c-14.5,0-30.7,7.2-31.2,7.4l0,0l-10.2,4.6V21.6H46.7z M97.1,21.6c-1,8.2-4.3,16-10.8,23.4l0,0H71.9c5.7-7.4,9.2-15.2,10.8-23.4l0,0
		H97.1z"/>
	<path d="M365.1,45.8c12.8,0,26,8.1,26,27.5c0,19.4-13.3,27.5-26,27.5c-12.8,0-26.1-8.1-26.1-27.5C339,53.9,352.3,45.8,365.1,45.8z
		 M481.8,46.8v31.7c0,7.3,2.4,10.6,8.1,10.6c5.7,0,8-3.3,8-10.6V46.8H512v31.8c0,14.1-6.7,22.1-22.2,22.1c-15.5,0-22.3-8-22.3-22.1
		V46.8H481.8z M176.1,46.8v19.7h17.6V46.8h14.3v53h-14.3V78.4h-17.6v21.4h-14.3v-53H176.1z M264.4,46.8v11.9h-23.5v8.6h16.8v11.2
		h-16.8v9.8h24.7v11.5h-39.1v-53H264.4z M302.1,46.8c13.6,0,21.9,4.5,21.9,17.3c0,8.3-3.5,13.1-10.5,15.5l11.3,20.3h-15.2
		l-10.3-18.4h-3.9v18.4h-14v-53H302.1z M421.4,46.8V66L436,46.8h16.6l-17.8,20.9l19.4,32.1H438l-12.5-21.2l-4.1,4.7v16.5h-14.3v-53
		H421.4z M365.1,57.7c-7.5,0-11.8,5.9-11.8,15.7c0,9.8,4.2,16.1,11.8,16.1c7.5,0,11.7-6.3,11.7-16.1
		C376.8,63.6,372.6,57.7,365.1,57.7z M301.6,58.4h-6.2v12.1h6.2c5.9,0,8.5-1.6,8.5-6.1C310.1,60,307.5,58.4,301.6,58.4z"/>
</g>
</svg>
