<?xml version="1.0" encoding="utf-8"?>
<!-- Generator: Adobe Illustrator 25.2.3, SVG Export Plug-In . SVG Version: 6.00 Build 0)  -->
<svg version="1.1" id="Layer_1" xmlns="http://www.w3.org/2000/svg" xmlns:xlink="http://www.w3.org/1999/xlink" x="0px" y="0px"
	 viewBox="0 0 259.6 117.4" style="enable-background:new 0 0 259.6 117.4;" xml:space="preserve">
<g>
	<path d="M50.1,3.1c0.5,0.7,1.2,0.9,1.9,1.3c15.2,8.8,30.4,17.5,45.6,26.3c0.7,0.4,1,0.8,1,1.7c0,18.1,0,36.2,0,54.2
		c0,0.7-0.2,1.2-0.9,1.6c-15.8,9.1-31.5,18.1-47.2,27.2c-0.6,0.4-1.1,0.4-1.7,0c-15.7-9.1-31.5-18.2-47.2-27.2
		c-0.6-0.4-0.9-0.7-0.9-1.4c0-18.1,0-36.3,0-54.5c0-0.8,0.3-1.2,0.9-1.5c15.6-9,31.2-18,46.8-27c0.3-0.2,0.7-0.2,0.8-0.6
		C49.5,3.1,49.8,3.1,50.1,3.1z M95.3,59.4c0-6.5,0-12.9,0-19.4c0-1.5-1.4-2.4-2.8-1.6c-1.2,0.6-2.3,1.3-3.4,1.9
		c-5.1,2.9-10.2,5.9-15.3,8.8c-4.9,2.8-9.8,5.7-14.8,8.5c-0.8,0.5-1.2,1-1.2,2c0.1,3-1.3,5.2-3.7,6.8c-1,0.6-1.3,1.3-1.3,2.4
		c0,12.7,0,25.4,0,38.1c0,0.8,0.2,1.4,1,1.9c0.8,0.5,1.3,0,1.9-0.3c3.5-2,7-4.1,10.6-6.1c7.7-4.4,15.4-8.9,23.1-13.2
		c0.9-0.5,1.2-1.2,1.2-2.1c0-2.9,1.4-5.1,3.9-6.6c0.8-0.5,1-1,1-1.8C95.2,72.2,95.3,65.8,95.3,59.4z M46.6,87.8c0-6.4,0-12.8,0-19.3
		c0-0.9-0.2-1.5-1.1-2c-2.6-1.6-4.2-3.9-4-7.1c0-0.9-0.3-1.4-1.1-1.8c-4.6-2.6-9.2-5.3-13.8-7.9c-6.5-3.7-13-7.5-19.5-11.3
		c-1.3-0.7-3,0.3-3,1.8c0,12.9,0,25.8,0,38.7c0,0.6,0.2,1,0.7,1.3c2.7,1.5,4.2,3.8,4.2,7c0,0.8,0.2,1.3,1,1.8
		c5.7,3.2,11.4,6.5,17.1,9.8c5.6,3.2,11.2,6.5,16.8,9.7c0.5,0.3,1,0.7,1.7,0.3c0.7-0.5,1-1,1-1.9C46.5,100.6,46.6,94.2,46.6,87.8z
		 M9.4,31.3c-0.3,0.9,0.3,1.4,1,1.8c2.2,1.2,4.3,2.4,6.5,3.7C26,42,35,47.2,44.1,52.5c0.5,0.3,0.8,0.3,1.3,0c2.8-1.7,5.7-1.7,8.5,0
		c0.5,0.3,0.8,0.2,1.3,0c5.9-3.4,11.7-6.8,17.6-10.2c5.6-3.3,11.3-6.5,16.9-9.8c1.2-0.7,1.2-1.9,0-2.6c-2.8-1.6-5.6-3.3-8.5-4.9
		c-8.6-5-17.2-9.9-25.8-14.9c-0.8-0.5-1.5-0.5-2.3,0c-2.1,1.1-4.4,1.4-6.5,0.4c-1.8-0.9-3.1-0.3-4.5,0.6c-0.2,0.1-0.4,0.2-0.6,0.4
		c-10.4,6-20.8,12-31.2,18C9.6,29.9,9.2,30.4,9.4,31.3z"/>
	<path d="M239.7,30.3c5.5,0,10.8,0.9,15.8,3.4c0.8,0.4,1.1,0.8,0.7,1.7c-0.5,1-0.8,2.1-1.1,3.2c-0.2,0.8-0.5,0.9-1.3,0.6
		c-6.3-2.8-12.9-3.8-19.8-2.6c-1.2,0.2-2.3,0.6-3.3,1.1c-3.9,1.9-5.7,6.2-4.4,10.3c0.6,1.9,1.9,3.1,3.6,4c1.6,0.9,3.3,1.4,5.1,1.8
		c4.1,1,8.3,1.9,12.4,3.1c1.9,0.6,3.6,1.4,5.3,2.4c3.3,2.1,5.2,5,5.8,8.8c0.6,3.8,0.4,7.6-1.2,11.1c-2.2,5-6.4,7.7-11.6,8.6
		c-8.7,1.6-17.2,0.5-25.3-3.3c-0.9-0.4-1.3-0.8-0.8-1.9c0.5-1.1,0.9-2.3,1.2-3.4c0.2-0.6,0.4-0.8,1.1-0.5c5.4,2.6,11.2,3.8,17.2,3.9
		c1.7,0,3.4-0.1,5-0.4c5-1.2,7.6-4.4,7.8-9.9c0.2-4.8-1.6-7.6-6-9.2c-4-1.5-8.1-2.2-12.2-3.3c-1.9-0.5-3.8-1-5.7-1.7
		c-7.6-3.1-10-9.1-8.3-16.5c1.2-5.4,5-8.3,10-10C232.9,30.6,236.3,30.3,239.7,30.3z"/>
	<path d="M138.2,59.5c0-9,0-18,0-27.1c0-0.9,0.2-1.2,1.2-1.1c6.6,0.1,13.3-0.2,19.9,0.2c3.9,0.2,7.7,1.3,10.9,3.7
		c3.3,2.5,4.8,6,5,10c0.2,4.3-0.2,8.6-2.8,12.3c-2.3,3.4-5.8,4.9-9.6,5.7c-4.3,1-8.7,1-13.1,0.8c-1.3-0.1-2.6-0.1-3.8-0.3
		c-0.8-0.1-1,0.1-1,0.9c0,7.3,0,14.6,0,21.9c0,0.9-0.2,1.2-1.1,1.2c-1.5-0.1-3-0.1-4.5,0c-0.9,0.1-1.1-0.3-1.1-1.1
		C138.2,77.5,138.2,68.5,138.2,59.5z M144.8,47.8c0,3.2,0,6.4,0,9.6c0,0.7,0.2,0.9,0.9,0.9c3.4,0,6.9,0,10.3,0
		c1.7,0,3.3-0.3,4.9-0.7c3.8-0.9,6.3-3,7.2-6.9c0.4-2,0.5-4.1,0.2-6.1c-0.4-2.7-1.9-4.6-4.3-5.8c-2-1-4.2-1.4-6.5-1.5
		c-3.9,0-7.9,0-11.8,0c-0.7,0-0.8,0.2-0.8,0.9C144.9,41.4,144.8,44.6,144.8,47.8z"/>
	<path d="M182.8,59.7c0-8.9,0-17.7,0-26.6c0-0.9,0.2-1.2,1.1-1.2c9.6,0,19.2,0,28.7,0c0.8,0,1.2,0.2,1.1,1.1
		c-0.1,1.2-0.2,2.3-0.2,3.5c0,0.9-0.2,1.2-1.2,1.2c-7.2-0.1-14.5,0-21.7-0.1c-1.2,0-1.4,0.3-1.3,1.4c0.1,5.6,0,11.3,0,16.9
		c0,0.9,0.2,1.2,1.2,1.2c6.9-0.1,13.8,0,20.7-0.1c1,0,1.2,0.3,1.2,1.2c-0.1,1-0.1,2.1,0,3.1c0.1,1-0.2,1.3-1.2,1.3
		c-6.9-0.1-13.7,0-20.6-0.1c-1.1,0-1.2,0.3-1.2,1.3c0,7.5,0,15,0,22.5c0,0.8-0.1,1.1-1,1c-1.5-0.1-3-0.1-4.5,0c-0.8,0-1-0.2-1-1
		c0-4.4,0-8.8,0-13.2C182.8,68.8,182.8,64.3,182.8,59.7z"/>
	<path d="M125.7,59.8c0,8.9,0,17.7,0,26.6c0,0.9-0.3,1.2-1.2,1.1c-1.5-0.1-2.9-0.1-4.4,0c-0.8,0-1-0.2-1-1c0.1-2.9,0-5.8,0-8.7
		c0-14.9,0-29.8,0-44.7c0-1,0.2-1.3,1.3-1.2c1.4,0.1,2.8,0.1,4.2,0c0.9,0,1.1,0.2,1.1,1.1c0,7.6,0,15.2,0,22.9
		C125.7,57.2,125.7,58.5,125.7,59.8z"/>
</g>
</svg>
