<?xml version="1.0" encoding="utf-8"?>
<!-- Generator: Adobe Illustrator 25.3.0, SVG Export Plug-In . SVG Version: 6.00 Build 0)  -->
<svg version="1.1" id="Layer_1" xmlns="http://www.w3.org/2000/svg" xmlns:xlink="http://www.w3.org/1999/xlink" x="0px" y="0px"
	 viewBox="0 0 256 233" style="enable-background:new 0 0 256 233;" xml:space="preserve">
<style type="text/css">
	.st0{fill-rule:evenodd;clip-rule:evenodd;}
</style>
<g>
	<path class="st0" d="M0.4,0h23.8v157.9h94.1v19.5H0.4L0.4,0L0.4,0z"/>
	<path class="st0" d="M183.2,46.5c16.2-2.2,33.5,1.1,46.5,11.9c14.1,9.7,21.6,27,22.7,43.3c2.2,19.5,0,38.9-10.8,55.2
		c-9.7,13-24.9,21.6-42.2,22.7c-16.2,2.2-34.6-1.1-48.7-11.9c-13-10.8-19.5-27-21.6-43.3c-2.2-17.3,0-36.8,10.8-51.9
		C148.5,57.3,165.9,47.6,183.2,46.5L183.2,46.5z M186.4,64.9c10.8-1.1,22.7,2.2,31.4,9.7c7.6,8.7,11.9,19.5,13,30.3
		c1.1,11.9,0,24.9-5.4,35.7c-5.4,10.8-15.1,18.4-27,20.5c-10.8,2.2-22.7-1.1-30.3-7.6c-8.7-6.5-14.1-16.2-16.2-26
		c-2.2-14.1-1.1-28.1,4.3-41.1C161.5,74.6,173.4,66,186.4,64.9L186.4,64.9z"/>
	<path class="st0" d="M0.4,205.5h255.2v27H0.4V205.5L0.4,205.5z"/>
</g>
</svg>
