<?xml version="1.0" encoding="utf-8"?>
<!-- Generator: Adobe Illustrator 25.3.0, SVG Export Plug-In . SVG Version: 6.00 Build 0)  -->
<svg version="1.1" id="Layer_1" xmlns="http://www.w3.org/2000/svg" xmlns:xlink="http://www.w3.org/1999/xlink" x="0px" y="0px"
	 viewBox="0 0 256 367" style="enable-background:new 0 0 256 367;" xml:space="preserve">
<g>
	<path d="M107.9,83.4c5.6-2.5,12.3-4.4,20.2-4.4c25.3,0,48.8,20.8,48.8,48.7c0,4.4-0.6,8.4-1.6,12.1l63.5-76
		c-15.5-27-39.1-45.9-66.6-56.1L107.9,83.4z"/>
	<path d="M128,176.9c-27,0-48.9-21.6-48.9-48.8c0-4.7,0.7-9,1.8-12.8l-66.3,78c13.4,28,36.4,52.9,53.3,75.1l80-95.6
		C142.4,175.1,135.7,176.9,128,176.9z"/>
	<path d="M83.2,97L26.8,49.6C11.5,68.8,0,96.8,0,128.4c0,25.5,6.4,45.3,10.1,54.6L83.2,97z"/>
	<path d="M89.7,89.4l72.3-85c-6.5-1.7-19-4.4-34.2-4.4C84.6,0,52.6,20.7,33.3,42L89.7,89.4z"/>
	<path d="M243.9,73.4L74.1,276.4c9.2,12.2,17.7,24.9,25.4,38.1c7.4,14,10.4,23.5,15.8,40.3c3.3,9.3,6.3,12.1,12.7,12.1
		c7,0,10.2-4.7,12.6-12c5.1-15.9,9.1-28.1,15.4-39.5c12.4-22.2,27.7-41.8,42.9-60.8c4.1-5.4,30.5-36.5,42.4-61.2
		c0,0,14.6-27,14.6-64.8C256,102.3,248,82,243.9,73.4z"/>
</g>
</svg>
