<?xml version="1.0" encoding="utf-8"?>
<!-- Generator: Adobe Illustrator 25.2.3, SVG Export Plug-In . SVG Version: 6.00 Build 0)  -->
<svg version="1.1" id="Layer_1" xmlns="http://www.w3.org/2000/svg" xmlns:xlink="http://www.w3.org/1999/xlink" x="0px" y="0px"
	 viewBox="0 0 512 96" style="enable-background:new 0 0 512 96;" xml:space="preserve">
<style type="text/css">
	.st0{fill:#1E1E1E;}
	.st1{fill:#1D1D1D;}
	.st2{fill:#545454;}
	.st3{fill:#0B0B0B;}
	.st4{fill:#2B2B2B;}
	.st5{fill:#404040;}
</style>
<g>
	<path d="M444.2,25.1c3.1,0,6,1,8.5,2.9c2.7,2,4.1,5.1,4.4,8.8c0,0.1,0,0.2-0.1,0.3l-0.1,0h-6c-0.1,0-0.2,0-0.2-0.1l0-0.1
		c-0.7-5.4-7.3-6.9-11.3-4.2c-2.8,1.9-3.3,6.2-0.7,8.3c1,0.9,2.2,1.5,3.5,2.2l3.2,1.7l0,0l2.8,1.4c1.4,0.7,2.8,1.5,4.1,2.4
		c4.6,3,6.1,7.6,5.3,12.7c-0.9,5.2-5.5,10.2-14.5,10.2c-3.4,0-6.7-0.9-9.7-3.2c-3.2-2.4-4.4-5-4.4-9.7c0-0.1,0.1-0.2,0.1-0.2l0.1,0
		h6.5c0.1,0,0.2,0.1,0.2,0.2c0,0.4,0.1,1.4,0.2,1.9c0.9,2.8,3.5,4.6,6.8,4.8c3,0.2,6.1-1.5,7.3-3.9c1.3-2.6,0.4-6-2.6-7.8l-0.4-0.2
		l0,0l-1.4-0.8l0,0l-1.7-0.9l0,0l-8.2-4.3l0,0l-0.5-0.3l0,0l-0.2-0.1C426.8,41.9,428.3,25.1,444.2,25.1z M483.2,26
		c0.1,0,0.2,0.1,0.2,0.1l0,0.1v17.5c0,0.2,0.2,0.3,0.3,0.2l0.1-0.1L501,26.1c0,0,0.1-0.1,0.1-0.1l0.1,0h8.3c0.2,0,0.3,0.1,0.2,0.3
		l-0.1,0.1l-20.3,21c-0.1,0.1-0.1,0.1-0.1,0.2l0.1,0.1L511.9,71c0.1,0.1,0.1,0.3,0,0.4l-0.1,0h-8.3l-0.1,0l0,0l-0.1-0.1l-19.5-20.1
		c-0.1-0.1-0.3-0.1-0.4,0.1l0,0.1v19.8c0,0.1-0.1,0.2-0.1,0.2l-0.1,0h-6.5c-0.1,0-0.2-0.1-0.2-0.1l0-0.1v-45c0-0.1,0.1-0.2,0.1-0.2
		l0.1,0H483.2z M151.4,26c0.1,0,0.1,0,0.2,0.1l0.1,0.1l5.4,17.6c0.1,0.2,0.3,0.2,0.4,0.1l0.1-0.1l5.4-17.6c0-0.1,0.1-0.1,0.1-0.1
		l0.1,0h9.9c0.1,0,0.2,0.1,0.2,0.1l0,0.1v45c0,0.1-0.1,0.2-0.1,0.2l-0.1,0h-6.5c-0.1,0-0.2-0.1-0.2-0.1l0-0.1V37
		c0-0.2-0.3-0.3-0.4-0.2l-0.1,0.1l-5.4,17.7l-0.4,1.2c0,0.1-0.1,0.1-0.1,0.1l-0.1,0h-5c-0.1,0-0.1,0-0.2-0.1l-0.1-0.1l-0.4-1.2
		l-5.4-17.7c-0.1-0.2-0.3-0.2-0.4,0l0,0.1v34.2c0,0.1-0.1,0.2-0.1,0.2l-0.1,0h-6.5c-0.1,0-0.2-0.1-0.2-0.1l0-0.1v-45
		c0-0.1,0.1-0.2,0.1-0.2l0.1,0H151.4z M340.8,26c0.1,0,0.1,0,0.2,0.1l0.1,0.1l5.4,17.6c0.1,0.2,0.3,0.2,0.4,0.1l0.1-0.1l5.3-17.6
		c0-0.1,0.1-0.1,0.1-0.1l0.1,0h9.9c0.1,0,0.2,0.1,0.2,0.1l0,0.1v45c0,0.1-0.1,0.2-0.1,0.2l-0.1,0h-6.5c-0.1,0-0.2-0.1-0.2-0.1l0-0.1
		V37c0-0.2-0.3-0.3-0.4-0.2l-0.1,0.1l-5.4,17.7l-0.4,1.2c0,0.1-0.1,0.1-0.1,0.1l-0.1,0h-5c-0.1,0-0.1,0-0.2-0.1l-0.1-0.1l-0.4-1.2
		l-5.4-17.7c-0.1-0.2-0.3-0.2-0.4,0l0,0.1v34.2c0,0.1-0.1,0.2-0.1,0.2l-0.1,0h-6.5c-0.1,0-0.2-0.1-0.2-0.1l0-0.1v-45
		c0-0.1,0.1-0.2,0.1-0.2l0.1,0H340.8z M268.3,26c0.1,0,0.2,0.1,0.2,0.1l0,0.1v5.6c0,0.1-0.1,0.2-0.1,0.2l-0.1,0h-11.9v39.1
		c0,0.1-0.1,0.2-0.1,0.2l-0.1,0h-6.5c-0.1,0-0.2-0.1-0.2-0.1l0-0.1V32.1h-11.9c-0.1,0-0.2-0.1-0.2-0.1l0-0.1v-5.6
		c0-0.1,0.1-0.2,0.1-0.2l0.1,0H268.3z M300.4,25.8c0.1,0,0.1,0,0.2,0.1l0.1,0.1l12.3,45.1c0,0.1,0,0.2-0.1,0.3l-0.1,0h-5.9
		c-0.1,0-0.1,0-0.2-0.1l-0.1-0.1L303,58.1c0-0.1-0.1-0.1-0.1-0.1l-0.1,0h-13.1c-0.1,0-0.1,0-0.2,0.1l-0.1,0.1l-3.6,13.1
		c0,0.1-0.1,0.1-0.1,0.1l-0.1,0h-5.9c-0.1,0-0.2-0.1-0.2-0.2l0-0.1L291.7,26c0-0.1,0.1-0.1,0.1-0.1l0.1,0H300.4z M401.7,25.8
		c0.1,0,0.1,0,0.2,0.1l0.1,0.1l12.3,45.1c0,0.1,0,0.2-0.1,0.3l-0.1,0H408c-0.1,0-0.1,0-0.2-0.1l-0.1-0.1l-3.6-13.1
		c0-0.1-0.1-0.1-0.1-0.1l-0.1,0h-13.1c-0.1,0-0.1,0-0.2,0.1l-0.1,0.1l-3.6,13.1c0,0.1-0.1,0.1-0.1,0.1l-0.1,0h-5.9
		c-0.1,0-0.2-0.1-0.2-0.2l0-0.1L392.9,26c0-0.1,0.1-0.1,0.1-0.1l0.1,0H401.7z M219.6,26c0.1,0,0.2,0.1,0.2,0.1l0,0.1v5.6
		c0,0.1-0.1,0.2-0.1,0.2l-0.1,0h-19.8c-0.1,0-0.2,0.1-0.2,0.1l0,0.1v11.9c0,0.1,0.1,0.2,0.1,0.2l0.1,0h17.4c0.1,0,0.2,0.1,0.2,0.1
		l0,0.1v5.6c0,0.1-0.1,0.2-0.1,0.2l-0.1,0h-17.4c-0.1,0-0.2,0.1-0.2,0.1l0,0.1v13.9c0,0.1,0,0.2,0.1,0.2l0.1,0.1h20.6
		c0.1,0,0.2,0.1,0.2,0.1l0,0.1v5.9c0,0.1-0.1,0.2-0.1,0.2l-0.1,0h-27.6c-0.1,0-0.2-0.1-0.2-0.1l0-0.1V26.3c0-0.1,0.1-0.2,0.1-0.2
		l0.1,0H219.6z M296.4,34c-0.1-0.2-0.3-0.2-0.4-0.1l-0.1,0.1l-4.8,17.6c0,0.1,0,0.2,0.1,0.3l0.1,0h9.5c0.1,0,0.2-0.1,0.2-0.2l0-0.1
		L296.4,34z M397.7,34c-0.1-0.2-0.3-0.2-0.4-0.1l-0.1,0.1l-4.8,17.6c0,0.1,0,0.2,0.1,0.3l0.1,0h9.5c0.1,0,0.2-0.1,0.2-0.2l0-0.1
		L397.7,34z"/>
	<g transform="translate(-0.000000, 0.000000)">
		<polygon class="st0" points="99.8,0 55.9,32.4 64.1,13.3 		"/>
		<polygon class="st1" points="2.5,0 38,13.3 45.8,32.7 		"/>
		<polygon class="st1" points="82.1,69 101.5,69.3 94.7,92.3 71.1,85.8 		"/>
		<polygon class="st1" points="20,69 31,85.8 7.4,92.3 0.7,69.3 		"/>
		<polygon class="st1" points="44.7,27.7 45.5,53.3 21.8,52.2 28.6,42.1 28.7,42 		"/>
		<polygon class="st1" points="57.1,27.5 73.5,42 73.5,42.1 80.3,52.2 56.6,53.3 		"/>
		<polygon class="st1" points="31.7,69 44.6,79.1 29.6,86.4 		"/>
		<polygon class="st1" points="70.4,69 72.5,86.4 57.5,79.1 		"/>
		<polygon class="st2" points="57.8,78.2 73,85.5 58.9,92.2 59,87.8 		"/>
		<polygon class="st2" points="44.3,78.2 43.1,87.7 43.2,92.2 29,85.5 		"/>
		<polygon class="st3" points="32.7,68.9 30.5,86.9 18.8,69.3 		"/>
		<polygon class="st3" points="69.4,68.9 83.3,69.3 71.5,86.9 		"/>
		<polygon class="st3" points="80.6,51.2 70.5,61.5 62.7,58 59,65.8 56.5,52.3 		"/>
		<polygon class="st3" points="21.5,51.2 45.6,52.3 43.2,65.8 39.4,58 31.7,61.5 		"/>
		<polygon class="st1" points="20.8,49.1 32.3,60.7 32.7,72.2 		"/>
		<polygon class="st1" points="81.3,49.1 69.5,72.2 69.9,60.7 		"/>
		<polygon class="st1" points="45,49.8 45.5,52.7 46.6,59.9 45.5,76.3 42.4,64.3 42.4,64.1 		"/>
		<polygon class="st1" points="57.1,49.8 59.7,64.1 59.7,64.3 56.1,77.7 56.1,77.7 55.5,59.8 		"/>
		<polygon class="st4" points="70.9,60.3 70.5,70.2 58.5,79.6 56,77.9 58.8,63.8 		"/>
		<polygon class="st4" points="31.2,60.3 43.4,63.8 46.1,77.9 43.7,79.6 31.6,70.2 		"/>
		<polygon class="st5" points="26.7,83.3 42.2,90.6 42.1,87.5 43.4,86.4 58.7,86.4 60,87.5 59.9,90.6 75.3,83.3 67.8,89.5 
			58.8,95.7 43.3,95.7 34.3,89.5 		"/>
		<polygon points="96.9,0.9 102.1,16.7 98.8,32.6 101.2,34.4 98,36.9 100.4,38.7 97.2,41.6 99.2,43 94,49 73,42.8 72.8,42.7 
			57.6,29.9 		"/>
		<polygon points="5.3,0.9 44.5,29.9 29.3,42.7 29.1,42.8 8.1,49 2.9,43 4.9,41.6 1.7,38.7 4.1,36.9 0.9,34.4 3.3,32.6 0,16.7 		"/>
		<polygon class="st4" points="72,41.5 94.3,48 101.5,70.3 82.4,70.3 69.2,70.5 78.8,51.8 		"/>
		<polygon class="st4" points="30.2,41.5 23.3,51.8 32.9,70.5 19.7,70.3 0.7,70.3 7.9,48 		"/>
		<polygon class="st4" points="65.2,13.2 58.9,30.1 57.6,52.8 57.1,60 57.1,78.2 45.1,78.2 45,60 44.5,52.8 43.2,30.1 36.9,13.2 		
			"/>
	</g>
</g>
</svg>
