<?xml version="1.0" encoding="utf-8"?>
<!-- Generator: Adobe Illustrator 25.2.3, SVG Export Plug-In . SVG Version: 6.00 Build 0)  -->
<svg version="1.1" id="Layer_1" xmlns="http://www.w3.org/2000/svg" xmlns:xlink="http://www.w3.org/1999/xlink" x="0px" y="0px"
	 viewBox="0 0 256 291" style="enable-background:new 0 0 256 291;" xml:space="preserve">
<g>
	<polygon points="210.3,134.8 205,147.3 215.6,147.3 	"/>
	<path d="M120.9,117.6h9.2c0.5,0,0.8-0.2,1.2-0.5c5.3-6.4,6.1-18.7,6.1-23.1c0-0.9-0.8-1.6-1.6-1.6h-10.3h-10.3
		c-0.9,0-1.6,0.8-1.6,1.6c0.2,4.4,0.8,16.9,6.1,23.1C120.1,117.5,120.4,117.6,120.9,117.6z M131,105.9c3.7-1.4,3.9-2.8,3.9-2.8
		c-0.6,4.2-1.9,9.1-4.5,12.2c-0.3,0.3-0.6,0.5-0.9,0.5h-7.8c-0.3,0-0.8-0.2-0.9-0.5c-1.9-2.3-3.1-5.5-3.9-8.7
		C116.8,106.5,125.9,107.8,131,105.9z"/>
	<path d="M98.7,136c-0.9-0.9-2-1.7-3.3-2.3c-1.2-0.6-2.7-0.9-4.2-0.9c-1.6,0-3,0.3-4.2,0.9c-1.2,0.6-2.3,1.4-3.3,2.3
		c-0.9,0.9-1.6,2.2-2.2,3.4c-0.5,1.4-0.8,2.8-0.8,4.2v0.2c0,1.6,0.3,3,0.8,4.4c0.5,1.4,1.2,2.5,2.2,3.6c0.9,0.9,2,1.7,3.3,2.3
		c1.2,0.6,2.8,0.9,4.2,0.9c1.6,0,3-0.3,4.2-0.9c1.2-0.6,2.3-1.4,3.3-2.3c0.9-0.9,1.6-2.2,2.2-3.4c0.5-1.4,0.8-2.8,0.8-4.2V144
		c0-1.6-0.3-3-0.8-4.4C100.4,138.2,99.7,137.1,98.7,136z"/>
	<path d="M229.3,81.7l-97.1-56c-1.4-0.8-2.8-1.2-4.4-1.2c-1.4,0-3,0.5-4.4,1.2l-97.1,56c-2.7,1.6-4.4,4.5-4.4,7.6v112.1
		c0,3.1,1.7,6.1,4.4,7.6l97.1,56c1.2,0.8,2.8,1.2,4.4,1.2c1.6,0,3-0.5,4.4-1.2l97.1-56c2.7-1.6,4.4-4.5,4.4-7.6V89.4
		C233.7,86.2,232,83.3,229.3,81.7z M128.4,68.4c-0.8,1.1,0.2,3.7,2.2,6.9c3.4,5.9-2.2,9.2-2.2,9.2c0.2-0.9-0.5-3.9-1.7-5.3
		C122.9,73.6,126.4,70.9,128.4,68.4z M122.1,74.2c-0.6,0.6,0,2.5,1.4,4.5c2.3,4.1-1.4,6.2-1.4,6.2c0-0.6-0.3-2.7-1.1-3.4
		C118.6,77.7,120.7,75.9,122.1,74.2z M110.8,87.6h14.7h14.7c0.9,0,1.6,0.8,1.6,1.6c0,5.5-0.8,23.7-8.6,32.5
		c-0.3,0.3-0.6,0.5-1.1,0.5h-13.1c-0.5,0-0.8-0.2-1.1-0.5c-7.8-8.9-8.6-27.2-8.6-32.5C109.2,88.3,110,87.6,110.8,87.6z M124.8,148.2
		c0.5,1.4,1.2,2.5,2.2,3.6c0.9,0.9,2,1.9,3.3,2.3c1.2,0.5,2.7,0.9,4.1,0.9c1.9,0,3.6-0.3,4.8-1.1c1.2-0.8,2.7-1.7,4.1-3l3.6,3.6
		c-0.8,0.9-1.6,1.6-2.5,2.3c-0.9,0.8-1.9,1.2-2.8,1.7c-0.9,0.5-2.2,0.9-3.3,1.1c-1.4,0.3-2.8,0.3-4.2,0.3c-2.3,0-4.4-0.5-6.2-1.2
		c-1.9-0.8-3.6-2-5-3.4c-1.4-1.4-2.5-3.1-3.3-5.2c-0.8-2-1.2-4.1-1.2-6.2v-0.2c0-2.2,0.5-4.4,1.2-6.2c0.8-1.9,1.9-3.6,3.3-5.2
		c1.4-1.4,3.1-2.7,5.2-3.4c2-0.8,4.1-1.2,6.6-1.2c1.4,0,2.7,0.2,3.9,0.3c1.2,0.3,2.2,0.6,3.3,0.9c0.9,0.5,1.9,0.9,2.7,1.6
		c0.8,0.6,1.6,1.2,2.3,2l-3.6,4.1c-1.2-1.1-2.5-2-3.9-2.8c-1.4-0.8-3-1.1-4.8-1.1c-1.6,0-2.8,0.3-4.1,0.9c-1.2,0.6-2.3,1.4-3.3,2.3
		c-0.9,0.9-1.6,2.2-2.2,3.4c-0.5,1.4-0.8,2.8-0.8,4.2v0.2C124,145.4,124.3,146.8,124.8,148.2z M28.5,110.8h79.6
		c0,0.6,0.2,1.1,0.2,1.7H28.5V110.8z M107.6,143.8v0.2c0,2.2-0.5,4.2-1.2,6.2c-0.8,1.9-1.9,3.6-3.4,5.2c-1.4,1.4-3.1,2.7-5.2,3.4
		c-2,0.9-4.2,1.2-6.6,1.2c-2.3,0-4.5-0.5-6.6-1.2c-2-0.8-3.7-2-5.2-3.4c-1.4-1.4-2.5-3.1-3.3-5.2c-0.8-1.9-1.2-4.1-1.2-6.2v-0.2
		c0-2.2,0.5-4.2,1.2-6.2c0.8-1.9,1.9-3.6,3.4-5.2c1.4-1.4,3.1-2.7,5.2-3.4c2-0.9,4.2-1.2,6.6-1.2c2.3,0,4.5,0.5,6.6,1.2
		c2,0.8,3.7,2,5.2,3.4c1.4,1.4,2.5,3.1,3.3,5.2C107.2,139.5,107.6,141.7,107.6,143.8z M47.7,152h-0.2l-9.7-14.5v22.3h-5.5v-31.4h5.8
		l9.5,14.7l9.5-14.7H63v31.2h-5.5v-22.3L47.7,152z M227.5,171.2h-199v-1.7h199V171.2z M178.2,141.3v-13h5.5v31.2h-5.5v-13.1h-15
		v13.1h-5.5v-31.2h5.5v13H178.2z M194.1,159.6l13.7-31.4h5l13.7,31.4h-5.8l-3.1-7.5H203l-3.3,7.5H194.1z M227.5,112.5h-84.8
		c0-0.6,0.2-1.1,0.2-1.7h84.6V112.5z"/>
	<path d="M248.2,67L135.8,2.1c-4.8-2.8-10.8-2.8-15.6,0L7.8,67C3,69.9,0,74.8,0,80.5v129.9c0,5.5,3,10.6,7.8,13.4l112.4,64.9
		c4.8,2.8,10.8,2.8,15.6,0l112.4-64.9c4.7-2.8,7.6-8,7.8-13.4V80.5C256,75,253,69.9,248.2,67z M238.4,201.3c0,4.7-2.5,9.2-6.7,11.6
		l-97.1,56c-2,1.2-4.4,1.9-6.7,1.9s-4.7-0.6-6.7-1.9l-97.1-56c-4.2-2.3-6.7-6.7-6.7-11.6V89.2c0-4.7,2.5-9.2,6.7-11.6l97.1-56
		c2-1.2,4.4-1.9,6.7-1.9s4.7,0.6,6.7,1.9l97.1,56c4.2,2.3,6.7,6.7,6.7,11.6V201.3z"/>
</g>
</svg>
