<?xml version="1.0" encoding="utf-8"?>
<!-- Generator: Adobe Illustrator 25.3.0, SVG Export Plug-In . SVG Version: 6.00 Build 0)  -->
<svg version="1.1" id="Layer_1" xmlns="http://www.w3.org/2000/svg" xmlns:xlink="http://www.w3.org/1999/xlink" x="0px" y="0px"
	 viewBox="0 0 256 256" style="enable-background:new 0 0 256 256;" xml:space="preserve">
<style type="text/css">
	.st0{fill-rule:evenodd;clip-rule:evenodd;}
</style>
<g>
	<path class="st0" d="M128,256c70.7,0,128-57.3,128-128S198.7,0,128,0S0,57.3,0,128S57.3,256,128,256L128,256z M128,236.8
		c-60.1,0-108.8-48.7-108.8-108.8S67.9,19.2,128,19.2S236.8,67.9,236.8,128S188.1,236.8,128,236.8L128,236.8z"/>
	<path class="st0" d="M128,227.2c54.8,0,99.2-44.4,99.2-99.2S182.8,28.8,128,28.8S28.8,73.2,28.8,128S73.2,227.2,128,227.2
		L128,227.2z M128,35c-3.4,0-6.2,2.8-6.2,6.2v80.6H78.4c-3.4,0-6.2,2.7-6.2,6.2c0,3.4,2.8,6.2,6.2,6.2h55.8v-93
		C134.2,37.8,131.5,35,128,35L128,35z"/>
</g>
</svg>
