<?xml version="1.0" encoding="utf-8"?>
<!-- Generator: Adobe Illustrator 25.3.0, SVG Export Plug-In . SVG Version: 6.00 Build 0)  -->
<svg version="1.1" id="Layer_1" xmlns="http://www.w3.org/2000/svg" xmlns:xlink="http://www.w3.org/1999/xlink" x="0px" y="0px"
	 viewBox="0 0 512 146" style="enable-background:new 0 0 512 146;" xml:space="preserve">
<style type="text/css">
	.st0{fill-rule:evenodd;clip-rule:evenodd;}
	.st1{fill-rule:evenodd;clip-rule:evenodd;fill:#FFFFFF;}
</style>
<g>
	<g>
		<path class="st0" d="M476.7,60.5c-0.5,0.1-0.9,1.1-0.9,1.7c-0.1,3.7-0.2,13.5-0.2,20.1c0,0.2,0.3,0.6,0.6,0.6
			c1.4,0.1,4.7,0.2,7.6,0.2c4,0,6.3-0.6,7.6-1.1c3.3-1.7,4.9-5.3,4.9-9.2c0-9-6.3-12.4-15.6-12.4C479.9,60.2,478.1,60.2,476.7,60.5
			L476.7,60.5L476.7,60.5z M500.5,101.7c0-9.1-6.7-14.2-18.9-14.2c-0.6,0-4.4-0.1-5.4,0.1c-0.3,0.1-0.6,0.3-0.6,0.6
			c0,6.6-0.1,17,0.2,21c0.2,1.8,1.5,4.2,3,5c1.7,0.9,5.4,1.1,8,1.1C494.2,115.3,500.5,111.2,500.5,101.7L500.5,101.7L500.5,101.7z
			 M457.9,55.4c0.9,0,3.7,0.3,10.8,0.3c6.7,0,12.1-0.2,18.6-0.2c8,0,19.1,2.9,19.1,14.9c0,5.9-4.2,10.6-9.6,12.9
			c-0.3,0.1-0.3,0.3,0,0.4c7.8,1.9,14.6,6.7,14.6,15.8c0,8.9-5.5,14.5-13.6,18c-4.9,2.1-11,2.9-17.2,2.9c-4.7,0-17.3-0.6-24.4-0.4
			c-0.7-0.3,0.6-3.6,1.3-4.2c1.7-0.1,3-0.2,4.7-0.7c2.5-0.6,2.8-1.4,3.1-5.2c0.2-3.2,0.2-14.7,0.2-22.8c0-11.2,0.1-18.7,0-22.4
			c-0.1-2.9-1.1-3.8-3.1-4.3c-1.6-0.3-4.2-0.6-6.3-0.9C455.8,58.9,457.3,55.8,457.9,55.4L457.9,55.4L457.9,55.4z M404.6,112.8
			c2.2,1.8,6.6,2.5,10.4,2.5c5,0,10-0.9,14.8-5.3c4.9-4.4,8.3-11.3,8.3-22.1c0-10.4-4-18.9-12.1-23.9c-4.6-2.9-10.5-4.1-17.3-4.1
			c-2,0-4,0.1-5.2,0.6c-0.3,0.2-0.9,1-0.9,1.5c-0.2,1.8-0.2,16.1-0.2,24.4c0,8.6,0,20.6,0.2,22C402.6,109.7,403.3,111.9,404.6,112.8
			L404.6,112.8L404.6,112.8z M383.7,55.4c1.8,0,8.5,0.3,11.7,0.3c5.8,0,10-0.3,20.9-0.3c9.2,0,17,2.5,22.5,7.2
			c6.7,5.8,10.2,13.8,10.2,23.6c0,13.9-6.4,22-12.7,26.6c-6.4,4.7-14.7,7.5-26.5,7.5c-6.3,0-17.1-0.2-26-0.3h-0.1
			c-0.5-0.8,0.7-4.1,1.5-4.2c2.4-0.3,3-0.4,4.2-0.8c1.9-0.7,2.3-1.8,2.6-5.2c0.3-6.4,0.2-14,0.2-22.7c0-6.2,0.1-18.3-0.1-22.1
			c-0.3-3.2-1.7-4.1-4.4-4.6c-1.4-0.3-3.2-0.6-5.8-0.9C381.6,58.8,383.2,55.9,383.7,55.4L383.7,55.4L383.7,55.4z"/>
		<path class="st0" d="M272,116.4c-2.3-0.3-4-0.6-6-1.6c-0.3-0.2-0.7-1.1-0.7-1.5c-0.2-3.2-0.2-12.5-0.2-18.6c0-5-0.8-9.3-3-12.4
			c-2.5-3.5-6.1-5.5-10.7-5.5c-4.1,0-9.5,2.8-14,6.6c-0.1,0.1-0.8,0.7-0.7-0.3c0-1,0.2-3,0.3-4.4c0.1-1.3-0.6-1.9-0.6-1.9
			c-3,1.5-11.3,3.4-14.3,3.7c-2.2,0.5-2.8,2.6-0.5,3.3h0.1c2.5,0.7,4.2,1.6,5.4,2.4c0.9,0.7,0.8,1.8,0.8,2.6
			c0.1,6.9,0.1,17.5-0.2,23.3c-0.1,2.3-0.7,3.1-2.4,3.5l0.2-0.1c-1.3,0.3-2.3,0.6-3.9,0.7c-0.6,0.6-0.6,3.5,0,4.2
			c1,0,6.4-0.3,10.8-0.3c6.1,0,9.2,0.3,10.8,0.3c0.6-0.7,0.8-3.5,0.5-4.2c-1.8-0.1-3-0.3-4.2-0.6c-1.7-0.4-2.1-1.2-2.2-3.1
			c-0.2-4.9-0.2-15.2-0.2-22.2c0-1.9,0.6-2.9,1.1-3.4c2.1-1.8,5.5-3.1,8.6-3.1c3,0,4.9,0.9,6.4,2.1c2,1.7,2.7,4.1,3,5.8
			c0.5,4,0.3,11.8,0.3,18.6c0,3.7-0.3,4.6-1.7,5.1c-0.6,0.3-2.3,0.6-4.2,0.8c-0.6,0.6-0.5,3.5,0,4.2c2.7,0,5.8-0.3,10.4-0.3
			c5.7,0,9.4,0.3,10.9,0.3C272.2,119.8,272.4,117.1,272,116.4L272,116.4L272,116.4z M297.6,81.1c-4.9,0-7.9,3.8-7.9,9.7
			c0,6,2.7,12.9,10.2,12.9c1.3,0,3.7-0.6,4.8-1.8c1.8-1.7,3-5,3-8.5C307.7,85.7,303.9,81.1,297.6,81.1L297.6,81.1L297.6,81.1z
			 M296.9,121.9c-1.8,0-3.1,0.6-4,1c-3.9,2.5-5.6,4.9-5.6,7.8c0,2.7,1,4.8,3.2,6.6c2.7,2.3,6.4,3.4,11.1,3.4
			c9.4,0,13.6-5.1,13.6-10.1c0-3.5-1.8-5.8-5.4-7.1C307.3,122.5,302.6,121.9,296.9,121.9L296.9,121.9L296.9,121.9z M297.6,145.9
			c-5.6,0-9.7-1.2-13.2-3.9c-3.4-2.6-4.9-6.5-4.9-9.1c0-0.7,0.2-2.8,1.8-4.6c1-1.1,3.2-3.2,8.5-6.8c0.2-0.1,0.3-0.2,0.3-0.4
			s-0.2-0.4-0.4-0.5c-4.3-1.7-5.6-4.3-6-5.8v-0.2c-0.1-0.6-0.3-1.1,0.6-1.7c0.6-0.5,1.6-1,2.6-1.7c1.6-0.9,3.2-1.9,4.2-2.8
			c0.2-0.2,0.2-0.4,0.2-0.6s-0.2-0.4-0.4-0.5c-6.5-2.1-9.7-6.9-9.7-14.1c0-4.7,2.1-9,5.9-11.6c2.6-2,9-4.5,13.3-4.5h0.3
			c4.3,0.1,6.7,1,10.2,2.2c1.8,0.6,3.6,0.9,6,0.9c3.6,0,5.2-1.1,6.5-2.4c0.1,0.2,0.3,0.6,0.4,1.8c0.1,1.2-0.3,3-1.2,4.2
			c-0.7,1-2.4,1.8-4.1,1.8H318c-1.7-0.2-2.4-0.4-2.4-0.4l-0.4,0.2c-0.1,0.2,0,0.4,0.1,0.6l0.1,0.2c0.2,0.8,0.6,3.3,0.6,4
			c0,7.6-3,10.9-6.3,13.4c-3.1,2.3-6.7,3.8-10.8,4.2c-0.1,0-0.5,0-1.3,0.1c-0.5,0-1.1,0.1-1.2,0.1h-0.1c-0.7,0.2-2.6,1.1-2.6,2.7
			c0,1.4,0.8,3,4.8,3.3c0.8,0.1,1.7,0.1,2.6,0.2c5.3,0.4,11.8,0.8,14.9,1.8c4.2,1.6,6.9,5.4,6.9,9.9c0,6.8-4.9,13.2-13,17.2
			C305.9,145,301.9,145.9,297.6,145.9L297.6,145.9L297.6,145.9z M350.2,81.6c-1.9,0-3.7,0.5-5,1.4c-3.6,2.2-5.4,6.6-5.4,13.1
			c0,12.1,6.1,20.6,14.8,20.6c2.6,0,4.6-0.7,6.4-2.2c2.7-2.2,4.1-6.6,4.1-12.8C365,89.6,359,81.6,350.2,81.6L350.2,81.6L350.2,81.6z
			 M351.9,121.1c-15.7,0-21.3-11.5-21.3-22.3c0-7.6,3-13.4,9.1-17.5c4.3-2.7,9.5-4.2,14.1-4.2c12,0,20.4,8.6,20.4,20.9
			c0,8.4-3.3,15-9.7,19.1C361.5,119.2,356.2,121.1,351.9,121.1L351.9,121.1L351.9,121.1z M187.4,81.6c-1.9,0-3.7,0.5-5,1.4
			c-3.6,2.2-5.4,6.6-5.4,13.1c0,12.1,6.1,20.6,14.8,20.6c2.6,0,4.6-0.7,6.4-2.2c2.7-2.2,4.1-6.6,4.1-12.8
			C202.2,89.6,196.3,81.6,187.4,81.6L187.4,81.6L187.4,81.6z M189.1,121.1c-15.7,0-21.3-11.5-21.3-22.3c0-7.6,3-13.4,9.1-17.5
			c4.3-2.7,9.5-4.2,14.1-4.2c12,0,20.4,8.6,20.4,20.9c0,8.4-3.3,15-9.7,19.1C198.8,119.2,193.5,121.1,189.1,121.1L189.1,121.1
			L189.1,121.1z M83.6,120.2c-0.2-0.3-0.4-1.1-0.3-2.1c0-0.7,0.2-1.2,0.3-1.4c1.9-0.3,3-0.6,4.1-0.8c1.8-0.5,2.6-1.5,2.7-3.8
			c0.3-5.5,0.3-16.1,0.2-23.3v-0.2c0-0.8,0-1.8-1-2.6C88,85,86.3,84.2,84,83.5c-0.8-0.3-1.4-0.7-1.3-1.3c0-0.6,0.6-1.2,1.8-1.4
			c3-0.3,11-2.2,14.1-3.6c0.2,0.2,0.5,0.7,0.5,1.5l-0.1,1c-0.1,1-0.2,2.2-0.2,3.4c0,0.4,0.4,0.6,0.7,0.6c0.2,0,0.4-0.1,0.6-0.2
			c5.9-4.6,11.3-6.3,14-6.3c4.5,0,8,2.1,10.7,6.6c0.2,0.3,0.4,0.4,0.6,0.4c0.2,0,0.5-0.1,0.6-0.3c5.4-4.2,10.9-6.6,14.5-6.6
			c8.6,0,13.7,6.4,13.7,17.2c0,3,0,7-0.1,10.6c0,3.2-0.1,6.2-0.1,8.3c0,0.5,0.6,1.9,1.7,2.2c1.3,0.6,3,0.9,5.4,1.3h0.1
			c0.2,0.6-0.2,3-0.6,3.5c-0.6,0-1.4,0-2.3-0.1c-1.8-0.1-4.2-0.2-7-0.2c-5.7,0-8.7,0.1-11.5,0.3c-0.2-0.7-0.3-3,0-3.5
			c1.7-0.3,2.5-0.6,3.5-0.8c1.8-0.6,2.3-1.4,2.4-3.8c0-1.8,0.4-16.7-0.2-20.3c-0.6-3.7-3.3-8-9.4-8c-2.3,0-5.9,0.9-9.4,3.6
			c-0.2,0.2-0.4,0.6-0.4,0.9v0.1c0.4,1.9,0.4,4.2,0.4,7.6v6c0,4.2-0.1,8,0,11c0,2,1.2,2.5,2.2,2.9c0.6,0.1,0.9,0.2,1.4,0.3
			c0.8,0.2,1.7,0.4,3,0.6c0.2,0.4,0.2,1.6-0.1,2.6c-0.1,0.6-0.3,0.8-0.4,0.9c-3.1-0.1-6.4-0.2-11.1-0.2c-1.4,0-3.8,0.1-5.8,0.1
			c-1.7,0-3.2,0.1-4.2,0.1c-0.1-0.2-0.3-0.8-0.3-1.8c0-0.8,0.2-1.5,0.4-1.7c0.5-0.1,0.8-0.2,1.3-0.2c1.1-0.2,2-0.4,3-0.6
			c1.6-0.5,2.1-1.3,2.2-3.3c0.3-4.6,0.6-17.8-0.1-21.1c-1.1-5.4-4.2-8-9-8c-2.9,0-6.5,1.4-9.4,3.6c-0.5,0.4-0.8,1.3-0.8,2.1v5.4
			c0,6.6,0,14.9,0.1,18.5c0.1,1.1,0.5,2.4,2.6,2.9c0.5,0.1,1.2,0.3,2.1,0.4l1.7,0.3c0.2,0.6,0.1,2.8-0.3,3.5c-0.9,0-2-0.1-3.3-0.1
			c-1.9-0.1-4.4-0.2-7.2-0.2c-3.2,0-5.5,0.1-7.4,0.2C85.7,120.2,84.7,120.2,83.6,120.2L83.6,120.2L83.6,120.2z"/>
		<g>
			<path class="st1" d="M35.1,142.3l-3.8-1.3c0,0,0.5-19.3-6.5-20.7c-4.6-5.4,0.7-227,17.3-0.7c0,0-5.7,2.9-6.7,7.8
				C34.3,132.2,35.1,142.3,35.1,142.3L35.1,142.3L35.1,142.3z"/>
			<path class="st0" d="M35.1,142.3l-3.8-1.3c0,0,0.5-19.3-6.5-20.7c-4.6-5.4,0.7-227,17.3-0.7c0,0-5.7,2.9-6.7,7.8
				C34.3,132.2,35.1,142.3,35.1,142.3L35.1,142.3L35.1,142.3z"/>
			<path class="st1" d="M37.1,124.7c0,0,33.1-21.8,25.4-67.1C55,24.6,37.4,13.8,35.4,9.7c-2.1-3-4.2-8.1-4.2-8.1l1.4,91.6
				C32.7,93.3,29.8,121.3,37.1,124.7"/>
			<path class="st0" d="M37.8,123.7c0,0,31.4-21.8,24.1-67.1C54.8,23.6,38.1,12.8,36.2,8.7c-2-3-3.9-8.1-3.9-8.1l1.3,91.6
				C33.6,92.3,30.9,120.3,37.8,123.7"/>
			<path class="st1" d="M29.3,125.9c0,0-31.1-21.2-29.3-58.6C1.8,29.9,23.8,11.5,28,8.2c2.8-3,2.9-4.1,3-7
				c1.9,4.2,1.6,62.1,1.8,68.9C33.8,96.4,31.5,120.9,29.3,125.9L29.3,125.9L29.3,125.9z"/>
			<path class="st0" d="M28.6,124.7c0,0-29.7-21.2-27.9-58.6C2.4,28.7,23.4,10.3,27.4,7c2.6-3,2.7-4.1,2.9-7
				c1.8,4.2,1.5,62.1,1.8,68.9C32.9,95.2,30.7,119.7,28.6,124.7L28.6,124.7L28.6,124.7z"/>
		</g>
	</g>
</g>
</svg>
