<?xml version="1.0" encoding="utf-8"?>
<!-- Generator: Adobe Illustrator 25.2.3, SVG Export Plug-In . SVG Version: 6.00 Build 0)  -->
<svg version="1.1" id="Layer_1" xmlns="http://www.w3.org/2000/svg" xmlns:xlink="http://www.w3.org/1999/xlink" x="0px" y="0px"
	 viewBox="0 0 256 255" style="enable-background:new 0 0 256 255;" xml:space="preserve">
<g>
	<path d="M150.7,0c-1.9,0-3.6,0.4-5.2,0.9c3.4,2.2,5.2,5.2,6.1,8.6c0.1,0.5,0.2,0.8,0.3,1.3c0.1,0.4,0.1,0.8,0.1,1.2
		c0.3,5.8-1.5,6.5-2.8,10c-1.9,4.4-1.4,9.2,0.9,13c0.2,0.5,0.5,1,0.8,1.5c-2.5-16.7,11.4-19.2,14-24.5c0.2-4.6-3.6-7.6-6.5-9.7
		C155.7,0.5,153.1,0,150.7,0z M171.8,3.8c-0.3,1.5-0.1,1.1-0.1,1.9c-0.1,0.5-0.1,1.2-0.1,1.7c-0.1,0.5-0.3,1.1-0.5,1.6
		c-0.1,0.5-0.3,1.1-0.5,1.6c-0.3,0.5-0.5,1-0.7,1.5c-0.2,0.3-0.3,0.5-0.5,0.8c-0.1,0.2-0.3,0.4-0.4,0.6c-0.3,0.5-0.7,0.9-1,1.3
		c-0.4,0.4-0.7,0.9-1.2,1.2c0,0.1,0,0.1,0,0.1c-0.4,0.3-0.8,0.7-1.3,1.1c-1.4,1.1-3,1.9-4.4,2.8c-0.5,0.3-0.9,0.6-1.3,1
		c-0.5,0.3-0.9,0.7-1.3,1.1c-0.5,0.4-0.8,0.8-1.2,1.3c-0.3,0.4-0.7,0.9-1,1.3c-0.3,0.5-0.7,0.9-0.9,1.4c-0.3,0.5-0.5,1-0.7,1.5
		c-0.2,0.5-0.4,1-0.5,1.5c-0.2,0.6-0.3,1.1-0.5,1.7c-0.1,0.3-0.1,0.6-0.1,0.9c-0.1,0.3-0.1,0.5-0.1,0.8c0,0.5-0.1,1.1-0.1,1.7
		c0,0.4,0,0.8,0.1,1.2c0,0.5,0.1,1.1,0.2,1.7c0.1,0.5,0.2,1.1,0.3,1.6c0.2,0.5,0.3,1.1,0.5,1.6c0.1,0.3,0.3,0.7,0.5,0.9L139.6,35
		c-2.6-0.7-5.1-1.4-7.7-2c-1.4-0.3-2.8-0.7-4.2-1c-4-0.8-8-1.4-12-1.8c-0.1,0-0.2-0.1-0.3-0.1c-4-0.4-7.9-0.6-11.8-0.6
		c-2.9,0-5.8,0.1-8.7,0.3c-4,0.3-8.1,0.8-12.1,1.5c-1,0.1-2,0.3-3,0.5c-2,0.4-4,0.9-6,1.3c-1,0.3-2,0.5-3,0.8
		c-1,0.4-1.9,0.9-2.8,1.3c-0.7,0.3-1.5,0.7-2.2,1c-0.1,0.1-0.3,0.1-0.3,0.1c-0.7,0.3-1.3,0.6-1.9,0.9c-0.2,0.1-0.3,0.1-0.5,0.2
		c-0.7,0.3-1.5,0.7-2,1.1c-0.5,0.2-0.9,0.5-1.3,0.7c-0.2,0.1-0.5,0.3-0.6,0.3c-0.6,0.3-1.2,0.7-1.7,1c-0.6,0.3-1.1,0.7-1.6,1
		c-0.5,0.3-0.9,0.6-1.3,0.9c-0.1,0.1-0.1,0.1-0.2,0.1c-0.4,0.3-0.9,0.6-1.3,0.9c0,0-0.1,0.1-0.1,0.1c-0.3,0.3-0.7,0.5-1,0.8
		c-0.1,0.1-0.3,0.2-0.4,0.3c-0.3,0.3-0.7,0.6-1,0.9c-0.1,0.1-0.2,0.2-0.3,0.3c-0.4,0.4-0.8,0.7-1.2,1.1c-0.1,0-0.1,0.1-0.1,0.1
		c-0.4,0.3-0.8,0.7-1.2,1.1c-0.1,0.1-0.1,0.1-0.1,0.1c-0.3,0.3-0.7,0.7-1,1.1c-0.1,0.1-0.3,0.3-0.5,0.4c-0.3,0.4-0.7,0.8-1.1,1.2
		c-0.1,0.1-0.2,0.2-0.3,0.3c-0.5,0.5-1,1.1-1.5,1.6c-0.1,0.1-0.1,0.1-0.2,0.2c-1.1,1.1-2.2,2.2-3.4,3.2c-1.2,1.1-2.4,2-3.7,2.9
		c-1.3,0.9-2.6,1.7-4,2.5c-1.3,0.7-2.7,1.4-4.2,2c-1.4,0.6-2.8,1.1-4.3,1.6c-2.8,0.6-5.6,1.7-8.1,1.9c-0.5,0-1.1,0.1-1.7,0.2
		c-0.6,0.1-1.1,0.3-1.7,0.4c-0.5,0.2-1.1,0.4-1.6,0.6c-0.5,0.2-1.1,0.5-1.6,0.7c-0.5,0.3-1,0.6-1.5,0.9c-0.5,0.3-0.9,0.7-1.3,1.1
		c-0.5,0.3-0.9,0.8-1.3,1.2c-0.4,0.5-0.8,0.9-1.1,1.3c-0.3,0.5-0.7,1-1,1.5c-0.3,0.5-0.7,1-0.9,1.5c-0.3,0.6-0.5,1.1-0.7,1.7
		c-0.2,0.5-0.4,1.1-0.6,1.7c-0.1,0.5-0.3,1.1-0.3,1.6c0,0.1-0.1,0.1-0.1,0.2c-0.1,0.6-0.1,1.4-0.2,1.8C0.1,84.3,0,84.7,0,85.2
		c0,0.3,0,0.6,0.1,0.9c0.1,0.5,0.1,0.9,0.3,1.3c0.1,0.4,0.3,0.8,0.5,1.2c0,0.1,0,0.1,0,0.1c0.2,0.4,0.5,0.8,0.7,1.2
		c0.3,0.4,0.5,0.8,0.9,1.2c0.3,0.3,0.7,0.7,1.1,1.1c0.4,0.4,0.8,0.7,1.3,1.1c1.6,1.4,2,1.9,4,2.9c0.3,0.2,0.7,0.3,1.1,0.5
		c0.1,0,0.1,0.1,0.2,0.1c0,0.1,0,0.2,0.1,0.3c0.1,0.5,0.2,1.1,0.3,1.6c0.1,0.6,0.3,1.1,0.5,1.6c0.2,0.4,0.3,0.8,0.5,1.2
		c0.1,0.1,0.1,0.3,0.2,0.3c0.3,0.5,0.5,1,0.8,1.5c0.3,0.5,0.7,0.9,1,1.4c0.3,0.4,0.7,0.9,1.1,1.3c0.4,0.4,0.8,0.7,1.3,1.1
		c0,0,0.1,0.1,0.1,0.1c0.4,0.3,0.8,0.7,1.2,0.9c0.5,0.3,0.9,0.6,1.5,0.9c0.5,0.3,1,0.5,1.5,0.7c0.4,0.2,0.9,0.3,1.3,0.5
		c0.1,0.1,0.1,0.1,0.3,0.1c0.3,0.1,0.6,0.1,0.9,0.2c-0.2,3.6-0.3,6.9,0.3,8.1c0.6,1.3,3.5-2.7,6.4-7.3c-0.4,4.6-0.7,9.9,0,11.5
		c0.7,1.7,4.7-3.5,8.1-9.2c46.9-10.8,89.6,21.6,94.1,67.3c-0.9-7.1-9.7-11.1-13.7-10.1c-2,4.9-5.4,11.2-10.8,15.1
		c0.5-4.4,0.3-8.9-0.7-13.2c-1.5,6.1-4.3,11.8-8.2,16.7c-6.3,0.5-12.6-2.6-15.9-7.1c-0.3-0.2-0.3-0.6-0.5-0.9
		c-0.2-0.5-0.4-0.9-0.5-1.4c-0.2-0.5-0.3-0.9-0.4-1.4c-0.1-0.5-0.1-0.9-0.1-1.5c0-0.3,0-0.7,0-1c0.1-0.5,0.2-0.9,0.3-1.4
		c0.1-0.5,0.3-0.9,0.5-1.4c0.3-0.5,0.5-0.9,0.8-1.4c1.1-3.2,1.1-5.8-0.9-7.3c-0.4-0.3-0.8-0.5-1.3-0.7c-0.3-0.1-0.6-0.2-0.9-0.3
		c-0.2-0.1-0.3-0.1-0.5-0.2c-0.5-0.1-0.9-0.3-1.4-0.3c-0.5-0.1-0.9-0.2-1.4-0.2c-0.5-0.1-1-0.1-1.5-0.1c-0.3,0-0.7,0.1-1,0.1
		c-0.5,0-1,0.1-1.5,0.2c-0.5,0.1-0.9,0.1-1.4,0.3c-0.5,0.1-0.9,0.3-1.4,0.5c-0.5,0.2-0.9,0.4-1.3,0.6c-0.4,0.2-0.8,0.5-1.3,0.7
		c-15.4,10-6.2,33.6,4.3,40.4c-4,0.7-8,1.6-9.1,2.4c-0.1,0.1-0.1,0.1-0.1,0.1c2.8,1.7,5.8,3.2,8.9,4.4c4.2,1.4,8.7,2.6,10.7,3.2v0.1
		c5.5,1.1,11,1.5,16.7,1.2c29.3-2,53.3-24.3,57.7-53.7c0.1,0.6,0.3,1.1,0.4,1.7c0.2,1.2,0.5,2.4,0.6,3.7c0,0,0,0,0,0.1
		c0.1,0.6,0.2,1.2,0.3,1.7c0,0.1,0,0.2,0,0.3c0.1,0.6,0.1,1.2,0.1,1.7c0.1,0.7,0.1,1.5,0.1,2.2c0,0.3,0,0.7,0,1.1
		c0,0.3,0.1,0.7,0.1,1.1c0,0.4-0.1,0.8-0.1,1.2c0,0.3,0,0.7,0,0.9c0,0.5-0.1,0.9-0.1,1.3c0,0.3,0,0.5-0.1,0.9c0,0.5-0.1,0.9-0.1,1.5
		c-0.1,0.2-0.1,0.4-0.1,0.6c-0.1,0.5-0.1,1-0.2,1.5c0,0.2,0,0.4-0.1,0.6c-0.1,0.7-0.2,1.3-0.3,1.9v0.1v0.1c-0.1,0.6-0.3,1.3-0.4,1.9
		c0,0.1,0,0.1,0,0.2c-0.1,0.6-0.3,1.2-0.4,1.8c0,0.1-0.1,0.2-0.1,0.3c-0.1,0.6-0.3,1.2-0.5,1.8c0,0.1,0,0.1,0,0.2
		c-0.2,0.7-0.4,1.3-0.5,1.9c-0.1,0.1-0.1,0.1-0.1,0.1c-0.2,0.7-0.4,1.3-0.6,2c-0.3,0.7-0.5,1.3-0.7,1.9c-0.3,0.7-0.5,1.3-0.7,1.9
		c-0.3,0.7-0.5,1.3-0.8,1.9h-0.1c-0.3,0.6-0.5,1.3-0.9,1.9l0,0l0,0c-0.1,0.2-0.1,0.3-0.2,0.5c-0.1,0.1-0.1,0.1-0.1,0.2
		c-4.3,8.7-10.6,16.3-18.6,22.2c-0.5,0.3-1.1,0.7-1.6,1.1l0,0c-0.1,0.1-0.3,0.2-0.5,0.3c-0.5,0.3-0.9,0.7-1.5,1l0.2,0.4h0.1
		c0.9-0.1,1.9-0.3,2.8-0.4h0.1c1.7-0.3,3.4-0.6,5.2-0.9c0.5-0.1,1-0.2,1.5-0.3c0.3-0.1,0.6-0.1,0.9-0.2c0.5-0.1,0.9-0.2,1.4-0.3
		c0.4-0.1,0.8-0.2,1.2-0.3c6.6-1.6,13-3.8,19.2-6.3c-10.5,14.3-24.6,25.9-41.1,33.5c7.6-0.5,15.2-1.8,22.5-3.9
		c26.6-7.9,49.1-25.8,62.5-49.9c-2.7,15.3-8.8,29.8-17.8,42.5c6.4-4.2,12.3-9.1,17.7-14.7c14.8-15.5,24.5-35.1,27.8-56.2
		c2.2,10.4,2.9,21.2,1.9,31.9c47.7-66.6,4-135.6-14.3-153.8c-0.1-0.1-0.1-0.2-0.1-0.3c-0.1,0.1-0.1,0.1-0.1,0.1c0-0.1,0-0.1-0.1-0.1
		c0,0.8-0.1,1.6-0.1,2.4c-0.2,1.5-0.4,3-0.7,4.4c-0.3,1.5-0.7,2.9-1.1,4.4c-0.5,1.4-1,2.8-1.6,4.2c-0.6,1.3-1.3,2.7-2,4
		c-0.7,1.3-1.5,2.6-2.4,3.8c-0.9,1.3-1.8,2.4-2.7,3.6c-1,1.2-2,2.2-3.1,3.3c-0.7,0.6-1.3,1.1-1.9,1.7c-0.5,0.5-1,0.9-1.5,1.3
		c-1.2,0.9-2.4,1.8-3.7,2.6c-1.3,0.8-2.6,1.6-3.9,2.2c-1.4,0.7-2.8,1.3-4.2,1.9c-1.4,0.5-2.8,1-4.3,1.4c-1.5,0.4-3,0.7-4.4,1
		c-1.5,0.3-3,0.4-4.5,0.5c-1.1,0.1-2.1,0.1-3.2,0.1c-1.5,0-3-0.1-4.5-0.3c-1.5-0.1-3-0.3-4.5-0.7c-1.5-0.3-3-0.7-4.4-1.1H161
		c1.5-0.1,2.9-0.3,4.4-0.5c1.5-0.3,3-0.6,4.4-1c1.5-0.4,2.9-0.9,4.3-1.4c1.5-0.5,2.8-1.2,4.2-1.9c1.4-0.7,2.6-1.4,4-2.2
		c1.3-0.9,2.5-1.7,3.7-2.6c1.2-0.9,2.3-1.9,3.4-3c1.1-1,2.1-2.1,3.1-3.2c1-1.2,1.9-2.4,2.8-3.6c0.1-0.2,0.3-0.5,0.4-0.7
		c0.7-1.1,1.3-2.1,1.9-3.2c0.7-1.3,1.4-2.6,2-4c0.6-1.4,1.1-2.8,1.6-4.2c0.5-1.4,0.8-2.8,1.1-4.3c0.3-1.5,0.5-3,0.7-4.4
		c0.1-1.5,0.3-3,0.3-4.5c0-1.1-0.1-2.1-0.1-3.2c-0.1-1.5-0.3-3-0.5-4.4c-0.3-1.5-0.6-3-1-4.4c-0.5-1.4-0.9-2.8-1.5-4.2
		c-0.5-1.4-1.2-2.8-1.9-4.1c-0.7-1.3-1.5-2.6-2.2-3.9c-0.9-1.3-1.7-2.4-2.6-3.6c-1-1.1-2-2.2-3-3.4c-0.5-0.5-1.1-1.1-1.7-1.7
		c-3-2.3-6.1-4.5-9.2-6.5c-0.5-0.3-0.9-0.5-1.3-0.7C175.9,5.2,173.8,4.4,171.8,3.8L171.8,3.8z"/>
</g>
</svg>
