<?xml version="1.0" encoding="utf-8"?>
<!-- Generator: Adobe Illustrator 25.3.0, SVG Export Plug-In . SVG Version: 6.00 Build 0)  -->
<svg version="1.1" id="Layer_1" xmlns="http://www.w3.org/2000/svg" xmlns:xlink="http://www.w3.org/1999/xlink" x="0px" y="0px"
	 viewBox="0 0 256 256" style="enable-background:new 0 0 256 256;" xml:space="preserve">
<g>
	<path d="M185.5,88.8L185.5,88.8l-0.2-0.1c-0.2-0.2-0.2-0.4-0.2-0.6l5.2-31.6l24.2,24.2l-25.2,10.7l-0.2,0H189l-0.1-0.1
		C187.9,90.3,186.8,89.5,185.5,88.8z"/>
	<path d="M220.7,86.9l25.9,25.9c5.4,5.4,8.1,8.1,9.1,11.2c0.1,0.5,0.3,0.9,0.4,1.4l-61.9-26.2l-0.1,0c-0.2-0.1-0.5-0.2-0.5-0.5
		c0-0.3,0.3-0.4,0.5-0.5l0.1,0L220.7,86.9z"/>
	<path d="M254.9,133.7c-1.3,2.5-3.9,5.1-8.4,9.5l-29.2,29.2l-37.8-7.9l-0.2,0c-0.3-0.1-0.7-0.1-0.7-0.4c-0.3-3.1-1.9-6-4.4-8
		c-0.2-0.2-0.1-0.4-0.1-0.6l0-0.1l7.1-43.6l0-0.1c0-0.3,0.1-0.7,0.4-0.7c3.1-0.4,5.9-2,7.8-4.4l0.2-0.2c0.2-0.1,0.5,0,0.7,0.1
		L254.9,133.7L254.9,133.7z"/>
	<path d="M210.7,179.1l-48,48l8.2-50.5l0-0.1l0-0.2c0.1-0.2,0.2-0.2,0.4-0.3l0.1,0c1.8-0.8,3.4-2,4.6-3.5c0.2-0.2,0.4-0.4,0.6-0.4
		h0.2L210.7,179.1L210.7,179.1z"/>
	<path d="M152.5,237.2l-5.4,5.4l-59.9-86.4l-0.1-0.1c-0.1-0.1-0.2-0.3-0.2-0.4c0-0.1,0.1-0.2,0.1-0.3l0.1-0.1
		c0.2-0.3,0.3-0.5,0.5-0.8l0.1-0.2l0,0c0.1-0.2,0.2-0.3,0.3-0.4c0.1-0.1,0.3,0,0.5,0l66.3,13.7c0.2,0,0.4,0.1,0.5,0.2
		c0.1,0.1,0.1,0.2,0.1,0.3c0.9,3.5,3.5,6.4,6.9,7.8c0.2,0.1,0.1,0.3,0,0.5c0,0.1-0.1,0.2-0.1,0.3
		C161.6,181.8,154.4,225.4,152.5,237.2z"/>
	<path d="M141.2,248.5c-4,3.9-6.3,6-9,6.9c-2.6,0.8-5.4,0.8-8.1,0c-3.1-1-5.8-3.7-11.2-9.1l-60.1-60L68.5,162
		c0.1-0.1,0.1-0.2,0.3-0.3c0.2-0.1,0.4-0.1,0.6,0c3.6,1.1,7.5,0.9,10.9-0.6c0.2-0.1,0.4-0.1,0.5,0l0.2,0.2L141.2,248.5L141.2,248.5z
		"/>
	<path d="M47,180.5l-13.8-13.8l27.2-11.6l0.2,0c0.2,0,0.4,0.2,0.5,0.4c0.3,0.4,0.6,0.8,0.9,1.2l0.1,0.1c0.1,0.1,0,0.2-0.1,0.3
		L47,180.5L47,180.5z"/>
	<path d="M27.1,160.6L9.7,143.2c-3-3-5.1-5.1-6.6-7l53,11l0.2,0c0.3,0.1,0.7,0.1,0.7,0.4c0,0.3-0.4,0.5-0.7,0.6l-0.2,0.1L27.1,160.6
		z"/>
	<path d="M0,127.3c0.1-1.1,0.3-2.2,0.6-3.3c1-3.1,3.7-5.8,9.1-11.2L32,90.5c10.3,14.9,20.6,29.8,30.9,44.6c0.2,0.2,0.4,0.5,0.2,0.7
		c-1,1.1-2,2.2-2.6,3.5c-0.1,0.2-0.2,0.3-0.3,0.4c-0.1,0.1-0.2,0-0.3,0h0L0,127.3L0,127.3z"/>
	<path d="M38,84.5l30-30c2.8,1.2,13.1,5.6,22.3,9.4c7,2.9,13.3,5.6,15.3,6.5c0.2,0.1,0.4,0.2,0.5,0.4c0.1,0.1,0,0.3,0,0.4
		c-1,4.4,0.3,9,3.5,12.2c0.2,0.2,0,0.5-0.2,0.7l-0.1,0.1l-30.5,47.2c-0.1,0.1-0.2,0.2-0.3,0.3c-0.2,0.1-0.4,0.1-0.6,0
		c-1.2-0.3-2.4-0.5-3.6-0.5c-1.1,0-2.3,0.2-3.5,0.4h0c-0.1,0-0.3,0-0.4,0c-0.1-0.1-0.2-0.2-0.3-0.3L38,84.5z"/>
	<path d="M74,48.5l38.9-38.8c5.4-5.4,8.1-8.1,11.2-9c2.6-0.8,5.4-0.8,8.1,0c3.1,1,5.8,3.7,11.2,9l8.4,8.4l-27.6,42.8
		c-0.1,0.1-0.2,0.2-0.3,0.3c-0.2,0.1-0.4,0.1-0.6,0c-4.4-1.3-9.2-0.4-12.8,2.5c-0.2,0.2-0.4,0.1-0.7,0C106.1,62,78.1,50.2,74,48.5z"
		/>
	<path d="M157.6,23.9l25.5,25.5l-6.1,38v0.1l-0.1,0.3c-0.1,0.1-0.2,0.2-0.3,0.2c-1.3,0.4-2.6,1-3.7,1.8l-0.1,0.1
		c-0.1,0.1-0.1,0.2-0.3,0.2c-0.1,0-0.2,0-0.3,0l-38.9-16.5l-0.1,0c-0.2-0.1-0.5-0.2-0.5-0.5c-0.2-2.2-0.9-4.3-2.1-6.1
		c-0.2-0.3-0.4-0.6-0.2-0.9L157.6,23.9z"/>
	<path d="M131.4,81.4l36.5,15.4c0.2,0.1,0.4,0.2,0.5,0.4c0,0.1,0,0.3,0,0.4c-0.1,0.5-0.2,1.1-0.2,1.8v1c0,0.3-0.3,0.4-0.5,0.5
		l-0.1,0c-5.8,2.5-81.1,34.5-81.2,34.5c-0.1,0-0.2,0-0.3-0.1c-0.2-0.2,0-0.5,0.2-0.7l0.1-0.1l30-46.3l0.1-0.1
		c0.2-0.3,0.4-0.6,0.7-0.6l0.3,0c0.7,0.1,1.3,0.2,1.9,0.2c4.5,0,8.8-2.2,11.3-6c0.1-0.1,0.1-0.2,0.2-0.3
		C130.9,81.2,131.1,81.3,131.4,81.4z"/>
	<path d="M89.6,142.7l82.1-35c0,0,0.1,0,0.2,0.1c0.4,0.4,0.8,0.7,1.2,1l0.2,0.1c0.2,0.1,0.3,0.2,0.3,0.4l0,0.2l-7,43.1l0,0.2
		c0,0.3-0.1,0.7-0.4,0.7c-3.8,0.3-7.2,2.4-9.2,5.7l0,0.1c-0.1,0.2-0.2,0.3-0.3,0.4c-0.1,0.1-0.3,0-0.5,0l-65.5-13.5L89.6,142.7z"/>
</g>
</svg>
