<?xml version="1.0" encoding="utf-8"?>
<!-- Generator: Adobe Illustrator 25.3.0, SVG Export Plug-In . SVG Version: 6.00 Build 0)  -->
<svg version="1.1" id="Layer_1" xmlns="http://www.w3.org/2000/svg" xmlns:xlink="http://www.w3.org/1999/xlink" x="0px" y="0px"
	 viewBox="0 0 182 47" style="enable-background:new 0 0 182 47;" xml:space="preserve">
<desc>Created with Sketch.</desc>
<g id="Page-1_1_">
	<g id="netlify-cms-logo">
		<g id="Page-1" transform="translate(0.037816, 0.193617)">
			<path id="Fill-1" d="M10.7,26.5C10.7,26.6,10.7,26.6,10.7,26.5l-5.4,2.4h0c0,0,0,0,0,0l-4.3-4.3c0,0,0-0.1,0-0.1c0,0,0,0,0.1,0h0
				L10.7,26.5C10.7,26.5,10.7,26.5,10.7,26.5z M11.2,25.2C11.2,25.2,11.2,25.2,11.2,25.2L0.1,22.8c0,0-0.1,0-0.1,0s0,0,0-0.1
				l6.2-6.2c0,0,0,0,0,0c0,0,0,0,0.1,0c0,0,5.3,7.8,5.4,7.8c0,0,0,0.1,0,0.1C11.6,24.7,11.4,24.9,11.2,25.2
				C11.3,25.2,11.2,25.2,11.2,25.2z M13.5,9.5C13.5,9.4,13.5,9.4,13.5,9.5c0-0.1,0-0.1,0-0.1L22.9,0c0,0,0,0,0,0s0,0,0,0l4,4
				c0,0,0,0.1,0,0.1l-4.9,7.6c0,0,0,0-0.1,0h0c-0.3-0.1-0.5-0.1-0.8-0.1c-0.5,0-1.1,0.2-1.5,0.5c0,0,0,0,0,0h0
				C19.5,12,13.5,9.5,13.5,9.5z M13,23.8l-5.6-8.2c0,0,0-0.1,0-0.1l5-5c0,0,0,0,0,0h0c0,0,5.9,2.5,6.6,2.8c0,0,0,0,0,0.1
				c0,0.2-0.1,0.4-0.1,0.5c0,0.6,0.2,1.2,0.7,1.6c0,0,0,0.1,0,0.1l-5.3,8.2c0,0,0,0-0.1,0h0c-0.2-0.1-0.5-0.1-0.7-0.1
				C13.5,23.7,13.3,23.8,13,23.8L13,23.8C13,23.8,13,23.8,13,23.8z M14.8,28.9L25.3,44c0,0,0,0.1,0,0.1L23,46.4c0,0,0,0,0,0
				c0,0,0,0,0,0L9.8,33.5c0,0,0-0.1,0-0.1l0,0l2.8-4.4c0,0,0,0,0.1,0h0c0.3,0.1,0.6,0.1,0.9,0.1C14,29.1,14.4,29,14.8,28.9
				L14.8,28.9C14.8,28.8,14.8,28.8,14.8,28.9z M11.6,28.1C11.6,28.1,11.6,28.1,11.6,28.1l-2.7,4.2c0,0,0,0-0.1,0c0,0,0,0,0,0L6.4,30
				c0,0,0,0,0-0.1c0,0,0,0,0,0l4.9-2.1h0c0,0,0,0,0.1,0C11.5,27.9,11.5,28,11.6,28.1z M16.3,26.2c0-0.2,0-0.3-0.1-0.4
				c0,0,0-0.1,0-0.1l14-6h0c0,0,0,0,0,0c0.1,0.1,0.2,0.2,0.3,0.2c0,0,0,0,0,0.1l-1.2,7.5c0,0,0,0.1-0.1,0.1c-0.7,0-1.3,0.4-1.6,1
				c0,0,0,0-0.1,0h0L16.3,26.2C16.3,26.3,16.3,26.2,16.3,26.2z M28.8,31.4C28.8,31.4,28.8,31.4,28.8,31.4l-1.8,11c0,0,0,0,0,0
				L26.3,43c0,0,0,0,0,0c0,0,0,0,0,0L15.9,28c0,0,0-0.1,0-0.1c0.1-0.1,0.1-0.2,0.2-0.3c0,0,0,0,0.1,0h0L27.5,30c0,0,0.1,0,0.1,0.1
				C27.7,30.6,28.2,31.1,28.8,31.4z M37.4,32C37.4,32,37.4,32,37.4,32c0,0.1,0,0.1,0,0.1l-8.6,8.5c0,0,0,0,0,0h0c0,0,0,0,0-0.1
				l1.5-9.1c0,0,0-0.1,0-0.1c0.4-0.1,0.7-0.4,0.9-0.7c0,0,0,0,0.1,0h0L37.4,32z M29.7,17.8C29.8,17.8,29.8,17.9,29.7,17.8
				c0,0.2,0,0.3,0,0.4v0.1v0.1c0,0,0,0,0,0.1l-13.9,6h0c0,0,0,0-0.1,0c0,0,0-0.1,0-0.1l5.2-8.1c0,0,0,0,0.1,0h0c0.1,0,0.3,0,0.4,0
				c0.8,0,1.5-0.4,2-1.1c0,0,0,0,0.1,0h0L29.7,17.8z M45.1,24.3C45.1,24.4,45.1,24.4,45.1,24.3c0,0.1,0,0.1,0,0.1l-6.4,6.4
				c0,0,0,0,0,0h0l-7-1.5c0,0-0.1,0-0.1-0.1c-0.1-0.5-0.3-1-0.7-1.4c0,0,0,0,0-0.1l1.2-7.6c0,0,0-0.1,0.1-0.1c0.6-0.1,1-0.4,1.3-0.8
				c0,0,0,0,0.1,0h0L45.1,24.3z M46.3,23.2C46.4,23.2,46.4,23.3,46.3,23.2l0,0.1c0,0,0,0,0,0h0l-12.1-5.1c0,0,0,0,0-0.1
				c0,0,0,0,0-0.1L39,16h0c0,0,0,0,0,0L46.3,23.2z M23.3,12.6C23.3,12.6,23.3,12.6,23.3,12.6L28,5.1c0,0,0,0,0,0s0,0,0,0l4.2,4.2
				c0,0,0,0,0,0.1l-1.1,6.9c0,0,0,0.1,0,0.1c-0.3,0.1-0.5,0.2-0.7,0.4c0,0,0,0,0,0h0l-6.7-2.9c0,0,0,0,0-0.1
				C23.6,13.3,23.5,12.9,23.3,12.6z M32.7,16.4C32.7,16.4,32.7,16.4,32.7,16.4l0.9-5.7c0,0,0-0.1,0-0.1h0c0,0,0,0,0,0l4.2,4.2
				c0,0,0,0,0,0.1c0,0,0,0,0,0.1l-4.5,1.9h0c0,0,0,0,0,0C33.1,16.7,32.9,16.5,32.7,16.4z"/>
			<path id="Fill-3" d="M102.4,14.2h3.2v-2.8h-3.2V14.2z M111.7,12.7c-0.9,0.9-1.3,2.1-1.3,3.7v1.3h-2.1v2.4h2.1V32h3.2V20.1h2.9
				v-2.4h-2.9v-1.3c0-1.6,0.7-2.4,2.3-2.4c0.5,0,0.9,0,1.2,0.1l0.1-2.5c-0.6-0.2-1.2-0.2-1.8-0.2C113.8,11.4,112.6,11.8,111.7,12.7z
				 M123.4,27.4l-3-9.7H117l4.9,14.3l-0.5,1.2c-0.2,0.7-0.6,1.2-1,1.5c-0.4,0.3-1,0.4-1.8,0.4l-0.6,0v2.5c0.6,0.2,1.1,0.2,1.5,0.2
				c2.1,0,3.5-1.2,4.4-3.6l5.6-16.5h-3.4L123.4,27.4z M102.4,32h3.2V17.7h-3.2V32z M88.8,29.2c-0.2-0.2-0.3-0.6-0.3-1.2v-8H91v-2.4
				h-2.5v-3.5h-3.2v3.5H83V20h2.3v8.1c0,2.7,1.2,4.1,3.6,4.1c0.7,0,1.4-0.1,2.1-0.3v-2.5c-0.4,0.1-0.7,0.1-1.1,0.1
				C89.4,29.6,89,29.5,88.8,29.2z M78.5,23.5h-6c0.1-1.1,0.5-2,1-2.6c0.5-0.6,1.2-0.9,2.1-0.9c0.9,0,1.6,0.3,2.1,0.8
				c0.5,0.5,0.8,1.4,0.8,2.4L78.5,23.5L78.5,23.5z M75.7,17.4c-1.2,0-2.3,0.3-3.3,0.9c-1,0.6-1.7,1.5-2.3,2.6
				c-0.5,1.1-0.8,2.4-0.8,3.8v0.4c0,2.1,0.6,3.8,1.9,5.1c1.2,1.3,2.9,1.9,4.9,1.9c1.2,0,2.2-0.2,3.2-0.7c0.9-0.5,1.7-1.1,2.2-2
				l-1.7-1.7c-0.9,1.2-2.1,1.8-3.5,1.8c-1,0-1.9-0.4-2.6-1C73,28,72.6,27,72.5,25.9h9.2v-1.3c0-2.3-0.5-4-1.6-5.3
				C79,18,77.6,17.4,75.7,17.4z M62,17.4c-1.7,0-3.1,0.6-4.1,1.9l-0.1-1.7h-3V32H58V21.8c0.6-1.2,1.6-1.8,2.8-1.8
				c0.9,0,1.5,0.2,1.9,0.7c0.4,0.4,0.6,1.1,0.6,2V32h3.2v-9.5C66.4,19.1,65,17.4,62,17.4z M94.3,32h3.2V11.7h-3.2V32z"/>
		</g>
		<path id="cms" d="M139.3,29.7c0.8,0,1.5-0.2,2-0.7c0.5-0.5,0.8-1,0.8-1.7h3c0,0.9-0.3,1.7-0.8,2.5c-0.5,0.8-1.2,1.4-2.1,1.8
			c-0.9,0.5-1.9,0.7-2.9,0.7c-2,0-3.6-0.6-4.8-1.9s-1.8-3.1-1.8-5.4v-0.3c0-2.2,0.6-3.9,1.7-5.2s2.8-2,4.8-2c1.7,0,3.1,0.5,4.2,1.5
			c1.1,1,1.6,2.3,1.7,3.9h-3c0-0.8-0.3-1.5-0.8-2c-0.5-0.5-1.2-0.8-2-0.8c-1,0-1.8,0.4-2.4,1.1S136,23,136,24.5V25
			c0,1.6,0.3,2.7,0.8,3.5C137.4,29.3,138.2,29.7,139.3,29.7z M150.4,17.6l0.1,1.5c1-1.2,2.4-1.8,4.1-1.8c1.9,0,3.2,0.7,3.9,2.2
			c1-1.5,2.5-2.2,4.4-2.2c1.6,0,2.8,0.4,3.5,1.3c0.8,0.9,1.2,2.2,1.2,3.9V32h-3.2v-9.3c0-0.9-0.2-1.6-0.6-2c-0.4-0.4-1.1-0.6-2-0.6
			c-0.7,0-1.3,0.2-1.8,0.6c-0.5,0.4-0.8,0.9-1,1.5l0,9.8h-3.2v-9.4c0-1.7-0.9-2.5-2.6-2.5c-1.3,0-2.2,0.5-2.7,1.6V32h-3.2V17.6
			H150.4z M178.7,28.1c0-0.6-0.2-1-0.7-1.3c-0.5-0.3-1.3-0.6-2.3-0.8c-1.1-0.2-2-0.5-2.7-0.9c-1.6-0.8-2.4-1.9-2.4-3.4
			c0-1.2,0.5-2.3,1.6-3.1s2.4-1.2,4-1.2c1.7,0,3.1,0.4,4.1,1.3c1.1,0.8,1.6,1.9,1.6,3.3h-3.2c0-0.6-0.2-1.1-0.7-1.5
			c-0.5-0.4-1.1-0.6-1.8-0.6c-0.7,0-1.3,0.2-1.7,0.5c-0.4,0.3-0.7,0.8-0.7,1.3c0,0.5,0.2,0.9,0.6,1.2c0.4,0.3,1.3,0.5,2.5,0.8
			c1.3,0.3,2.3,0.6,3,1s1.3,0.8,1.6,1.4s0.5,1.2,0.5,2c0,1.3-0.5,2.3-1.6,3.1c-1.1,0.8-2.5,1.2-4.2,1.2c-1.2,0-2.2-0.2-3.1-0.6
			c-0.9-0.4-1.6-1-2.1-1.7s-0.8-1.5-0.8-2.4h3.1c0,0.8,0.3,1.3,0.9,1.8c0.5,0.4,1.2,0.6,2.1,0.6c0.8,0,1.5-0.2,1.9-0.5
			C178.5,29,178.7,28.6,178.7,28.1z"/>
	</g>
</g>
</svg>
