<?xml version="1.0" encoding="utf-8"?>
<!-- Generator: Adobe Illustrator 25.3.0, SVG Export Plug-In . SVG Version: 6.00 Build 0)  -->
<svg version="1.1" id="Layer_1" xmlns="http://www.w3.org/2000/svg" xmlns:xlink="http://www.w3.org/1999/xlink" x="0px" y="0px"
	 viewBox="0 0 512 314" style="enable-background:new 0 0 512 314;" xml:space="preserve">
<g>
	<path d="M253.1,313.1c-1.7,0-3.4-0.5-4.9-1.3l-15.4-9.1c-2.3-1.3-1.2-1.7-0.5-2c3.1-1,3.7-1.3,6.9-3.1c0.3-0.2,0.8-0.1,1.2,0.1
		l11.8,7.1c0.5,0.2,1,0.2,1.4,0l46.1-26.7c0.5-0.2,0.7-0.7,0.7-1.3v-53.3c0-0.6-0.2-1-0.7-1.3l-46.1-26.6c-0.5-0.2-1-0.2-1.4,0
		l-46.1,26.6c-0.5,0.2-0.7,0.8-0.7,1.3v53.3c0,0.5,0.2,1,0.7,1.3l12.6,7.3c6.8,3.5,11.1-0.6,11.1-4.6v-52.6c0-0.7,0.6-1.4,1.4-1.4
		h5.9c0.7,0,1.4,0.6,1.4,1.4v52.6c0,9.1-5,14.4-13.6,14.4c-2.7,0-4.7,0-10.6-2.9l-12.1-6.9c-3-1.7-4.9-5-4.9-8.4v-53.3
		c0-3.5,1.8-6.7,4.9-8.4l46.1-26.7c2.9-1.6,6.8-1.6,9.7,0l46.1,26.7c3,1.7,4.9,5,4.9,8.4V277c0,3.5-1.8,6.7-4.9,8.4L258,312.1
		C256.5,312.7,254.7,313.1,253.1,313.1z M267.3,276.5c-20.2,0-24.4-9.2-24.4-17.1c0-0.7,0.6-1.4,1.4-1.4h6c0.7,0,1.3,0.5,1.3,1.2
		c0.9,6.1,3.6,9.1,15.8,9.1c9.7,0,13.9-2.2,13.9-7.4c0-3-1.2-5.2-16.3-6.7c-12.6-1.3-20.5-4-20.5-14.1c0-9.4,7.9-14.9,21-14.9
		c14.8,0,22.1,5.1,23,16.2c0,0.3-0.1,0.7-0.3,1c-0.2,0.2-0.6,0.5-0.9,0.5h-6c-0.6,0-1.2-0.5-1.3-1c-1.4-6.4-5-8.4-14.4-8.4
		c-10.6,0-11.9,3.7-11.9,6.5c0,3.4,1.5,4.4,15.8,6.2c14.2,1.8,20.9,4.5,20.9,14.4C290.3,270.7,282,276.5,267.3,276.5z"/>
	<path d="M110,104.7c0-2.1-1.2-4-3-5.1L58,71.4c-0.8-0.5-1.7-0.7-2.7-0.8h-0.5c-0.9,0-1.8,0.3-2.7,0.8l-49,28.2c-1.8,1-3,3-3,5.1
		l0.1,75.8c0,1,0.6,2.1,1.5,2.5c0.9,0.6,2.1,0.6,2.9,0l29.1-16.6c1.8-1,3-3,3-5.1v-35.5c0-2.1,1.2-4,3-5.1l12.4-7.2
		c0.9-0.6,2-0.8,3-0.8s2.1,0.2,2.9,0.8l12.4,7.2c1.8,1,3,3,3,5.1v35.5c0,2.1,1.2,4,3,5.1l29.1,16.6c0.9,0.6,2.1,0.6,3,0
		c0.9-0.5,1.5-1.5,1.5-2.5V104.7L110,104.7z"/>
	<path d="M345.6,0.3c-0.9-0.5-2.1-0.5-2.9,0c-0.9,0.6-1.5,1.5-1.5,2.5V78c0,0.7-0.3,1.4-1,1.8c-0.7,0.3-1.4,0.3-2.1,0l-12.3-7.1
		c-1.8-1-4-1-5.9,0l-49,28.3c-1.8,1-3,3-3,5.1v56.5c0,2.1,1.2,4,3,5.1l49,28.3c1.8,1,4,1,5.9,0l49-28.3c1.8-1,3-3,3-5.1V21.8
		c0-2.2-1.2-4.2-3-5.2L345.6,0.3L345.6,0.3z M341.1,144.1c0,0.6-0.2,1-0.7,1.3l-16.8,9.7c-0.5,0.2-1,0.2-1.5,0l-16.8-9.7
		c-0.5-0.2-0.7-0.8-0.7-1.3v-19.4c0-0.6,0.2-1,0.7-1.3l16.8-9.7c0.5-0.2,1-0.2,1.5,0l16.8,9.7c0.5,0.2,0.7,0.8,0.7,1.3V144.1
		L341.1,144.1z"/>
	<g transform="translate(401.047404, 70.501129)">
		<path d="M107.6,53.7c1.8-1,2.9-3,2.9-5.1V34.9c0-2.1-1.2-4-2.9-5.1L58.9,1.6c-1.8-1-4-1-5.9,0L4,29.9c-1.8,1-3,3-3,5.1v56.5
			c0,2.1,1.2,4,3,5.1l48.7,27.7c1.8,1,4,1,5.8,0L88,107.9c0.9-0.5,1.5-1.5,1.5-2.5s-0.6-2.1-1.5-2.5L38.7,74.5
			C37.8,74,37.2,73,37.2,72V54.3c0-1,0.6-2.1,1.5-2.5L54.1,43c0.9-0.6,2.1-0.6,3,0l15.4,8.8c0.9,0.6,1.5,1.5,1.5,2.5v13.9
			c0,1,0.6,2.1,1.5,2.5c0.9,0.6,2.1,0.6,3,0L107.6,53.7L107.6,53.7z"/>
		<path d="M55.2,51.1c0.3-0.2,0.8-0.2,1.2,0l9.4,5.4c0.3,0.2,0.6,0.6,0.6,1v10.9c0,0.5-0.2,0.8-0.6,1l-9.4,5.4
			c-0.3,0.2-0.8,0.2-1.2,0l-9.4-5.4c-0.3-0.2-0.6-0.6-0.6-1V57.6c0-0.5,0.2-0.8,0.6-1L55.2,51.1L55.2,51.1z"/>
	</g>
	<g>
		<polygon points="189.7,74.8 155.1,135.2 188.8,194 223.4,133.7 		"/>
		<path d="M225.7,129.7l16.2-28.2c-0.4-0.4-0.8-0.7-1.2-1l-47.3-27.3L225.7,129.7z"/>
		<polygon points="228,133.7 243.6,160.9 243.6,106.6 		"/>
		<path d="M225.7,137.7l-32.4,56.5l47.3-27.3c0.4-0.2,0.9-0.6,1.2-0.9L225.7,137.7z"/>
		<path d="M152.8,139.2l-15.7,27.4c0.1,0.1,0.2,0.2,0.4,0.3l46.6,27L152.8,139.2z"/>
		<path d="M134.6,107.4v54.4c0,0.4,0,0.7,0.1,1l15.8-27.6L134.6,107.4z"/>
		<path d="M152.8,131.2L186.7,72c-0.2,0.1-0.4,0.2-0.6,0.3l-48.6,28.1c-0.6,0.3-1.1,0.8-1.5,1.3L152.8,131.2z"/>
	</g>
</g>
</svg>
