<?xml version="1.0" encoding="utf-8"?>
<!-- Generator: Adobe Illustrator 25.3.0, SVG Export Plug-In . SVG Version: 6.00 Build 0)  -->
<svg version="1.1" id="Layer_1" xmlns="http://www.w3.org/2000/svg" xmlns:xlink="http://www.w3.org/1999/xlink" x="0px" y="0px"
	 viewBox="0 0 256 320" style="enable-background:new 0 0 256 320;" xml:space="preserve">
<g>
	<path d="M132.2,64.2c32,2.1,57.7,27.8,59.7,59.8h64.1C253.9,56.5,199.6,2.2,132.2,0.1V64.2z"/>
	<path d="M64.1,124c2-31.5,26.8-56.9,58.1-59.7V0.1C55.5,3.1,2.1,57.1,0.1,124H64.1z"/>
	<polygon points="64,134 0,134 0,320 128,320 128,256 64,256 	"/>
	<path d="M191.7,134c-3,32.5-30.4,58-63.7,58v64c68.7,0,124.7-54.1,127.9-122H191.7z"/>
</g>
</svg>
