<?xml version="1.0" encoding="utf-8"?>
<!-- Generator: Adobe Illustrator 25.2.3, SVG Export Plug-In . SVG Version: 6.00 Build 0)  -->
<svg version="1.1" id="Layer_1" xmlns="http://www.w3.org/2000/svg" xmlns:xlink="http://www.w3.org/1999/xlink" x="0px" y="0px"
	 viewBox="0 0 186.1 162" style="enable-background:new 0 0 186.1 162;" xml:space="preserve">
<g>
	<path d="M83.7,61.3c-0.1-0.2-0.1-0.4-0.1-0.5c0-5,0-9.9,0-14.9c0-3.3-1-6.1-3.3-8.5c-1-1.1-2.3-1.9-3.6-2.6
		C70.4,31,64,27.1,57.5,23.2c-1.3-0.8-2.8-1.2-4.3-1.4c-2.5-0.4-4.9,0-7.1,1.2c-1.2,0.6-2.3,1.3-3.5,2c-5.7,3.3-11.4,6.6-17,9.9
		c-3.3,1.9-5.3,4.8-6,8.6c-0.1,0.7-0.1,1.3-0.1,2c0,7.8,0,15.6,0,23.4c0,4.5,2,8,5.9,10.4c6.7,4.1,13.5,8.2,20.3,12.2
		c2.2,1.3,4.7,1.8,7.3,1.5c1.8-0.2,3.4-0.8,5-1.7c8.5-5.1,17-10.3,25.5-15.3c3.5-2.1,7.1-4,10.7-6c8.8-4.8,17.3-10,26-15
		c2.8-1.6,5.5-3.4,8.4-4.9c3.9-2,7.9-2.3,11.8,0c12.3,7.1,24.6,14.2,36.8,21.4c1.5,0.9,3,1.7,4.2,2.9c2.1,2.2,3.3,4.8,3.4,7.9
		c0,0.5,0,1,0,1.6c0,14.7,0,29.4,0,44.1c0,4.5-2,7.9-5.9,10.3c-1.6,1-3.2,1.9-4.8,2.8c-11.2,6.5-22.4,13-33.7,19.5
		c-1.2,0.7-2.5,1.2-4,1.1c-1.3-0.1-2.7-0.1-4,0c-1.4,0.1-2.6-0.3-3.7-1c-8.4-4.9-16.7-9.7-25.1-14.6c-4.5-2.6-9-5.2-13.4-7.8
		c-3.9-2.3-5.9-5.8-6-10.3c0-5.1,0-10.1,0-15.2c0-0.3,0.1-0.5,0.4-0.7c5.8-3.4,11.6-6.7,17.4-10.1c0.1-0.1,0.2-0.2,0.4-0.1
		c0,0.2,0,0.3,0,0.5c0,4.9,0,9.8,0,14.7c0,4,1.7,7.3,5,9.6c1.6,1.1,3.3,2,4.9,2.9c5.4,3.1,10.8,6.3,16.2,9.4
		c1.5,0.9,3.1,1.3,4.8,1.5c2.7,0.3,5.2-0.3,7.5-1.7c6.4-3.8,12.8-7.6,19.2-11.4c3.1-1.9,5.2-4.5,5.9-8.1c0.2-0.8,0.2-1.7,0.2-2.5
		c0-7.7,0-15.4,0-23c0-4.9-2.1-8.6-6.4-11c-6.5-3.7-13-7.6-19.6-11.3c-4-2.3-8.1-2.4-12.2-0.1c-12.8,7.4-25.7,14.9-38.5,22.4
		c-10.6,6.1-21.1,12.3-31.7,18.4c-4,2.3-8.2,2.4-12.3,0.1c-12.8-7.4-25.5-14.8-38.3-22.2C3.3,87.5,1.3,84,1.3,79.4
		c0-14.9,0-29.8,0-44.7c0-4,1.6-7.2,5-9.3c2.8-1.7,5.6-3.3,8.4-4.9C25.1,14.4,35.5,8.3,45.8,2.3c0.9-0.5,1.8-0.9,2.8-1.2
		C48.8,1,49,1,49.1,1c1.8,0,3.5,0,5.3,0c1,0,2,0.2,2.9,0.7c1.5,0.8,2.9,1.7,4.3,2.5c10.6,6.2,21.2,12.4,31.8,18.7
		c1.3,0.8,2.7,1.5,3.9,2.5c2.9,2.3,4.5,5.3,4.6,9c0.1,5.4,0,10.8,0,16.1c0,0.2-0.1,0.4-0.3,0.5c-5.9,3.4-11.8,6.8-17.7,10.2
		C83.9,61.3,83.8,61.3,83.7,61.3z"/>
</g>
</svg>
