<?xml version="1.0" encoding="utf-8"?>
<!-- Generator: Adobe Illustrator 25.3.0, SVG Export Plug-In . SVG Version: 6.00 Build 0)  -->
<svg version="1.1" id="Layer_1" xmlns="http://www.w3.org/2000/svg" xmlns:xlink="http://www.w3.org/1999/xlink" x="0px" y="0px"
	 viewBox="0 0 256 264" style="enable-background:new 0 0 256 264;" xml:space="preserve">
<style type="text/css">
	.st0{fill:#FFFFFF;}
</style>
<g>
	<path d="M255,158.1c-1.5-4.6-5.6-7.9-10.8-8.7c-2.5-0.4-5.3-0.2-8.6,0.5c-5.8,1.2-10.1,1.6-13.2,1.7c11.8-20,21.5-42.8,27-64.2
		c9-34.7,4.2-50.5-1.4-57.6c-14.8-18.9-36.4-29.1-62.5-29.4c-13.9-0.2-26.1,2.6-32.5,4.5c-5.9-1-12.3-1.6-19-1.7
		C121.6,3,110.5,5.7,101,11.3c-5.2-1.8-13.7-4.3-23.4-5.9c-22.8-3.8-41.3-0.8-54.7,8.7C6.6,25.7-0.9,45.7,0.5,73.6
		c0.4,8.9,5.4,35.9,13.2,61.5c4.5,14.7,9.3,26.9,14.2,36.3c7,13.3,14.5,21.2,23,24c4.7,1.6,13.3,2.7,22.4-4.8c1.1,1.4,2.7,2.8,4.7,4
		c2.6,1.6,5.7,3,8.9,3.7c11.3,2.8,22,2.1,31-1.8c0.1,1.6,0.1,3.2,0.1,4.5c0.1,2.2,0.1,4.3,0.2,6.2c0.5,13.4,1.4,23.8,4.1,31
		c0.1,0.4,0.3,1,0.6,1.7c1.3,4.1,3.6,11,9.3,16.4c5.9,5.6,13.1,7.3,19.7,7.3c3.3,0,6.4-0.4,9.2-1c9.8-2.1,21-5.3,29-16.8
		c7.6-10.9,11.3-27.2,12-53c0.1-0.7,0.2-1.4,0.2-2.1c0.1-0.4,0.1-0.9,0.2-1.4l1.8,0.2l0.5,0c10,0.5,22.2-1.7,29.7-5.2
		C240.5,181.7,259.5,171.6,255,158.1"/>
	<path d="M237.9,160.7c-29.7,6.1-31.8-3.9-31.8-3.9c31.4-46.6,44.5-105.7,33.2-120.2C208.4-2.9,154.9,15.8,154,16.3l-0.3,0.1
		c-5.9-1.2-12.5-1.9-19.8-2.1c-13.5-0.2-23.7,3.5-31.4,9.4c0,0-95.4-39.3-91,49.4C12.4,92,38.6,216,69.7,178.5
		c11.4-13.7,22.4-25.3,22.4-25.3c5.5,3.6,12,5.5,18.9,4.8l0.5-0.5c-0.2,1.7-0.1,3.4,0.2,5.3c-8,9-5.7,10.5-21.7,13.8
		c-16.2,3.3-6.7,9.3-0.5,10.9c7.5,1.9,25,4.6,36.8-12l-0.5,1.9c3.1,2.5,5.4,16.4,5,29c-0.4,12.6-0.6,21.2,1.9,27.9
		c2.5,6.7,4.9,21.9,26,17.4c17.6-3.8,26.8-13.6,28-29.9c0.9-11.6,2.9-9.9,3.1-20.3l1.6-4.9c1.9-15.7,0.3-20.8,11.2-18.4l2.6,0.2
		c8,0.4,18.5-1.3,24.6-4.1C243.1,168.3,250.9,158,237.9,160.7L237.9,160.7"/>
	<path class="st0" d="M108.1,81.5c-2.7-0.4-5.1,0-6.3,0.9c-0.7,0.5-0.9,1.1-1,1.5c-0.2,1.1,0.6,2.3,1.1,3c1.3,1.8,3.3,3,5.3,3.3
		c0.3,0,0.6,0.1,0.8,0.1c3.2,0,6.2-2.5,6.5-4.4C114.8,83.5,111.4,82,108.1,81.5"/>
	<path class="st0" d="M196.9,81.6L196.9,81.6c-0.3-1.8-3.5-2.4-6.6-1.9c-3.1,0.4-6.1,1.8-5.8,3.7c0.2,1.4,2.8,3.9,5.8,3.9
		c0.3,0,0.5,0,0.8-0.1c2-0.3,3.5-1.6,4.2-2.3C196.3,83.7,197,82.4,196.9,81.6"/>
	<path class="st0" d="M247.8,160c-1.1-3.4-4.8-4.5-10.8-3.3c-18,3.7-24.5,1.1-26.6-0.4c14-21.3,25.5-47.1,31.7-71.1
		c2.9-11.4,4.6-22,4.7-30.6c0.1-9.5-1.5-16.4-4.8-20.7c-13.4-17.1-33.1-26.3-56.9-26.6c-16.4-0.2-30.2,4-32.9,5.2
		c-5.6-1.4-11.8-2.3-18.5-2.4c-12.3-0.2-22.9,2.7-31.7,8.7c-3.8-1.4-13.7-4.8-25.8-6.8C55.4,8.8,38.8,11.3,27,19.7
		C12.9,29.7,6.3,47.6,7.6,72.9c0.4,8.5,5.3,34.7,12.9,59.7c10.1,33,21,51.6,32.5,55.5c1.3,0.4,2.9,0.8,4.6,0.8
		c4.2,0,9.3-1.9,14.7-8.3c8.9-10.7,17.2-19.7,20.3-22.9c4.5,2.4,9.5,3.8,14.6,3.9c0,0.1,0,0.3,0,0.4c-1,1.2-1.9,2.3-2.6,3.2
		c-3.5,4.5-4.3,5.4-15.6,7.7c-3.2,0.7-11.8,2.4-11.9,8.4c-0.1,6.6,10.1,9.3,11.3,9.6c4.1,1,8,1.5,11.7,1.5c9.1,0,17.1-3,23.5-8.8
		c-0.2,23.4,0.8,46.4,3.6,53.5c2.3,5.7,7.9,19.8,25.7,19.8c2.6,0,5.5-0.3,8.6-1c18.5-4,26.6-12.2,29.7-30.2c1.7-9.6,4.5-32.7,5.9-45
		c2.8,0.9,6.5,1.3,10.4,1.3c8.2,0,17.7-1.7,23.7-4.5C237.9,174.3,250,166.7,247.8,160L247.8,160z M203.7,76.5
		c-0.1,3.6-0.6,7-1.1,10.4c-0.6,3.7-1.2,7.6-1.3,12.2c-0.1,4.5,0.4,9.3,1,13.8c1.1,9.2,2.2,18.7-2.2,28.1c-0.7-1.2-1.3-2.5-1.9-4
		c-0.5-1.3-1.7-3.5-3.4-6.4c-6.4-11.5-21.4-38.3-13.7-49.3C183.3,78.1,189.1,74.7,203.7,76.5L203.7,76.5z M186.1,14.8
		c21.3,0.5,38.2,8.5,50.2,23.7c9.2,11.7-0.9,65-30.1,111c-0.3-0.4-0.6-0.7-0.9-1.1c-0.1-0.2-0.2-0.3-0.4-0.5
		c7.5-12.5,6.1-24.8,4.8-35.7c-0.5-4.5-1-8.7-0.9-12.7c0.1-4.2,0.7-7.8,1.2-11.3c0.7-4.3,1.3-8.8,1.2-14c0.1-0.6,0.2-1.2,0.1-2
		c-0.5-5-6.2-20.1-18-33.8c-6.4-7.5-15.8-15.8-28.6-21.5C170.1,15.6,177.6,14.6,186.1,14.8L186.1,14.8z M66.7,175.8
		c-5.9,7.1-10,5.7-11.3,5.3c-8.7-2.9-18.9-21.4-27.8-50.6C19.8,105.1,15.3,79.7,15,72.5c-1.1-22.6,4.3-38.3,16.3-46.8
		c19.4-13.8,51.3-5.5,64.1-1.3c-0.2,0.2-0.4,0.4-0.6,0.5c-21,21.2-20.5,57.5-20.5,59.8c0,0.9,0.1,2.1,0.2,3.7
		c0.4,6.1,1,17.5-0.8,30.3c-1.7,12,2,23.7,10.1,32.1c0.8,0.9,1.7,1.7,2.6,2.5C82.8,157.2,75,165.7,66.7,175.8L66.7,175.8z
		 M89.2,145.8c-6.5-6.8-9.5-16.3-8.1-26c1.9-13.6,1.2-25.4,0.8-31.8c-0.1-0.9-0.1-1.7-0.1-2.3c3.1-2.7,17.3-10.4,27.5-8
		c4.6,1.1,7.5,4.2,8.6,9.6c6.1,28.1,0.8,39.8-3.4,49.2c-0.9,1.9-1.7,3.8-2.4,5.7l-0.5,1.5c-1.4,3.7-2.7,7.2-3.5,10.4
		C101,154.1,94.3,151.1,89.2,145.8L89.2,145.8z M90.2,183.7c-2-0.5-3.8-1.4-4.9-2.1c0.9-0.4,2.5-1,5.2-1.6
		c13.3-2.7,15.4-4.7,19.9-10.4c1-1.3,2.2-2.8,3.8-4.6c0,0,0,0,0,0c2.4-2.7,3.5-2.2,5.5-1.4c1.6,0.7,3.2,2.7,3.8,4.9
		c0.3,1.1,0.6,3.1-0.5,4.6C113.7,186.3,100.1,186.1,90.2,183.7L90.2,183.7z M160,248.6c-16.3,3.5-22.1-4.8-25.9-14.3
		c-2.5-6.1-3.7-33.9-2.8-64.4c0-0.4,0-0.8-0.2-1.2c-0.1-0.7-0.2-1.4-0.5-2.2c-1.3-4.5-4.4-8.2-8.1-9.7c-1.5-0.6-4.2-1.7-7.5-0.9
		c0.7-2.9,1.9-6.1,3.2-9.6l0.5-1.5c0.6-1.7,1.4-3.4,2.2-5.2c4.4-9.8,10.5-23.3,3.9-53.8c-2.5-11.4-10.7-17-23.2-15.7
		c-7.5,0.8-14.3,3.8-17.8,5.5c-0.7,0.4-1.4,0.7-2,1.1c1-11.5,4.6-33,18-46.6c8.5-8.6,19.8-12.8,33.6-12.6
		c27.1,0.4,44.5,14.4,54.4,26c8.5,10,13,20.1,14.9,25.5c-13.8-1.4-23.1,1.3-27.9,8.1c-10.3,14.7,5.6,43.4,13.3,57.1
		c1.4,2.5,2.6,4.7,3,5.6c2.5,6.1,5.7,10.1,8.1,13c0.7,0.9,1.4,1.8,2,2.5c-4.2,1.2-11.6,4-11,17.8c-0.5,7-4.5,39.5-6.4,51.1
		C181.4,239.6,175.8,245.3,160,248.6L160,248.6z M228.1,170.7c-4.3,2-11.4,3.5-18.2,3.8c-7.5,0.4-11.3-0.8-12.2-1.6
		c-0.4-8.6,2.8-9.5,6.2-10.5c0.5-0.2,1.1-0.3,1.6-0.5c0.3,0.3,0.7,0.5,1,0.8c6,4,16.7,4.4,31.9,1.3c0.1,0,0.1,0,0.2,0
		C236.6,165.8,233.1,168.4,228.1,170.7L228.1,170.7z"/>
</g>
</svg>
