<?xml version="1.0" encoding="utf-8"?>
<!-- Generator: Adobe Illustrator 25.3.0, SVG Export Plug-In . SVG Version: 6.00 Build 0)  -->
<svg version="1.1" id="Layer_1" xmlns="http://www.w3.org/2000/svg" xmlns:xlink="http://www.w3.org/1999/xlink" x="0px" y="0px"
	 viewBox="0 0 256 383" style="enable-background:new 0 0 256 383;" xml:space="preserve">
<g>
	<path d="M253.4,214.2H2.2V200c0-9.5,7.7-17.2,17.2-17.2h216.8c9.5,0,17.2,7.7,17.2,17.2L253.4,214.2L253.4,214.2z"/>
	<path d="M250.3,211.4v-12.7c0-7.5-6.1-13.6-13.6-13.6H19.3c-7.5,0-13.6,6.1-13.6,13.6v12.7H250.3z M250.3,362.9V217.1H5.7v145.8
		c0,7.5,6.1,13.6,13.6,13.6h217.4C244.2,376.4,250.3,370.4,250.3,362.9z M20.6,179.4l0.8-9.2l-3.6,9.3c0.5,0,1-0.1,1.5-0.1H20.6z
		 M234,163.8l1.3,15.6h1.5c0.8,0,1.6,0.1,2.4,0.2L234,163.8z M251.2,186c3,3.4,4.8,7.8,4.8,12.7v164.2c0,10.6-8.6,19.3-19.3,19.3
		H19.3C8.6,382.1,0,373.5,0,362.9V198.7c0-5.2,2-9.8,5.3-13.3l19.2-49.8L32.9,44l9.5,0.9l-7.6,82.5l2.7,1l-3.6,9.4l-3.8,41.6h195.6
		L214.8,44.7l9.5-0.8l6.4,79.5l0,0L251.2,186z M21.2,194.4c2.4,0,4.3,1.9,4.3,4.3s-1.9,4.3-4.3,4.3s-4.3-1.9-4.3-4.3
		S18.8,194.4,21.2,194.4z M35.9,194.4c2.4,0,4.3,1.9,4.3,4.3s-1.9,4.3-4.3,4.3c-2.4,0-4.3-1.9-4.3-4.3S33.5,194.4,35.9,194.4z
		 M50.1,194.4c2.4,0,4.3,1.9,4.3,4.3s-1.9,4.3-4.3,4.3s-4.3-1.9-4.3-4.3S47.7,194.4,50.1,194.4z"/>
	<path d="M36,287.7c0.7-0.9,1.1-2,1.1-3.4s-0.4-2.5-1.1-3.3c-0.8-0.9-1.9-1.3-3.3-1.3h-6.8v9.2h6.8C34.2,289,35.2,288.6,36,287.7z
		 M32.8,274.3c3,0,5.3,0.9,7,2.7c1.8,1.8,2.6,4.3,2.6,7.4s-0.9,5.5-2.6,7.4c-1.8,1.8-4.1,2.8-7.1,2.8h-6.8V307h-5.3v-32.7H32.8z
		 M61.3,294.3v-9.5H67v21.5h-5.7v-1.9c-1.7,1.7-4,2.6-6.8,2.6c-2.6,0-4.7-0.9-6.3-2.5c-1.6-1.7-2.4-3.8-2.4-6.5v-13.1h5.7v11.9
		c0,1.5,0.4,2.8,1.2,3.7c0.8,0.9,1.8,1.4,3.2,1.4C59.5,301.7,61.3,299.3,61.3,294.3z M89.2,300.2c1.1-1.2,1.7-2.7,1.7-4.7
		c0-1.9-0.6-3.5-1.7-4.7c-1.2-1.2-2.6-1.8-4.4-1.8c-1.6,0-3,0.6-4.3,1.8c-1.3,1.2-1.9,2.8-1.9,4.7c0,1.9,0.6,3.5,1.9,4.6
		c1.3,1.2,2.7,1.8,4.3,1.8C86.6,302,88.1,301.4,89.2,300.2z M85.9,284.1c2.8,0,5.3,1.1,7.4,3.2c2.1,2.2,3.1,4.9,3.1,8.2
		c0,3.3-1,6-3.1,8.2s-4.6,3.2-7.4,3.2s-5.2-0.8-7.1-2.3v12H73v-31.8h5.7v1.7C80.6,284.9,83,284.1,85.9,284.1z M116.9,300.2
		c1.1-1.2,1.7-2.7,1.7-4.7c0-1.9-0.6-3.5-1.7-4.7c-1.2-1.2-2.6-1.8-4.4-1.8c-1.6,0-3,0.6-4.3,1.8c-1.3,1.2-1.9,2.8-1.9,4.7
		c0,1.9,0.6,3.5,1.9,4.6c1.3,1.2,2.7,1.8,4.3,1.8C114.3,302,115.8,301.4,116.9,300.2z M113.6,284.1c2.8,0,5.3,1.1,7.4,3.2
		c2.1,2.2,3.2,4.9,3.2,8.2c0,3.3-1,6-3.2,8.2c-2.1,2.2-4.6,3.2-7.4,3.2s-5.2-0.8-7.1-2.3v12h-5.7v-31.8h5.7v1.7
		C108.3,284.9,110.7,284.1,113.6,284.1z M132.6,293.1H143c-0.3-1.3-1-2.3-1.9-3c-0.9-0.6-2-1-3.2-1s-2.3,0.3-3.3,1
		C133.6,290.8,132.9,291.8,132.6,293.1z M137.9,284.1c2.9,0,5.5,1,7.6,3.1s3.2,4.7,3.3,7.9v1.9h-16.4c0.3,1.5,0.9,2.7,1.9,3.6
		s2.1,1.4,3.5,1.4c2.5,0,4.2-0.9,5.4-2.8l5.1,1.1c-0.9,2.2-2.3,3.8-4.1,5c-1.8,1.1-3.9,1.7-6.3,1.7c-3.1,0-5.7-1.1-7.9-3.2
		c-2.1-2.1-3.2-4.9-3.2-8.2c0-3.3,1.1-6.1,3.2-8.2C132.1,285.2,134.7,284.1,137.9,284.1z M164.5,301.6c1.1,0,2.3-0.3,3.6-1l1.6,4.7
		c-2,1.1-3.8,1.6-5.6,1.6c-2.6,0-4.7-0.7-6.2-2.2c-1.5-1.4-2.2-3.5-2.2-6.4v-8.9H151v-4.7h4.6v-6.5h5.7v6.5h7v4.7h-7v8.5
		C161.3,300.4,162.4,301.6,164.5,301.6z M176.5,293.1h10.4c-0.3-1.3-1-2.3-1.9-3c-0.9-0.6-2-1-3.2-1s-2.3,0.3-3.3,1
		C177.4,290.8,176.8,291.8,176.5,293.1z M181.8,284.1c2.9,0,5.5,1,7.6,3.1s3.2,4.7,3.3,7.9v1.9h-16.4c0.3,1.5,0.9,2.7,1.9,3.6
		s2.1,1.4,3.5,1.4c2.5,0,4.2-0.9,5.4-2.8l5.1,1.1c-0.9,2.2-2.3,3.8-4.1,5c-1.8,1.1-3.9,1.7-6.3,1.7c-3.1,0-5.7-1.1-7.9-3.2
		c-2.1-2.1-3.2-4.9-3.2-8.2c0-3.3,1.1-6.1,3.2-8.2C176,285.2,178.6,284.1,181.8,284.1z M202,293.1h10.4c-0.3-1.3-1-2.3-1.9-3
		c-0.9-0.6-2-1-3.2-1s-2.3,0.3-3.3,1C203,290.8,202.4,291.8,202,293.1z M207.4,284.1c2.9,0,5.5,1,7.6,3.1s3.2,4.7,3.3,7.9v1.9h-16.4
		c0.3,1.5,0.9,2.7,1.9,3.6s2.1,1.4,3.5,1.4c2.5,0,4.2-0.9,5.4-2.8l5.1,1.1c-0.9,2.2-2.3,3.8-4.1,5c-1.8,1.1-3.9,1.7-6.3,1.7
		c-3.1,0-5.7-1.1-7.9-3.2c-2.1-2.1-3.2-4.9-3.2-8.2c0-3.3,1.1-6.1,3.2-8.2C201.6,285.2,204.2,284.1,207.4,284.1z M236,284.5
		c0.6,0,1.2,0,1.5,0.2l-0.3,5.5H236c-5.1,0-7.7,3.1-7.7,9.2v6.9h-5.7v-21.5h5.7v3.9C230.2,285.9,232.8,284.5,236,284.5z"/>
	<polygon points="211.1,132.6 241.8,117.8 241.8,103 170.8,69 241.8,32.5 241.8,18.2 212.2,4.4 128.1,46.2 42.5,4.4 15,19.2 
		15,31.9 81.8,68.5 15,102.4 15,117.8 43.6,132.6 128.4,89.2 	"/>
	<path d="M214.9,126.6v-6.4l23.1-12v7.2L214.9,126.6z M16.9,108l22.4,12.8v5.1l-22.4-11.3V108z M131.4,81l76.9,38v7.6l-76.9-39.4V81
		z M45.9,120.2L124.7,81v6.2l-78.9,39.9v-6.9H45.9z M101.7,56.3L21.9,17.7L42.6,7.2l85.5,44.3l84.1-44.3l21.4,11l-77.8,39.2
		c-3.1,1.6-3.1,6,0,7.6l77,38.6l-20,10.3l-84.7-43.4l-86.2,44.3l-19.7-11.3l79.6-39.6C104.9,62.3,104.9,57.8,101.7,56.3L101.7,56.3z
		 M17.8,30.8v-7l74.4,37.1l-7.5,3L17.8,30.8z M170.5,64.3c-0.1-0.1-7.1-3.4-7.1-3.4l74.7-37.6v7L170.5,64.3z M178,68l65.7-33
		c0.7-0.3,1.1-1,1.1-1.8V17.7c0-0.7-0.4-1.4-1.1-1.8L213,0.2c-0.6-0.3-1.2-0.3-1.8,0L128.9,42c-0.6,0.3-1.2,0.3-1.8,0L43.4,0.2
		c-0.6-0.3-1.2-0.3-1.8,0L11.3,15.6c-0.7,0.3-1.1,1-1.1,1.8v15.9c0,0.7,0.4,1.4,1.1,1.8l66,32.6l-65.6,32.6c-0.7,0.3-1.1,1-1.1,1.7
		l-0.3,15.6c0,0.8,0.4,1.5,1.1,1.8l31.5,16c0.6,0.3,1.2,0.3,1.8,0l82.6-41.5c0.6-0.3,1.2-0.3,1.8,0l81.5,41.5c0.5,0.3,1.2,0.3,1.7,0
		l31.4-15.2c0.7-0.3,1.1-1,1.1-1.8V102c0-0.8-0.4-1.4-1.1-1.8L178,68z"/>
</g>
</svg>
