<?xml version="1.0" encoding="utf-8"?>
<!-- Generator: Adobe Illustrator 25.3.0, SVG Export Plug-In . SVG Version: 6.00 Build 0)  -->
<svg version="1.1" id="Layer_1" xmlns="http://www.w3.org/2000/svg" xmlns:xlink="http://www.w3.org/1999/xlink" x="0px" y="0px"
	 viewBox="0 0 256 220" style="enable-background:new 0 0 256 220;" xml:space="preserve">
<g>
	<path d="M256,134.4c0,2.5-3.3,5.3-10,8.8c-13.7,7.1-84.4,36.2-99.5,44.1s-23.4,7.8-35.3,2.1S24,153.3,10.4,146.8
		c-7-3.3-10.4-6.1-10.4-8.7l0,0V164c0,2.6,3.6,5.3,10.3,8.6c13.6,6.5,88.9,36.9,100.8,42.6c11.9,5.7,20.3,5.8,35.3-2.1
		c15.1-7.9,85.8-37,99.5-44.1c7-3.6,10-6.4,10-9C256,157.6,256,134.4,256,134.4L256,134.4z"/>
	<path d="M256,52.6c0,2.5-3.3,5.3-10,8.8l0,0c-13.7,7.1-84.4,36.2-99.5,44.1s-23.4,7.8-35.3,2.1S24,71.5,10.4,65
		C3.4,61.6,0,58.8,0,56.2l0,0v25.9c0,2.6,3.6,5.3,10.3,8.6c13.6,6.5,88.9,36.9,100.8,42.6c11.9,5.7,20.3,5.8,35.3-2.1
		c15.1-7.9,85.8-37,99.5-44.1c7-3.6,10-6.4,10-9C256,75.7,256,52.6,256,52.6L256,52.6z"/>
	<path d="M256,92.6c0,2.5-3.3,5.3-10,8.8l0,0c-13.7,7.1-84.4,36.2-99.5,44.1s-23.4,7.8-35.3,2.1S24,111.5,10.4,105
		C3.4,101.6,0,98.8,0,96.2l0,0v25.9c0,2.6,3.6,5.3,10.3,8.6c13.6,6.5,88.9,36.9,100.8,42.6c11.9,5.7,20.3,5.8,35.3-2.1
		c15.1-7.9,85.8-37,99.5-44.1c7-3.6,10-6.4,10-9C256,115.7,256,92.6,256,92.6L256,92.6z"/>
	<path d="M245.8,41.9C232.5,37,162.1,9,148.7,4.1c-13.5-4.9-19-4.7-34.8,0.9C98,10.7,23.2,40.1,9.8,45.3c-13.3,5.2-13,9.7,0.5,16.2
		c13.6,6.5,88.9,36.9,100.8,42.6s20.3,5.8,35.3-2.1c15.1-7.9,85.8-37,99.5-44.1S259.1,46.8,245.8,41.9z M112.2,14l17.8,7l16.7-5.5
		l-4.5,10.9l17.1,6.4l-22,2.3L132.4,47l-8-13.2L99,31.4l19-6.8L112.2,14z M42.6,51.5c0-6.7,14.1-12.2,31.5-12.2s31.5,5.5,31.5,12.2
		S91.5,63.7,74.1,63.7S42.6,58.3,42.6,51.5z M131,90.3L90,73.2l58.9-9L131,90.3z M185.3,63.5l-3.8,1.5l-34.8-13.8L185.3,36
		l34.8,13.8L185.3,63.5z"/>
</g>
</svg>
