<?xml version="1.0" encoding="utf-8"?>
<!-- Generator: Adobe Illustrator 25.3.0, SVG Export Plug-In . SVG Version: 6.00 Build 0)  -->
<svg version="1.1" id="Layer_1" xmlns="http://www.w3.org/2000/svg" xmlns:xlink="http://www.w3.org/1999/xlink" x="0px" y="0px"
	 viewBox="0 0 256 256" style="enable-background:new 0 0 256 256;" xml:space="preserve">
<path d="M0,0v256h256V0H0z M191.9,162.5c-1.8,25.1-16.9,43.1-40.8,49c-31.4,7.8-61.8-4.1-87.5-20.5c6.5-9.9,14-16.6,20.5-26.5
	c14.9,6.3,26.5,14.9,42.1,16.2c11,0.9,23.4,0.4,25.8-12.5c2.2-11.6-7.9-17.8-17.7-21.3c-11.7-4.1-23.4-9.2-35-13.9
	c-21.3-8.7-29.9-25.7-28.5-45.7c0-11.7,9.7-35.5,33.6-42.8c36.7-11.3,56.9,0.3,83.5,17.4c-7.1,9.3-12.5,16-19.5,25.2
	c-13.5-7.8-25.5-14-41.2-13.7c-9,0.2-16.7,5-18.3,14c-1.5,8.3,5.9,12.9,13.6,15.8c12.7,4.7,23.8,9.6,36.4,14.9
	C181.6,127.4,193.3,142.8,191.9,162.5z"/>
</svg>
