<?xml version="1.0" encoding="utf-8"?>
<!-- Generator: Adobe Illustrator 25.3.0, SVG Export Plug-In . SVG Version: 6.00 Build 0)  -->
<svg version="1.1" id="Layer_1" xmlns="http://www.w3.org/2000/svg" xmlns:xlink="http://www.w3.org/1999/xlink" x="0px" y="0px"
	 viewBox="0 0 512 90" style="enable-background:new 0 0 512 90;" xml:space="preserve">
<g>
	<path d="M177.1,57.3c2.1-4.8,6.6-8,12.5-8s10.2,2.7,12.1,8H177.1z M215.7,63.4c0-14.6-10.6-26.3-26.2-26.3
		c-14.6,0-26.4,11.8-26.4,26.4s11,26.4,26.8,26.4c11,0,18.8-5.3,23.3-12.9l-11-6.6c-2.3,4.5-6.8,7.3-12.2,7.3
		c-7.3,0-11.9-3.7-13.5-9.2h39.1L215.7,63.4L215.7,63.4z M498.5,63.4c0-7.5-5.5-13.6-13-13.6c-7.7,0-13.6,5.8-13.6,13.6
		s5.9,13.7,13.6,13.7C493,77.1,498.5,70.9,498.5,63.4L498.5,63.4z M458.4,63.5c0-17.9,13.2-26.4,24.6-26.4c6.6,0,11.8,2.4,15.1,6
		V14.8H512v74h-13.9v-5.7c-3.3,4-8.7,6.7-15.3,6.7C472,89.8,458.4,81.3,458.4,63.5L458.4,63.5z M448.1,30.4c4.6,0,8.3-3.7,8.3-8.3
		s-3.7-8.3-8.3-8.3c-4.6,0-8.3,3.7-8.3,8.3S443.6,30.4,448.1,30.4L448.1,30.4z M441.2,38.1h13.9v50.7h-13.9V51.6h-5L441.2,38.1z
		 M404.2,38.1H418v8.3c2.5-5.3,7.1-8.3,14-8.3h5.6l-5,13.5h-3.8c-7.4,0-10.6,3.9-10.6,13.3v23.9h-13.9V38.1H404.2z M326,51.8
		c0-21.1,15.9-38,37.8-38c11,0,20.2,3.9,26.8,10.2c2.7,2.6,5,5.5,6.8,8.7L385,40.2c-4.6-8.4-11.6-12.8-21.2-12.8
		c-13.5,0-23.9,11.1-23.9,24.3c0,13.6,10.2,24.3,24.4,24.3c10.8,0,18.4-6.1,21-15.5h-23.2V47.2h38.4v5.7c0,19.9-14.2,37-36.2,37
		C341.3,89.8,326,72.3,326,51.8L326,51.8z M309.3,63.4c0-7.5-5.5-13.6-13-13.6c-7.7,0-13.6,5.8-13.6,13.6s5.9,13.7,13.6,13.7
		C303.8,77.1,309.3,70.9,309.3,63.4L309.3,63.4z M269.1,63.5c0-17.9,13.2-26.4,24.6-26.4c6.6,0,11.8,2.4,15.1,6V14.8h13.9v74h-13.9
		v-5.7c-3.3,4-8.7,6.7-15.3,6.7C282.8,89.8,269.1,81.3,269.1,63.5L269.1,63.5z M218.9,38.1h13.8v5.7c3.2-4.2,8.2-6.7,14-6.7
		c12,0,19.2,7.7,19.2,20.8v30.9h-14.1V59.7c0-6.8-3.1-10.8-9.3-10.8c-5.3,0-9.6,3.7-9.6,12.2v27.7H219L218.9,38.1L218.9,38.1z
		 M105.5,76.6l12.9-10.1c3.7,6.3,9.4,9.9,16,9.9c7.2,0,11.1-4.7,11.1-9.7c0-6.1-7.4-8-15.3-10.4c-9.9-3-21-6.9-21-21.1
		c0-11.9,10.3-21.3,24.6-21.3c12.1,0,19,4.6,24.9,10.8L147,33.4c-3-4.6-7.4-7-13.2-7c-6.6,0-10.1,3.5-10.1,8.2
		c0,5.7,7.1,7.6,15,10.2c10,3.2,21.4,7.7,21.4,21.9c0,11.8-9.3,23.1-25.7,23.1C121.1,89.8,112.2,84.2,105.5,76.6L105.5,76.6z"/>
	<g>
		<polygon points="0,59.2 28.3,59.2 28.3,30.9 0,30.9 		"/>
		<polygon points="0,89.2 28.3,89.2 28.3,60.9 0,60.9 		"/>
		<polygon points="29.6,89.2 57.9,89.2 57.9,60.9 29.6,60.9 		"/>
		<polygon points="59.3,29.2 87.6,29.2 87.6,0.9 59.3,0.9 		"/>
		<polygon points="59.3,59.2 87.6,59.2 87.6,30.9 59.3,30.9 		"/>
		<polygon points="29.6,59.2 57.9,59.2 57.9,30.9 29.6,30.9 		"/>
		<polygon points="29.6,29.2 57.9,29.2 57.9,0.9 29.6,0.9 		"/>
		<polygon points="29.6,59.2 57.9,59.2 57.9,30.9 29.6,30.9 		"/>
	</g>
</g>
</svg>
