<?xml version="1.0" encoding="utf-8"?>
<!-- Generator: Adobe Illustrator 25.3.0, SVG Export Plug-In . SVG Version: 6.00 Build 0)  -->
<svg version="1.1" id="Layer_1" xmlns="http://www.w3.org/2000/svg" xmlns:xlink="http://www.w3.org/1999/xlink" x="0px" y="0px"
	 viewBox="0 0 256 296" style="enable-background:new 0 0 256 296;" xml:space="preserve">
<g>
	<path d="M219,94.4V201l-90.6,53.6l-0.8,0.7v39.8l0.8,0.8L256,222.2V73.7l-1.2-0.3l-36,20.1L219,94.4"/>
	<path d="M37.6,201.8l90.9,52.7v41.4L0,221.9V74l1.3-0.2l35.9,20.8l0.4,1.2L37.6,201.8"/>
	<path d="M37.6,95.8L0,74L128.1,0L256,73.7l-37,20.7l-90.9-51.8L37.6,95.8"/>
	<path d="M54,194.1v-39.2h0.9l32,18.6l0.3,0.7v38L54,194.1"/>
	<path d="M171.3,213.1l-0.9-0.9v-36.7l0.9-0.5l0.2-0.9l31.4-18.3l0.9,0.2v37.8L171.3,213.1"/>
	<path d="M130.6,237l-0.9-0.9v-36.7l0.9-0.5l0.2-0.9l31.4-18.3l0.9,0.2v37.8L130.6,237"/>
	<path d="M97.5,219v-39.2h0.9l32,18.6l0.3,0.7v38L97.5,219"/>
	<path d="M127.2,59.5L94.6,78.9l33.2,19.3l32.6-19.1L127.2,59.5"/>
	<path d="M54,142v-39.2h0.9l32,18.6l0.3,0.7v38L54,142"/>
	<path d="M86.6,83.5L54,102.8l33.2,19.3l32.6-19.1L86.6,83.5"/>
	<path d="M171.3,161.1l-0.9-0.9v-36.7l0.9-0.5l0.2-0.9l31.4-18.3l0.9,0.2v37.8L171.3,161.1"/>
	<path d="M170.8,84.4l-32.6,19.3l33.2,19.3L204,104L170.8,84.4"/>
	<path d="M130.6,185l-0.9-0.9v-36.7l0.9-0.5l0.2-0.9l31.4-18.3l0.9,0.2v37.8L130.6,185"/>
	<path d="M97.5,166.9v-39.2h0.9l32,18.6l0.3,0.7v38L97.5,166.9"/>
	<path d="M130.1,108.3l-32.6,19.3l33.2,19.3l32.6-19.1L130.1,108.3"/>
</g>
</svg>
