<?xml version="1.0" encoding="utf-8"?>
<!-- Generator: Adobe Illustrator 25.2.3, SVG Export Plug-In . SVG Version: 6.00 Build 0)  -->
<svg version="1.1" id="Layer_1" xmlns="http://www.w3.org/2000/svg" xmlns:xlink="http://www.w3.org/1999/xlink" x="0px" y="0px"
	 viewBox="0 0 256 154" style="enable-background:new 0 0 256 154;" xml:space="preserve">
<g>
	<path d="M128,0C93.9,0,72.5,17.1,64,51.2C76.8,34.1,91.7,27.7,108.8,32c9.7,2.4,16.7,9.5,24.4,17.3c12.5,12.7,27.1,27.5,58.8,27.5
		c34.1,0,55.5-17.1,64-51.2c-12.8,17.1-27.7,23.5-44.8,19.2c-9.7-2.4-16.7-9.5-24.4-17.3C174.2,14.7,159.7,0,128,0z M64,76.8
		C29.9,76.8,8.5,93.9,0,128c12.8-17.1,27.7-23.5,44.8-19.2c9.7,2.4,16.7,9.5,24.4,17.3c12.5,12.7,27.1,27.5,58.8,27.5
		c34.1,0,55.5-17.1,64-51.2c-12.8,17.1-27.7,23.5-44.8,19.2c-9.7-2.4-16.7-9.5-24.4-17.3C110.2,91.5,95.7,76.8,64,76.8z"/>
</g>
</svg>
