<?xml version="1.0" encoding="utf-8"?>
<!-- Generator: Adobe Illustrator 25.2.3, SVG Export Plug-In . SVG Version: 6.00 Build 0)  -->
<svg version="1.1" id="Layer_1" xmlns="http://www.w3.org/2000/svg" xmlns:xlink="http://www.w3.org/1999/xlink" x="0px" y="0px"
	 viewBox="0 0 512 125" style="enable-background:new 0 0 512 125;" xml:space="preserve">
<g>
	<path d="M63.8,11.3H37.3v82.3H26.4V11.3H0V1.6h63.8V11.3z M113.9,27.9l-30.3,76.3c-5.3,13.6-13,20.4-22.7,20.4
		c-2.8,0-5-0.3-6.8-0.8v-9.4c2.3,0.8,4.4,1.1,6.2,1.1c5.3,0,9.2-3.2,12-9.6l5.2-12.5L51.8,27.9h11.7l17.8,50.5
		c0.2,0.6,0.6,2.3,1.3,5h0.3c0.2-1,0.6-2.6,1.3-4.9l18.6-50.7H113.9L113.9,27.9z M131,84.1h-0.3v39.7h-10.5V27.9h10.5v11.5h0.3
		c5.2-8.7,12.8-13.1,22.7-13.1c8.4,0,15.1,2.9,19.8,8.7s7.1,13.8,7.1,23.6c0,11-2.8,19.8-8.1,26.4c-5.3,6.6-12.6,9.9-21.9,9.9
		C142.4,95.2,135.7,91.5,131,84.1L131,84.1z M130.9,57.7v9.2c0,5.5,1.8,10,5.3,13.8s7.9,5.7,13.4,5.7c6.3,0,11.3-2.4,15.1-7.3
		c3.6-4.9,5.3-11.7,5.3-20.4c0-7.3-1.6-13.1-5-17.2c-3.4-4.2-7.9-6.2-13.8-6.2c-6.2,0-11,2.1-14.7,6.3
		C132.7,45.8,130.9,51.2,130.9,57.7L130.9,57.7z M245.1,63.3h-46.3c0.2,7.3,2.1,13,5.8,17c3.7,4,8.9,6,15.5,6
		c7.5,0,14.3-2.4,20.4-7.3v9.9c-5.8,4.2-13.4,6.3-22.8,6.3c-9.2,0-16.5-2.9-21.9-8.9c-5.3-6-7.9-14.4-7.9-25.1
		c0-10.2,2.9-18.6,8.7-24.9c5.8-6.5,13-9.7,21.5-9.7s15.2,2.8,19.9,8.4c4.7,5.5,7.1,13.3,7.1,23.2L245.1,63.3L245.1,63.3z
		 M234.2,54.4c0-6.2-1.5-10.9-4.4-14.3c-2.9-3.4-7-5-12-5c-5,0-9.2,1.8-12.6,5.3s-5.7,8.3-6.5,13.9H234.2z M250.2,90.4v-7.3
		c6.6,4.2,13.3,6.3,20.1,6.3c7.1,0,12.6-1.5,16.4-4.5s5.5-7.1,5.5-12.5c0-4.7-1.3-8.4-3.7-11.3c-2.4-2.8-7.9-6.6-16.2-11.5
		c-9.4-5.5-15.2-10-17.7-13.6c-2.4-3.7-3.7-7.9-3.7-12.6c0-6.5,2.6-12,7.6-16.5c5-4.5,11.8-6.8,20.2-6.8c5.5,0,11,1,16.4,2.8v6.6
		c-5.3-2.4-11.2-3.7-17.3-3.7c-6.3,0-11.2,1.6-14.9,4.7c-3.7,3.2-5.5,7.1-5.5,12c0,4.7,1.3,8.4,3.7,11.2c2.4,2.8,7.9,6.6,16.2,11.3
		c8.6,4.9,14.3,9.2,17.2,13c2.9,3.7,4.2,8.1,4.2,13.1c0,7.1-2.4,12.8-7.3,17.3c-4.9,4.5-11.8,6.6-20.7,6.6c-3.2,0-6.8-0.5-11-1.5
		C255.4,92.5,252.4,91.7,250.2,90.4L250.2,90.4z M353.4,90.7c-4.9,2.9-10.7,4.5-17.5,4.5c-8.9,0-16.2-3.1-21.7-9.2
		S306,71.9,306,61.9c0-10.4,3.1-19,9.2-25.6c6.2-6.6,14.1-10,23.8-10c5,0,9.9,1,14.6,3.1V36c-4.7-2.9-9.9-4.4-15.4-4.4
		c-7.8,0-13.9,2.8-18.8,8.3s-7.1,12.8-7.1,21.5c0,8.6,2.3,15.4,6.6,20.6c4.4,5.2,10.2,7.8,17.3,7.8c6.6,0,12.3-1.8,17.2-5.2V90.7
		L353.4,90.7z M392.6,34c-1.9-1.5-4.2-2.1-7-2.1c-5.2,0-9.6,2.8-13,8.1c-3.6,5.3-5.2,13-5.2,22.8v30.9h-5.8V27.9h5.8v14.6h0.3
		c1.5-5,3.9-8.9,7.1-11.7c3.2-2.8,7-4.2,11.3-4.2c2.4,0,4.7,0.3,6.5,1.1V34H392.6L392.6,34z M402,11.3c-1.3,0-2.4-0.5-3.4-1.5
		c-1-1-1.5-2.1-1.5-3.6s0.5-2.6,1.5-3.4c1-0.8,2.1-1.3,3.4-1.3c1.3,0,2.4,0.5,3.6,1.3c1,0.8,1.5,1.9,1.5,3.4c0,1.3-0.5,2.6-1.5,3.6
		C404.4,10.9,403.3,11.3,402,11.3z M399.1,93.6V27.9h5.8v65.8H399.1z M425.2,82h-0.3v42H419V27.9h5.8v13.6h0.3
		c2.4-4.9,5.7-8.6,10-11.2c4.4-2.6,9.2-3.9,14.4-3.9c8.4,0,14.9,2.9,19.6,8.6c4.7,5.8,7,13.6,7,23.5c0,11-2.8,19.9-8.1,26.7
		c-5.3,6.8-12.5,10.2-21.2,10.2C437.2,95.2,429.9,90.9,425.2,82z M424.9,57.5v8.3c0,6.6,2.1,12.3,6.2,17c4.2,4.7,9.6,7.1,16.4,7.1
		c6.6,0,12.1-2.9,16.4-8.6c4.2-5.8,6.3-13.3,6.3-22.7c0-8.3-1.9-14.7-5.8-19.6s-8.9-7.3-15.4-7.3c-7.6,0-13.6,2.6-17.8,7.8
		S424.9,50.5,424.9,57.5z M512,92.6c-3.1,1.5-6,2.1-8.6,2.1c-9.7,0-14.6-5.8-14.6-17.5V33.4H477V28h11.8V10.9l2.9-1l2.9-1V28H512
		v5.3h-17.3v43.4c0,4.5,0.6,7.8,2.1,9.9c1.5,2.1,3.9,3.1,7.3,3.1c2.4,0,5-0.8,7.9-2.4V92.6L512,92.6z"/>
</g>
</svg>
