<?xml version="1.0" encoding="utf-8"?>
<!-- Generator: Adobe Illustrator 25.3.0, SVG Export Plug-In . SVG Version: 6.00 Build 0)  -->
<svg version="1.1" id="Layer_1" xmlns="http://www.w3.org/2000/svg" xmlns:xlink="http://www.w3.org/1999/xlink" x="0px" y="0px"
	 viewBox="0 0 512 102" style="enable-background:new 0 0 512 102;" xml:space="preserve">
<g>
	<path d="M31.8,5.2L31.8,5.2c-1.1-2.9-3.9-4.8-7.1-4.8c0,0,0,0-0.2,0l0,0H6.9l0,0l0,0c-3.6,0-6.3,2.9-6.3,6.3c0,3.4,2.9,6.3,6.3,6.3
		l0,0h14.2l7.3,17.5l7.8,19.2h13.7L31.8,5.2z"/>
	<path d="M104.3,0.3c-2.4,0-4.2,1.4-5.5,4.3L65.2,88.6L54.7,61.9h-5h-8.4L54.9,95c1.9,4.4,5,6.6,8.9,6.6h3.1c3.9,0,6.9-2.3,8.9-6.6
		L111,9.4c0.3-0.6,0.5-1.6,0.5-3.1s-0.6-2.7-1.8-4C108.5,1,106.7,0.3,104.3,0.3L104.3,0.3z M141.2,0.3c-1.8,0-3.3,0.6-4.5,1.9
		c-1.3,1.3-1.9,2.9-1.9,4.7v55.6c0,12.4,4.3,22.3,13.2,29.4c7.6,6.1,17,9.4,27.8,9.4c10.7,0,19.9-3.1,27.6-9.4
		c8.9-7.1,13.4-16.9,13.4-29.4V7c0-1.8-0.7-3.4-2-4.7s-2.9-1.9-4.7-1.9c-1.9,0-3.4,0.6-4.2,1.9C204.7,3.5,204,5.2,204,7v56.1
		c0,8.6-2.9,15.2-8.7,20c-5.3,4.4-11.8,6.7-19.4,6.7s-14.1-2.3-19.4-6.7c-5.8-4.8-8.7-11.4-8.7-20V7c0-1.8-0.6-3.4-1.9-4.7
		C144.6,1,142.9,0.3,141.2,0.3L141.2,0.3z M333.2,0.3c-1.8,0-3.3,0.6-4.4,1.8c-1.1,1.1-1.8,2.6-1.8,4.4c0,1.8,0.6,3.2,1.8,4.3
		c1.3,1.1,2.6,1.8,4.4,1.8h29.2v82.9c0,1.8,0.6,3.2,1.9,4.5c1.1,1.3,2.8,2,4.5,2s3.4-0.7,4.7-2c1.3-1.1,1.9-2.7,1.9-4.5V12.6h29.1
		c1.8,0,3.2-0.6,4.3-1.8c1.1-1.3,1.8-2.6,1.8-4.3c0-1.8-0.7-3.3-1.8-4.4c-1.1-1.1-2.6-1.8-4.3-1.8H333.2L333.2,0.3z M256.9,0.5
		c-1.8,0-3.2,0.7-4.5,2c-1.3,1.3-2,2.9-2,4.6v85.6c0,2.4,0.8,4.5,2.6,6.3s3.9,2.6,6.3,2.6H310c1.8,0,3.4-0.5,4.7-1.8
		c1.3-1.1,1.9-2.7,1.9-4.5c0-1.8-0.6-3.4-1.9-4.7c-1.3-1.3-2.9-2-4.7-2v0.2h-46.6V7.1c0-1.8-0.6-3.4-1.9-4.6S258.6,0.5,256.9,0.5
		L256.9,0.5z M437.9,0.5c-1.8,0-3.4,0.7-4.7,2s-1.9,2.9-1.9,4.6v87.6c0,4,3.2,7.1,7.3,7.1c4,0,7.3-3.2,7.3-7.3V63.4h28.6
		c5.5,0,10-0.2,12.9,1.9c3.1,2.1,5.3,5.2,7.1,8.7c1.8,3.7,2.6,9.4,2.6,17.3v3.8c0,1.9,0.7,3.6,1.8,4.7c1.1,1.1,2.7,1.8,4.6,1.8
		c1.9,0,3.6-0.6,4.8-1.9s2-2.8,2-4.7v-6.1c0-6.5-1-12.5-3.1-18c-2.9-8.2-8.1-13.2-15-15c6.5-2.3,11.2-5.8,14.4-10.7
		c3.1-4.8,4.7-10,4.7-15.7c0-8.7-3.1-15.7-9.4-21c-6.8-5.7-16.8-8.1-30-8.1H437.9L437.9,0.5z M445.9,14.6h24.2
		c9.5,0,16.5,1.4,21,4.5c3.7,2.7,5.5,6.6,5.5,12c0,5.7-2.4,10-7.1,12.9c-4.7,3.1-11,4.5-18.7,4.5h-24.9V14.6L445.9,14.6z"/>
</g>
</svg>
